<?xml version="1.0" encoding="utf-8"?>
<!-- Generator: Adobe Illustrator 23.0.0, SVG Export Plug-In . SVG Version: 6.00 Build 0)  -->
<svg version="1.1" id="Capa_1" xmlns="http://www.w3.org/2000/svg" xmlns:xlink="http://www.w3.org/1999/xlink" x="0px" y="0px"
	 viewBox="0 0 1317 933.5" style="enable-background:new 0 0 1317 933.5;" xml:space="preserve">
<style type="text/css">
	.st0{display:none;}
	.st1{display:inline;fill:#29ABE2;}
	.st2{fill:#A2C5B1;}
	.st3{fill:#F1F2F2;}
	.st4{fill:#E6E7E8;}
	.st5{fill:#688977;}
	.st6{opacity:0.5;fill:#0071BC;enable-background:new    ;}
	.st7{fill:#FAB29A;}
	.st8{opacity:0.5;fill:#CC8A79;enable-background:new    ;}
	.st9{fill:#D7CFBA;}
	.st10{fill:#898981;}
	.st11{fill:#668E5B;}
	.st12{fill:#FFFFFF;}
	.st13{fill:#CCCCCC;}
	.st14{fill:#CC8A79;}
	.st15{fill:#F0F7EE;}
	.st16{fill:#DDAFDD;}
	.st17{fill:#AD7DA0;}
	.st18{fill:#875778;}
	.st19{fill:#2E3192;}
	.st20{display:inline;}
	.st21{fill:#F8FAFB;}
</style>
<g id="BACKGROUND" class="st0">
	<rect x="287.7" y="433.5" class="st1" width="500" height="500"/>
</g>
<g>
	<g>
		<g>
			<g>
				<path class="st2" d="M1305.5,236.8c-0.5-12.2-10.5-22-22.8-22c-2.6,0-5.1,0.5-7.5,1.3c-4.7-11.3-15.8-19.2-28.8-19.2
					c-1.5,0-3,0.1-4.5,0.4c0-0.1,0-0.2,0-0.4c0-24.1-19.5-43.6-43.6-43.6c-24.1,0-43.6,19.5-43.6,43.6c-17.2,0-31.2,14-31.2,31.2
					c0,3,0.4,5.9,1.2,8.7H1305.5z"/>
			</g>
		</g>
	</g>
	<g>
		<g>
			<g>
				<path class="st2" d="M387.6,261.4c0.4-11.6,9.9-20.9,21.6-20.9c2.5,0,4.9,0.4,7.1,1.2c4.5-10.7,15-18.2,27.3-18.2
					c1.4,0,2.9,0.1,4.3,0.3c0-0.1,0-0.2,0-0.3c0-22.8,18.5-41.3,41.3-41.3c22.8,0,41.3,18.5,41.3,41.3c16.3,0,29.6,13.2,29.6,29.6
					c0,2.9-0.4,5.6-1.2,8.3H387.6z"/>
			</g>
		</g>
	</g>
	<g>
		<g>
			<g>
				<path class="st2" d="M1142,33.5c-16.3,0-29.9,11.7-33,27.1c-3.8-3.9-9.2-6.4-15.1-6.4c-11.1,0-20.2,8.7-20.9,19.6l102.3-0.2
					c0.4-2.1,0.6-4.2,0.6-6.3C1175.8,48.6,1160.6,33.5,1142,33.5z"/>
			</g>
		</g>
	</g>
	<g>
		<g>
			<g>
				<path class="st2" d="M957.7,138.2c-9.1,0-16.7,6.5-18.4,15.1c-2.1-2.2-5.1-3.5-8.4-3.5c-6.2,0-11.2,4.8-11.6,10.9l57-0.1
					c0.2-1.1,0.3-2.3,0.3-3.5C976.5,146.6,968.1,138.2,957.7,138.2z"/>
			</g>
		</g>
	</g>
	<g>
		<g>
			<g>
				<path class="st2" d="M664.2,108.3c-17.4,0-32,12.4-35.3,28.9c-4.1-4.2-9.8-6.8-16.1-6.8c-11.9,0-21.5,9.3-22.3,20.9l109.2-0.2
					c0.4-2.2,0.6-4.5,0.6-6.8C700.4,124.4,684.2,108.2,664.2,108.3z"/>
			</g>
		</g>
	</g>
	<g>
		<g>
			<g>
				<path class="st2" d="M525.6,32c12.8,0,23.5,9.1,25.9,21.2c3-3.1,7.2-5,11.8-5c8.7,0,15.8,6.8,16.4,15.3l-80.2-0.2
					c-0.3-1.6-0.5-3.3-0.5-5C499.1,43.8,511,31.9,525.6,32z"/>
			</g>
		</g>
	</g>
	<g>
		<g>
			<path class="st3" d="M703.3,248c0,0-3.5-15.4-18.3-28.2c-11.8-10.3-26.3-10.9-34-6.9c-10.5,5.5-4.5,20.9,5.7,14.6
				c-7.1,10.8,4.8,20,14.1,11c-2.8,4-0.3,9.3,3.3,11.2C682.6,254.3,690.3,237.8,703.3,248z"/>
		</g>
		<g>
			<path class="st3" d="M768,280.5c0,0,13.6-7.9,33.2-5.7c15.6,1.7,25.9,11.9,28.2,20.3c3.1,11.4-12.3,17.5-14.6,5.8
				c-3.1,12.6-18,10.1-17.6-2.9c-1,4.7-6.6,6.5-10.5,5.2C777.4,299.9,784.3,283,768,280.5z"/>
		</g>
		<g>
			<path class="st4" d="M703.3,248c0,0-1.1-5-4.8-11.6c-4.1,3.6-8.2,7.3-12.5,10.8C690.9,244.7,696.3,242.5,703.3,248z"/>
		</g>
		<g>
			<path class="st4" d="M768,280.5c7.4,1.2,10,5.2,11.5,9.7c1.1-4.9,2.2-9.8,3.3-14.7C773.6,277.2,768,280.5,768,280.5z"/>
		</g>
		<g>
			<path class="st4" d="M729.3,213.4c17.5,9.9,36,19.4,55.6,28.2c-6.8,37-15.8,74.1-26.9,111.1c-44.9-18-85.9-38.5-122.9-60.7
				C671.2,267,702.6,240.6,729.3,213.4z"/>
		</g>
		<g>
			<path class="st2" d="M758.1,352.7c-44.9-18-85.9-38.5-122.9-60.7l-0.1,2.3C672,316.6,713,337,757.9,355
				C769,318,778,281,784.8,244l0.1-2.3C778.1,278.7,769.2,315.7,758.1,352.7z"/>
		</g>
		<g>
			<path class="st5" d="M759.3,322.3c7.8-24.4,14.5-48.9,20.2-73.4c0.6-2.5,1.1-4.9,1.7-7.4c-5.3-2.4-10.5-4.9-15.6-7.4
				c-6.6-3.2-13.2-6.6-19.6-9.9c-5-2.6-9.8-5.3-14.6-8c-1.7,1.9-3.5,3.7-5.3,5.6c-17.8,18.6-37.6,36.9-59.5,54.6
				c-6.4,5.2-13.1,10.4-19.8,15.5c9.8,5.7,19.8,11.3,30.2,16.8c13.3,7.1,27.1,13.9,41.3,20.5c11,5.1,22.2,10,33.8,14.8
				C754.6,336.8,757,329.6,759.3,322.3z M745.8,226.7c5.9,3.1,11.8,6.1,17.9,9.1c-1.2,2.9,3.3,8,10.4,11.3
				c-2.1,7.2-4.3,14.3-6.5,21.5c-3.1-6.7-11.8-14.3-22.8-19.9c-11-5.5-22.1-7.9-29.7-6.5c5.4-5.7,10.5-11.4,15.5-17.1
				c0.1,0,0.1,0.1,0.2,0.1C737.1,228.7,744,229.3,745.8,226.7z M684.6,304c6.7-7.4,2.4-17.7-8.4-23.7c-0.1-0.1-0.2-0.1-0.3-0.1
				c10.4-9.3,20.4-18.8,29.8-28.4c0.2,7.3,8.2,17.1,22.2,24c13.9,7,28.2,8.3,35.6,4.9c-4.1,12.1-8.5,24.3-13.1,36.4
				c-12.3-5.3-25.3-3.7-30.3,4.6C707.9,315.9,696.1,310,684.6,304z"/>
		</g>
	</g>
	<g>
		<g>
			<path class="st3" d="M916.1,243.8c0,0-12.1-8.5-30.5-8.1c-14.7,0.3-25.1,9-27.9,16.6c-3.8,10.4,10,17.3,13.1,6.6
				c1.8,12,15.9,10.9,16.6-1.2c0.6,4.5,5.7,6.6,9.4,5.7C905.7,261.2,900.7,244.9,916.1,243.8z"/>
		</g>
		<g>
			<path class="st3" d="M978.2,224.2c0,0,2.8-14.5,16.3-27c10.8-10,24.3-11.1,31.6-7.5c10,4.8,4.8,19.4-4.8,13.9
				c7,9.9-3.9,18.9-12.8,10.7c2.7,3.6,0.5,8.7-2.8,10.6C997.7,229.4,990,214.2,978.2,224.2z"/>
		</g>
		<g>
			<path class="st4" d="M904.4,252.2c1.8-4.1,4.5-7.9,11.7-8.4c0,0-5.9-4.1-15.7-6.5C901.7,242.3,903,247.3,904.4,252.2z"/>
		</g>
		<g>
			<path class="st4" d="M981.6,214.7c-2.6,5.5-3.4,9.5-3.4,9.5c9-7.6,15.6-0.6,21.8,1.1C993.8,221.8,987.7,218.3,981.6,214.7z"/>
		</g>
		<g>
			<path class="st4" d="M898.9,215.5c18.2-3.1,36.6-7.1,55-12.2c34.1,20.6,66.2,38.6,95.9,54.7c-41.8,26.2-83.3,46.2-123.4,60.5
				C917.5,284.2,908.3,249.9,898.9,215.5z"/>
		</g>
		<g>
			<path class="st2" d="M926.4,318.5c-8.9-34.3-18.1-68.6-27.5-102.9l0.3,2.1c9.4,34.3,18.6,68.6,27.5,102.9
				c40.1-14.3,81.6-34.3,123.4-60.5l-0.3-2.1C1008,284.2,966.5,304.2,926.4,318.5z"/>
		</g>
		<g>
			<path class="st5" d="M1017.1,245.8c-19.1-11.7-39.1-24.2-60-37.6c-1.7-1.1-3.5-2.2-5.2-3.4c-4.8,1.3-9.5,2.5-14.3,3.7
				c-6.5,1.6-12.9,3-19.3,4.4c-5.2,1.1-10.4,2.1-15.7,3c0.5,1.6,1.1,3.2,1.6,4.8c7,20.8,13.8,41.6,20.4,62.4
				c2.7,8.4,5.4,16.8,8,25.2c11.7-4.2,23.5-8.9,35.4-14.1c13.7-5.9,27.4-12.5,41.3-19.8c9.6-5,19.1-10.3,28.7-16
				C1031.2,254.4,1024.2,250.1,1017.1,245.8z M920.2,214c5.9-1.3,11.8-2.6,17.7-4.1c1.7,1.6,8.5,1.7,14.9-0.1
				c5.2,3.7,10.4,7.4,15.5,11c-7.5-1.1-18.6,0-29.4,2.8c-11,2.9-19.7,7.3-22.7,11.8c-2.1-5.1-4.3-10.2-6.4-15.3c0.1,0,0.1,0,0.2,0
				C916.9,218.7,921.4,215.9,920.2,214z M965.8,285.7c-5.3-8.7-19.1-11.3-31.6-7.3c-0.1,0-0.2,0.1-0.3,0.1
				c-4.5-11.2-9.1-22.4-13.7-33.6c7.5,3.5,21.7,3.7,35.8-1c13.5-4.5,21.5-11.5,21.6-16.6c10.4,7.4,20.6,14.5,30.6,21.4
				c-10.6,5.1-14.1,13.9-6.9,20.9C989.3,275.5,977.5,280.9,965.8,285.7z"/>
		</g>
	</g>
	<g>
		<g>
			<path class="st3" d="M790.6,569.7c0,0-14.4-21.4-44.6-32.2c-24.1-8.7-46.6-1.1-56,9.6c-12.7,14.6,5.6,34.5,17.3,18.9
				c-4.5,20.7,19.2,27.7,27.9,8.4c-1.9,7.7,5.1,14.3,11.7,15.1C762.8,591.5,764.8,561.8,790.6,569.7z"/>
		</g>
		<g>
			<path class="st3" d="M900.8,570.7c0,0,16.1-20.1,47.2-28.4c24.8-6.6,46.5,2.8,54.9,14.3c11.5,15.6-8.4,33.9-18.8,17.4
				c2.8,21-21.5,26-28.5,6c1.2,7.8-6.3,13.8-13,14.1C926.6,594.7,927.1,564.9,900.8,570.7z"/>
		</g>
		<g>
			<path class="st4" d="M790.6,569.7c0,0-3.5-5.2-10.7-11.8c-1.5,3.9-3.1,7.8-4.7,11.7C779.3,568.1,784.3,567.7,790.6,569.7z"/>
		</g>
		<g>
			<path class="st4" d="M910.5,561.3c-6.4,5.2-9.7,9.3-9.7,9.3c6.9-1.5,12-0.5,16,1.6C914.6,568.7,912.5,565,910.5,561.3z"/>
		</g>
		<g>
			<path class="st4" d="M801.5,513.3c26.9,3.4,54,4.7,81.1,3.8c23.6,51.3,54.4,101,92.1,147.8c-78.6,13.8-159.1,13.8-237.8,0.1
				C762.4,615.5,783.9,564.8,801.5,513.3z"/>
		</g>
		<g>
			<path class="st2" d="M737,665.1v2.4c78.7,13.7,159.1,13.7,237.8-0.1V665C896.1,678.7,815.7,678.8,737,665.1z"/>
		</g>
		<g>
			<path class="st5" d="M934.9,628c-20.2-32.3-37.7-65.5-52.3-99.3c-1.4-3.1-2.7-6.3-4-9.4c-7.3,0.2-14.6,0.2-22,0.1
				c-9.6-0.2-19.1-0.6-28.7-1.3c-7.5-0.6-14.9-1.3-22.3-2.1c-0.9,3.1-1.8,6.2-2.8,9.3c-10.2,34-21.9,67.7-34.9,101.1
				c-4.3,10.9-8.7,21.8-13.2,32.7c20.6,3.1,41.3,5.3,62,6.5c26.3,1.5,52.7,1.5,79.1,0c20-1.2,39.9-3.2,59.8-6.1
				C948.4,648.9,941.5,638.5,934.9,628z M829.4,521c8.8,0.6,17.6,1,26.4,1.2c0.7,4,9.6,7.6,19.7,7.4c3.5,9.7,7.2,19.4,11.1,29
				c-9.4-6.1-25.3-10-42.2-10.6c-17-0.6-32.4,2.2-40.8,7.9c2.4-9.7,4.7-19.3,6.9-29c0.1,0,0.2,0,0.3,0
				C820.8,527.9,829.2,525,829.4,521z M821.6,654c0.6-14.1-15.7-25.3-36.5-27.7c-0.2,0-0.4,0-0.5-0.1c5.1-17.8,10-35.7,14.6-53.5
				c6.2,9.3,25.2,17.7,48.7,18.2c23.4,0.5,41-6.9,45.6-15.6c7.6,17.6,15.9,35.1,24.8,52.4c-20.3,1.9-34.2,12.6-30.2,26.5
				C866,655.2,843.8,655.1,821.6,654z"/>
		</g>
	</g>
	<g>
		<g>
			<path class="st3" d="M1067.8,399.5c0,0-21-7.8-47.9-0.2c-21.5,6.1-33.5,22.8-34.7,35.2c-1.6,16.7,21.4,21.6,21.8,4.6
				c7.3,16.9,27.6,9.9,24-8.2c2.6,6.4,10.9,7.5,16,4.8C1059.2,429,1045.5,407,1067.8,399.5z"/>
		</g>
		<g>
			<path class="st3" d="M1142.9,363.3c0,0,4.6-22,25.4-40.6c16.6-14.9,37.2-16.2,48.3-10.6c15,7.6,6.8,29.7-7.7,20.9
				c10.4,15.2-6.4,28.6-19.8,15.9c4.1,5.6,0.6,13.2-4.5,16C1172.5,371.8,1161.1,348.5,1142.9,363.3z"/>
		</g>
		<g>
			<path class="st4" d="M1047.5,396.1c2.7,4.5,5.5,8.9,8.3,13.3c1.9-4.1,5.3-7.6,12-9.9C1067.8,399.5,1059.8,396.6,1047.5,396.1z"/>
		</g>
		<g>
			<path class="st4" d="M1157.6,358.5c-3.6-2.1-7.2-4.3-10.7-6.4c-3,6.8-4,11.3-4,11.3C1148.4,358.9,1153.2,357.9,1157.6,358.5z"/>
		</g>
		<g>
			<path class="st4" d="M1029.3,352.1c24.4-7.9,47.5-16.8,69.4-26.4c46.2,34.7,101.5,65.1,165.1,88.9c-42.4,27-89.9,51.6-142.4,72.5
				C1083.3,444.1,1052.6,398.7,1029.3,352.1z"/>
		</g>
		<g>
			<path class="st2" d="M1121.5,487.1c-38.1-43-68.9-88.4-92.1-135v2.7c23.2,46.6,54,92,92.1,135c52.5-21,100-45.5,142.4-72.5v-2.7
				C1221.5,441.6,1173.9,466.2,1121.5,487.1z"/>
		</g>
		<g>
			<path class="st5" d="M1211.8,399.6c-39.2-18.8-74.4-40.2-105.7-63.6c-3.2-2.4-6.3-4.7-9.4-7.1c-5.9,2.6-11.9,5.1-18,7.6
				c-8,3.2-16.1,6.3-24.4,9.3c-6.5,2.4-13.1,4.6-19.7,6.8c1.7,3.1,3.4,6.2,5.1,9.2c17.5,30.7,38.4,60.8,62.7,89.9
				c7.2,8.5,14.6,17,22.4,25.4c13.7-5.6,27.1-11.5,40.2-17.5c16.6-7.7,32.6-15.8,48-24.3c11.7-6.4,23.1-13,34.2-19.8
				C1235.2,410.4,1223.3,405.1,1211.8,399.6z M1057.7,347.9c7.5-2.8,15-5.6,22.3-8.6c3.3,3.3,12.9,3.4,20.9-0.1
				c9,7.2,18.5,14.3,28.2,21.2c-11.4-2.1-26.4-0.3-39.8,5.2c-13.5,5.5-22.9,13.7-24.4,21.5c-6.3-8.8-12.3-17.8-18-26.8
				c0.1,0,0.1,0,0.2-0.1C1055.9,357.2,1060.4,351.5,1057.7,347.9z M1158.3,450.8c-11.5-9.2-30.9-11.3-45.6-5.4
				c-0.1,0.1-0.2,0.1-0.4,0.2c-13.1-14.3-25.3-28.9-36.5-43.7c12,4.7,31.7,3.9,48.5-3.5c16.7-7.4,24.1-18.3,21.5-26.6
				c17.1,11.2,35.3,22,54.4,32.1c-12.6,6.9-13.8,18.5-0.5,26.4C1186.4,437.4,1172.6,444.2,1158.3,450.8z"/>
		</g>
	</g>
	<g>
		<g>
			<path class="st3" d="M544.6,384.4c0,0-4.6-20.4-24.3-37.5c-15.7-13.6-34.9-14.5-45.1-9.1c-13.9,7.3-5.9,27.7,7.5,19.4
				c-9.5,14.3,6.4,26.6,18.6,14.5c-3.7,5.3-0.3,12.3,4.4,14.9C517.1,392.7,527.4,370.8,544.6,384.4z"/>
		</g>
		<g>
			<path class="st3" d="M627.5,417.4c0,0,18.1-10.5,44-7.6c20.7,2.3,34.3,15.8,37.3,26.9c4.1,15.1-16.3,23.2-19.3,7.7
				c-4.1,16.7-23.8,13.3-23.3-3.8c-1.4,6.3-8.8,8.6-13.9,6.9C640,443.2,649.1,420.8,627.5,417.4z"/>
		</g>
		<g>
			<g>
				<path class="st4" d="M544.6,384.4c0,0-0.7-3.2-2.8-8.1c-2.9,1.2-5.8,2.4-8.8,3.6C536.5,379.8,540.3,381,544.6,384.4z"/>
			</g>
		</g>
		<g>
			<path class="st4" d="M627.5,417.4c3.7,0.6,6.5,1.7,8.6,3.2c0.6-2.5,1.3-5,1.9-7.6C631.4,415.2,627.5,417.4,627.5,417.4z"/>
		</g>
		<g>
			<path class="st4" d="M579.5,362.7c19.1,7.4,39.3,13.5,60.6,18c-8.5,46.3-22.5,92.3-42.2,137.3c-69.9-25.8-128.5-63.4-173.8-107.3
				C484.9,404.5,537.5,386.9,579.5,362.7z"/>
		</g>
		<g>
			<path class="st2" d="M597.9,518c-69.9-25.8-128.5-63.4-173.8-107.3l-0.4,2.3c45.3,43.9,103.9,81.5,173.8,107.3
				c19.7-45,33.8-91.1,42.2-137.3c0,0,0,0,0,0C631.1,428.4,617.2,473.7,597.9,518z"/>
		</g>
		<g>
			<path class="st5" d="M604.6,469.4c12.2-27,22.1-54.4,29.5-82c0.6-2.1,1.1-4.2,1.7-6.3c-6-1.4-12-2.8-17.9-4.4
				c-7.2-2-14.4-4.1-21.3-6.5c-5.1-1.7-10.2-3.5-15.2-5.5c-2.1,1.3-4.3,2.6-6.5,3.9c-26.8,15.7-57.8,28.7-92.5,37.9
				c-12.9,3.4-26.4,6.3-40.3,8.6c10.6,9.4,21.9,18.4,33.8,27c17.4,12.6,36.2,24.4,56.3,35.1c17.7,9.4,36.3,18,55.9,25.6
				C593.9,491.8,599.5,480.6,604.6,469.4z M596.1,371.9c6.4,2.2,12.9,4.2,19.6,6c-1.5,2.3,3.6,6.3,11.9,8.3
				c-2.5,6.7-5.2,13.3-8,19.9c-3.8-6.1-14.1-12.3-26.9-16.8c-12.3-4.3-25.1-6.5-34.4-5.8c7.3-4.1,14.3-8.3,21-12.7
				c0.1,0,0.1,0,0.2,0.1C586.2,373.6,593.9,373.9,596.1,371.9z M491.6,438.6c15-6.7,14.1-18.4,2.1-26.5c-0.1-0.1-0.2-0.1-0.3-0.2
				c18.2-6.1,35.4-13.2,51.3-21.1c-1.9,6.2,5.4,15.9,22.1,23.2c17.4,7.7,37.1,8.7,47.2,4.5c-6.9,14.7-14.6,29.3-23.3,43.6
				c-18.5-6.9-39.6-5.7-51.6,4.5C522.4,458,506.5,448.7,491.6,438.6z"/>
		</g>
	</g>
</g>
<g id="OBJECTS">
	<g>
		<g>
			<path class="st6" d="M925.5,720.4v189.2l-155.8-2.3l-8.9-10.9l-36.2-4.9l-1-29c-2,1.4-4.1,2.7-6.1,4
				c-51,30.9-98.1,10.6-98.1,10.6c-3.1,8-7.8,14.2-13.4,19c-0.7,0.6-1.4,1.2-2.1,1.7c-2.2,1.6-4.5,3.1-6.8,4.4
				c-1.6,0.9-3.3,1.7-5,2.5c-0.1,0.1-0.3,0.1-0.4,0.2c-1.2,0.5-2.5,1-3.7,1.5c-12.6,4.6-25.8,5.4-34.2,5.4c-1.5,0-2.8,0-4-0.1
				c0,0,0,0,0,0c-0.4,0-0.8,0-1.2-0.1c-2.1-0.1-4.3-0.4-6.8-0.9c-0.2-0.1-0.5-0.1-0.8-0.1l-371.9-2.8l0.1-12.4l0.1-18.1h-0.1
				l-4.6-0.4l1.1-12.3l1.9-22.2l-1.1-0.2l-3.9-0.7l2.2-12l4.9-27.3l0.1-0.6l0.1-13l0.5-63.5l6.5,0.1l1.1,0l1.1-12.4l1.6-17.9
				l6.1,0.5l2.2,0.2l2.2-12.2l3.9-21.7l8.7,1.6l53.8,9.7l177.2,31.9l57.5,10.3l19.9,3.6l9.7,1.8c0.4-0.3,0.8-0.6,1.2-0.9
				c2-1.6,4.2-2.9,6.5-4.1c1.4-0.7,2.7-1.4,4.1-1.9c2.1-0.9,4.1-1.6,6.1-2.2c8-2.5,14.6-3,14.6-3l62,14.8l7.7,1.8l75.6,18l20,4.8
				l-0.4-12.5l-0.1-2.3h0.4l43.4,0l7.7-7.7L925.5,720.4z"/>
			<g>
				<path class="st7" d="M723.8,736.2l9.5,85.1l2.2,19.8c-6,5.1-12,9.4-18,13c-51,30.9-98.1,10.6-98.1,10.6c-3.1,8-7.8,14.2-13.4,19
					c-2.8,2.4-5.8,4.4-9,6.1c-0.4,0.2-0.8,0.4-1.2,0.6c-2.6,1.4-5.3,2.5-8,3.5c-14.8,5.4-30.4,5.6-38.1,5.4c0,0,0,0,0,0
					c-0.4,0-0.9,0-1.2,0c-3.4-0.2-7.4-0.9-12-2.2c-12.8-3.5-30.5-10.5-54.6-17.6c-32.8-9.6-60.2-57.6-60.2-57.6s83.8-95.1,96-109.7
					c12.2-14.6,36.6-16.4,36.6-16.4l69.7,16.6l73.5,17.5L723.8,736.2z"/>
				<path class="st7" d="M605.7,809.2c0,0-8.5,16.1-33.2,17.4c-7.7-3.9-11.9-6.9-11.9-6.9S591.7,824.6,605.7,809.2z"/>
				<path class="st8" d="M590.8,750.7c0,0-13.4-4.8-18.9-2.1c-5.5,2.7-15.6,19.6-15.6,19.6S580.7,762.8,590.8,750.7z"/>
				<path class="st8" d="M582.4,846.2c-22.5-8.7-38.6,8.6-39.9,10.1c0,0-0.1,0.1-0.1,0.1c1-0.6,17.7-10.7,29.6-1.5
					c11,8.5,2.3,34.2-35.4,42.3c4.6,1.2,8.5,2,12,2.2c0.4,0,0.8,0,1.2,0c0,0,0,0,0,0c10.6-2.5,23.3-9.2,31.6-26.1
					c4-0.1,11.2,1.6,12.1,9.1c0.6,4.5-2.4,8.6-5.6,11.5c3.1-1.1,6.2-2.5,9.2-4.1l0,0c3.1-1.7,6.2-3.8,9-6.1
					C607.4,871,601.9,853.7,582.4,846.2z"/>
				<g>
					
						<rect x="276.4" y="581.2" transform="matrix(0.1772 -0.9842 0.9842 0.1772 -458.2899 998.0544)" class="st9" width="182.8" height="383.8"/>
					
						<rect x="287.5" y="592.3" transform="matrix(0.1772 -0.9842 0.9842 0.1772 -458.2379 998.0341)" class="st10" width="160.6" height="361.6"/>
					
						<rect x="297.5" y="602.3" transform="matrix(0.1772 -0.9842 0.9842 0.1772 -458.2379 998.0323)" class="st9" width="140.6" height="341.6"/>
					
						<ellipse transform="matrix(0.1772 -0.9842 0.9842 0.1772 -481.0246 1011.0272)" class="st10" cx="364.1" cy="793.2" rx="56.8" ry="41"/>
					
						<rect x="346.8" y="762.8" transform="matrix(0.1772 -0.9842 0.9842 0.1772 -534.4434 1041.5071)" class="st10" width="17.7" height="155.3"/>
					<ellipse class="st10" cx="264" cy="754.4" rx="25.5" ry="25.5"/>
					<ellipse class="st11" cx="466.6" cy="805.9" rx="21.1" ry="21.1"/>
					
						<rect x="367.4" y="607.7" transform="matrix(0.1772 -0.9842 0.9842 0.1772 -400.1459 964.9365)" class="st10" width="19.2" height="228.1"/>
					<path class="st10" d="M257.9,671.7c-5.5,29.6-33.8,49.2-63.5,43.9l9.6-53.6L257.9,671.7z"/>
					<path class="st10" d="M477.6,874.5c5.5-29.6,33.8-49.2,63.5-43.9l-9.6,53.6L477.6,874.5z"/>
					<g>
						
							<rect x="252.1" y="751.9" transform="matrix(0.1772 -0.9842 0.9842 0.1772 -570.4672 906.2798)" class="st11" width="9.4" height="84.8"/>
						
							<rect x="471.5" y="723.9" transform="matrix(0.1772 -0.9842 0.9842 0.1772 -362.4284 1099.1978)" class="st11" width="9.4" height="84.8"/>
					</g>
					<g>
						<g>
							<path class="st9" d="M219.3,685.8L219.3,685.8c-1.7-0.8-3.1-1.5-2.9-2.7c0.1-0.8,0.9-1,2-0.9c1.4,0.3,3.6,1.5,5.3,2.9
								l2.4-3.3c-1.3-1.2-3.1-2.2-5.1-2.8l0.7-3.6v0l-3.3-0.6v0l-0.7,3.6c-3.3-0.1-5.6,1.5-6.1,4.3c-0.2,1-0.1,1.8,0.2,2.4
								c1.4,3.8,8.1,4,7.7,6.5c-0.2,0.9-1.1,1.3-2.4,1c-1.8-0.3-4.3-1.9-5.8-3.8l-2.4,3.2c1.4,1.7,3.5,3,5.8,3.8l-0.1,0.6l-0.6,3.2
								l3.3,0.6l0.6-3.6l0.1-0.3c3.2,0.1,5.8-1.2,6.4-4.3C224.9,688.5,221.8,687,219.3,685.8z"/>
						</g>
					</g>
					<g>
						<g>
							<path class="st9" d="M526.6,852.8c-0.5-0.4-1-0.8-1.6-1.2c-0.2-0.1-0.4-0.3-0.6-0.4c-0.8-0.4-1.7-0.8-2.6-1.1l0.2-1l0.5-2.7
								l-3.3-0.6l-0.7,3.7c-3.3-0.1-5.6,1.5-6.1,4.2c-0.5,2.7,1,4.1,2.8,5.2c0.9,0.5,1.8,1,2.7,1.4c1.4,0.7,2.5,1.4,2.3,2.4
								c0,0.1-0.1,0.3-0.1,0.4c-0.2,0.3-0.4,0.5-0.8,0.6c-0.4,0.1-0.9,0.1-1.5,0c-1.8-0.3-4.3-1.9-5.8-3.8l-2.4,3.2
								c1.1,1.2,2.5,2.3,4.2,3.1c0.5,0.3,1.1,0.5,1.6,0.7l-0.3,1.6l-0.4,2.2l3.3,0.6l0.1-0.3l0.2-1l0.4-2.5c0.4,0,0.8,0,1.2,0
								c0.9-0.1,1.7-0.3,2.4-0.6c0.5-0.3,1-0.6,1.4-1c0,0,0,0,0,0c0-0.1,0.1-0.1,0.1-0.2c0.6-0.6,1-1.5,1.2-2.5
								c0.1-0.5,0.1-1,0.1-1.4c-0.1-0.5-0.2-0.9-0.4-1.3c-0.3-0.6-0.7-1.1-1.2-1.6c-1-0.9-2.2-1.5-3.3-2.1c-0.2-0.1-0.4-0.2-0.6-0.3
								c-1.5-0.7-2.6-1.4-2.5-2.5c0-0.1,0.1-0.3,0.1-0.4c0.2-0.3,0.5-0.5,1-0.5c0.3,0,0.6,0,0.9,0c1.1,0.2,2.6,0.9,3.9,1.8
								c0.5,0.3,0.9,0.7,1.4,1l1.8-2.6l0.2-0.3l0.3-0.4C526.8,853,526.7,852.9,526.6,852.8z"/>
						</g>
					</g>
					<g>
						<g>
							<path class="st9" d="M364.8,778.5c0.7-0.1,1.5-0.1,2.4,0.1c0.3,0.1,0.6,0.1,0.9,0.2c0.5,0.1,1,0.3,1.6,0.5
								c3.1,1.2,6.9,3.5,9.9,6l4.8-6.7l0.8-1c-3-2.8-7.3-5.3-12-6.7l1.4-7.8l0.1-0.7l-7.8-1.4l-0.4,2l-1.1,6.4l0,0.2
								c-7.7-0.1-13.2,3.5-14.3,10c-0.8,4.2,0.6,7.1,2.8,9.4c2,2,4.8,3.5,7.5,4.8c1.8,0.9,3.6,1.7,5.1,2.5c0.1,0.1,0.2,0.1,0.3,0.2
								c1.9,1.2,3.1,2.5,2.8,4.2c-0.2,0.9-0.6,1.6-1.3,2c-0.8,0.5-1.9,0.7-3.3,0.6c-0.4,0-0.7-0.1-1.1-0.1c-1.5-0.3-3.3-0.9-5-1.8
								c-3.2-1.7-6.4-4.2-8.7-7l-2.1,2.8l-3.5,4.7c1.5,1.7,3.3,3.4,5.3,4.7c1.6,1.2,3.4,2.1,5.2,2.9c1,0.5,2.1,0.9,3.1,1.2l0,0.1
								l-1.4,7.8l-0.2,1l7.8,1.4l0.1-0.6l0.3-1.9l0.8-4.7l0.3-1.7c0.7,0,1.4,0,2.1,0c3.4-0.1,6.4-1.1,8.6-2.8c1-0.7,1.8-1.6,2.5-2.7
								c0.8-1.3,1.4-2.8,1.8-4.5c0.5-2.6,0.2-4.7-0.7-6.6c-1.5-3.3-4.7-5.4-7.9-7.1c-1-0.6-2.1-1.1-3.1-1.6
								c-3.9-1.9-7.1-3.5-6.6-6.2C362.6,779.4,363.5,778.7,364.8,778.5z"/>
						</g>
					</g>
				</g>
				<g>
					
						<rect x="272.5" y="598.3" transform="matrix(8.770410e-02 -0.9961 0.9961 8.770410e-02 -455.2152 1083.3397)" class="st9" width="182.8" height="383.7"/>
					
						<rect x="283.5" y="609.5" transform="matrix(8.770410e-02 -0.9961 0.9961 8.770410e-02 -455.2972 1083.3398)" class="st10" width="160.6" height="361.6"/>
					
						<rect x="293.5" y="619.4" transform="matrix(8.770410e-02 -0.9961 0.9961 8.770410e-02 -455.2968 1083.3397)" class="st9" width="140.6" height="341.6"/>
					
						<ellipse transform="matrix(8.770410e-02 -0.9961 0.9961 8.770410e-02 -477.2244 1100.1383)" class="st10" cx="362" cy="810.6" rx="56.8" ry="41"/>
					
						<rect x="348.9" y="780.7" transform="matrix(8.770410e-02 -0.9961 0.9961 8.770410e-02 -528.5633 1139.4502)" class="st10" width="17.7" height="155.2"/>
					<path class="st10" d="M284.2,783.2c-1.2,14-13.6,24.4-27.6,23.2c-14-1.2-24.4-13.6-23.2-27.6c1.2-14,13.6-24.4,27.6-23.2
						C275,756.8,285.4,769.2,284.2,783.2z"/>
					<ellipse class="st11" cx="465.3" cy="814" rx="21.1" ry="21.1"/>
					
						<rect x="358.8" y="624.2" transform="matrix(8.770410e-02 -0.9961 0.9961 8.770410e-02 -399.3464 1040.4675)" class="st10" width="19.2" height="228.1"/>
					<path class="st10" d="M245.3,699.2c-2.8,30-29.3,52.1-59.3,49.4l4.8-54.2L245.3,699.2z"/>
					<path class="st10" d="M482.4,881.3c2.8-30,29.3-52.1,59.3-49.4l-4.8,54.2L482.4,881.3z"/>
					<g>
						
							<rect x="250.5" y="778.9" transform="matrix(8.770410e-02 -0.9961 0.9961 8.770410e-02 -585.3779 1003.4965)" class="st11" width="9.4" height="84.8"/>
						
							<rect x="466.4" y="731.3" transform="matrix(8.770410e-02 -0.9961 0.9961 8.770410e-02 -340.903 1175.1721)" class="st11" width="9.4" height="84.8"/>
					</g>
					<g>
						<g>
							<path class="st9" d="M207,713.2c1.4,0.1,3.7,1.2,5.5,2.4l1.5-2.6l0.5-0.9c-1.4-1.1-3.3-2-5.3-2.4l0.3-3.7l-3.2-0.3l-0.1,0
								l-0.1,1.6v0l-0.2,2.1c-0.1,0-0.1,0-0.2,0c-2.6,0.2-4.5,1.4-5.2,3.4c-0.2,0.4-0.3,0.9-0.3,1.4c-0.1,0.8,0,1.5,0.3,2.1
								c0.6,1.5,2,2.4,3.4,3c2.4,1,5.1,1.5,4.9,3.1c-0.1,0.9-1,1.4-2.3,1.2c-0.9-0.1-2.1-0.5-3.1-1c-1.1-0.6-2.2-1.3-3-2.2l-2.1,3.4
								v0h0c1.2,1.1,2.7,2.1,4.4,2.7c0.5,0.2,1.1,0.4,1.7,0.5l-0.3,3.9l3.3,0.3l0.3-3.8c2.7-0.1,4.9-1.2,5.7-3.4
								c0.2-0.4,0.3-0.9,0.3-1.4c0.4-4.1-3.4-5.2-6.1-6.2h0c-1.4-0.6-2.5-1.1-2.5-2.2C205.1,713.4,205.9,713.1,207,713.2z"/>
						</g>
					</g>
					<g>
						<g>
							<path class="st9" d="M522,856.6c1.1,0.1,2.6,0.7,4,1.5c0.5,0.3,1,0.6,1.5,0.9l1.8-3.1l0.3-0.4c-0.8-0.6-1.7-1.2-2.8-1.6
								c-0.1,0-0.1-0.1-0.2-0.1c-0.1,0-0.1-0.1-0.2-0.1c-0.7-0.3-1.4-0.5-2.2-0.6l0.1-1.5l0-0.3l0.2-1.8l-2.6-0.2l-0.8-0.1l-0.3,3.7
								c-0.9,0.1-1.8,0.3-2.5,0.6c-0.3,0.1-0.7,0.3-1,0.5c-1.3,0.8-2.1,2.1-2.2,3.7c-0.1,0.5,0,1,0.1,1.5c0.3,1.7,1.6,2.7,3.1,3.4
								c0.6,0.3,1.2,0.5,1.8,0.8c2,0.7,3.8,1.3,3.7,2.6v0c0,0.1,0,0.1,0,0.2c0,0,0,0,0,0c-0.1,0.6-0.6,0.9-1.4,1c-0.3,0-0.5,0-0.9,0
								c-1.8-0.2-4.5-1.5-6.2-3.2l-1.6,2.6l-0.5,0.8c0.5,0.5,1.2,1,1.8,1.4c0.6,0.4,1.3,0.8,2,1c0.4,0.2,0.8,0.3,1.2,0.4
								c0.4,0.1,0.7,0.2,1.1,0.3l-0.1,1.2v0.1l-0.2,2.5l1.3,0.1l2,0.2v0l0.2-1.7l0.1-0.6l0.1-1.5c0.4,0,0.7-0.1,1.1-0.1
								c2.7-0.4,4.7-2,4.9-4.7c0.1-1.3-0.2-2.4-0.8-3.2c0,0,0,0,0,0c-0.6-0.8-1.4-1.4-2.3-1.8c-0.2-0.1-0.5-0.2-0.7-0.3
								c-0.7-0.3-1.3-0.5-1.9-0.8c-1.6-0.6-2.9-1.2-2.8-2.3c0-0.2,0.1-0.4,0.2-0.6C520.6,856.7,521.2,856.6,522,856.6z"/>
						</g>
					</g>
					<g>
						<g>
							<path class="st9" d="M363.7,795.7c0.8,0.1,1.7,0.3,2.6,0.5c0.1,0,0.2,0.1,0.3,0.1c3.1,1,6.9,2.9,10.1,5l3.4-5.8l1.4-2.4
								c-2.5-2-5.8-3.6-9.4-4.7c-1-0.3-2.1-0.6-3.2-0.8l0.1-0.7l0.7-7.5l0-0.4l-1.6-0.1l-3.3-0.3l-2.9-0.3l-0.8,8.7
								c-2.8,0.2-5.3,0.9-7.3,2c-3.2,1.7-5.3,4.5-5.9,8.1c-0.1,0.4-0.1,0.8-0.1,1.1c-0.3,3.5,0.7,6,2.4,7.9c1.3,1.4,2.9,2.5,4.7,3.4
								c1,0.5,2.1,1,3.1,1.4c0.5,0.2,1,0.4,1.5,0.5c2.3,0.8,4.4,1.6,6,2.5c1.7,1,2.7,2.1,2.6,3.7c-0.1,0.8-0.3,1.4-0.8,1.8
								c-0.7,0.6-1.7,1-2.9,1.1c-0.5,0.1-1.1,0-1.7,0c-1.8-0.1-3.9-0.8-6-1.7c-3-1.4-6.1-3.5-8.4-5.8l-1.8,2.9l-3.2,5.2
								c3.7,3.6,8.8,6.4,14.3,7.6l-0.3,3.1l-0.3,2.8l-0.3,3.1l7.9,0.7l0.3-2.8l0.2-2.4l0.3-3.8c0.2,0,0.3,0,0.5,0
								c4.6-0.3,8.5-1.9,11-4.8c1.4-1.7,2.4-3.9,2.6-6.5c0.3-3-0.4-5.3-1.7-7.2c-0.4-0.5-0.8-1-1.2-1.5c-3-3.1-7.8-4.6-11.6-6.1
								c-3.4-1.3-5.9-2.7-5.7-5C359.3,796.3,361.1,795.5,363.7,795.7z"/>
						</g>
					</g>
				</g>
				<g>
					
						<rect x="270.3" y="613.6" transform="matrix(7.599781e-03 -1 1 7.599781e-03 -446.5495 1161.0034)" class="st9" width="182.8" height="383.8"/>
					
						<rect x="281.4" y="624.7" transform="matrix(7.599781e-03 -1 1 7.599781e-03 -446.4982 1161.0238)" class="st10" width="160.6" height="361.6"/>
					
						<rect x="291.4" y="634.7" transform="matrix(7.599781e-03 -1 1 7.599781e-03 -446.4987 1161.0248)" class="st9" width="140.6" height="341.6"/>
					
						<ellipse transform="matrix(7.599781e-03 -1 1 7.599781e-03 -467.0971 1181.1589)" class="st10" cx="361.5" cy="825.9" rx="56.8" ry="41"/>
					
						<rect x="352.3" y="796.2" transform="matrix(7.599781e-03 -1 1 7.599781e-03 -515.4156 1228.364)" class="st10" width="17.7" height="155.3"/>
					<ellipse class="st10" cx="256.2" cy="804.7" rx="25.5" ry="25.5"/>
					<path class="st11" d="M485.8,821.2c-0.1,11.6-9.6,21-21.2,20.9c-11.6-0.1-21-9.6-20.9-21.2c0.1-11.6,9.6-21,21.2-20.9
						C476.5,800,485.8,809.5,485.8,821.2z"/>
					
						<rect x="352.5" y="639.3" transform="matrix(7.599781e-03 -1 1 7.599781e-03 -394.0025 1109.6885)" class="st10" width="19.2" height="228.1"/>
					<path class="st10" d="M236.2,724.2c-0.4,30.1-25,54.3-55.1,54l0.4-54.4L236.2,724.2z"/>
					<path class="st10" d="M487.1,886.7c0.4-30.1,25-54.3,55.1-54l-0.4,54.4L487.1,886.7z"/>
					<g>
						
							<rect x="251.2" y="802.8" transform="matrix(7.599781e-03 -1 1 7.599781e-03 -591.2687 1094.6958)" class="st11" width="9.4" height="84.8"/>
						
							<rect x="462.6" y="738" transform="matrix(7.599781e-03 -1 1 7.599781e-03 -316.6193 1241.8597)" class="st11" width="9.4" height="84.8"/>
					</g>
					<g>
						<g>
							<path class="st9" d="M199.4,744.2c-1.2-0.4-2.1-0.9-2.1-1.8c0-0.8,0.8-1.2,1.8-1.2c0.2,0,0.5,0,0.8,0.1
								c1.4,0.2,3.4,1,4.9,1.9l1.8-3.6c-1.5-1-3.4-1.7-5.5-1.9l0-2.9v-0.8l-3.4,0l0,3.7c-0.3,0-0.5,0.1-0.7,0.1
								c-2.8,0.7-4.5,2.5-4.5,5.1c0,2.7,1.7,3.9,3.7,4.7c0.8,0.3,1.7,0.5,2.5,0.8l0,0c1.7,0.5,3,0.9,3,2.1c0,0.9-0.9,1.4-2.2,1.4
								c-0.4,0-0.9-0.1-1.4-0.2c-0.7-0.1-1.5-0.4-2.2-0.8c-1-0.4-2-1-2.7-1.7l-1.8,3.6c1.2,1,2.6,1.8,4.2,2.3
								c0.6,0.2,1.3,0.3,1.9,0.5c0.1,0,0.1,0,0.2,0l0,3.9l3.4,0l0-3.8c3.2-0.4,5.6-2.2,5.6-5.3c0-1.5-0.5-2.5-1.2-3.3
								C203.8,745.3,201.2,744.8,199.4,744.2z"/>
						</g>
					</g>
					<g>
						<g>
							<path class="st9" d="M528.9,863.3c-0.3-0.2-0.7-0.3-1-0.4c0,0,0,0,0,0c-0.9-0.3-1.7-0.5-2.5-0.8c-0.1,0-0.1,0-0.2-0.1
								c-1.3-0.4-2.3-0.9-2.3-1.9c0-0.1,0-0.2,0-0.2c0.1-0.4,0.4-0.7,0.8-0.8c0.3-0.1,0.6-0.1,1-0.1c0.3,0,0.8,0.1,1.2,0.2
								c1,0.2,2.2,0.6,3.3,1.2c0.4,0.2,0.8,0.4,1.2,0.6l1.8-3.6c-0.8-0.5-1.6-0.9-2.6-1.3c-0.1,0-0.2-0.1-0.2-0.1
								c-0.9-0.3-1.8-0.5-2.7-0.6v-1.5l0-0.4v-1.8H525l-0.7,0h-1.1l0,3.7c0,0,0,0,0,0c-1.4,0.2-2.6,0.7-3.5,1.5
								c-1.1,0.9-1.7,2.2-1.8,3.7v0.1c0,0.8,0.1,1.4,0.4,1.9c0.2,0.5,0.6,1,1,1.4c1.2,1.1,2.9,1.6,4.5,2c0,0,0.1,0,0.1,0
								c0.2,0.1,0.5,0.1,0.7,0.2c1.5,0.4,2.6,0.9,2.6,2c0,0.9-0.9,1.4-2.2,1.4c-0.3,0-0.6,0-1-0.1c-1.3-0.2-2.8-0.8-4.1-1.6
								c-0.5-0.3-0.9-0.6-1.3-1l-1.5,3l-0.3,0.5c0.4,0.3,0.8,0.6,1.3,0.9c0.3,0.2,0.5,0.3,0.8,0.4c0,0,0,0,0,0
								c0.1,0.1,0.3,0.1,0.4,0.2c1,0.5,2.1,0.9,3.3,1.1c0.2,0,0.4,0.1,0.6,0.1l0,1.7l0,2.2l3.4,0v-1.9l0-1.9
								c0.6-0.1,1.1-0.2,1.6-0.3c2.3-0.8,3.9-2.4,4-4.9c0,0,0,0,0,0s0,0,0,0v-0.1C532,865.3,530.6,864.1,528.9,863.3z"/>
						</g>
					</g>
					<g>
						<g>
							<path class="st9" d="M367.2,819.3c-0.9-0.3-1.8-0.5-2.6-0.8c-3.8-1.1-6.9-2.2-6.9-4.8c0-1.2,0.7-1.9,1.7-2.4
								c0.7-0.3,1.6-0.4,2.6-0.4c1.6,0,3.6,0.4,5.8,1.2c2.5,0.8,5.2,2,7.6,3.4l2.3-4.8l1.8-3.8c-0.2-0.1-0.3-0.2-0.5-0.3
								c-3-1.9-6.8-3.3-10.9-4c-0.5-0.1-1-0.2-1.5-0.2l0.1-6v-0.1l0-2.6l-5.4,0l-2.5,0l-0.1,7.5v1.2c-3.5,0.5-6.4,1.8-8.6,3.7
								c-0.2,0.1-0.3,0.3-0.5,0.4c-2.2,2.1-3.4,4.9-3.4,8.2c0,0.3,0,0.7,0,1c0.7,10.8,14.1,10.6,19.5,13.6c1.4,0.7,2.2,1.7,2.2,3.1
								c0,0.5-0.1,0.9-0.3,1.2c-0.4,1-1.5,1.7-3,1.9c-0.6,0.1-1.2,0.2-2,0.2c-1.7,0-3.8-0.4-5.9-1.2c-2.8-1-5.7-2.5-8.1-4.3
								c-0.4-0.3-0.7-0.6-1.1-0.9l-0.3,0.6l-4,7.8c1.6,1.3,3.3,2.5,5.3,3.4h0c2.9,1.5,6.2,2.5,9.6,3l0,5.3v0.1l0,0.3l0,3.1v0.3
								l1.8,0l6.1,0.1l0-2.1v-1.1l0-1.4l0-4.5h0.1c0,0,0,0,0,0c6-0.8,10.9-3.8,12.5-8.8c0.4-1.1,0.6-2.4,0.6-3.7
								c0-3.3-1-5.6-2.6-7.4C374.4,821.7,370.7,820.4,367.2,819.3z"/>
						</g>
					</g>
				</g>
				<g>
					<path class="st8" d="M451.2,832.7c0,0,10,30.1,62.9,4.8c0,0,35-10.8,46.5-9.8c0,0,68.2,57.7,141.3,1.7l-8.7-16.7l-64.1,5
						L580.7,806l-79.1,14L451.2,832.7z"/>
					<path class="st7" d="M723.8,736.2l9.5,85.1c-72.4,41.4-135.4,18.3-160.8,5.3c-7.7-3.9-11.9-6.9-11.9-6.9
						c-14.3,0.2-46.8,10.8-46.8,10.8c-50.3,24.6-76.6,8.6-65.6-19.2c11-27.8,76-37,118.8-52.6c31.2-11.3,49.4-34.5,57-46.2
						L723.8,736.2z"/>
					<path class="st8" d="M723.8,736.2l9.5,85.1l2.2,19.8c-6,5.1-12,9.4-18,13l-20-124.2L723.8,736.2z"/>
					<polygon class="st12" points="925.5,708 925.5,897.2 769.7,894.9 760.8,884 724.6,879.1 723.6,850.2 722.8,826.9 719.6,735.2 
						719.5,732.8 719.1,720.4 762.9,720.5 770.7,712.8 					"/>
					<path class="st13" d="M769.7,894.9l-8.9-10.9c0,0,9.5-83.6,0.4-148.8C761.2,735.2,785.4,778.5,769.7,894.9z"/>
				</g>
			</g>
		</g>
		<g>
			<path class="st6" d="M777.2,525.2l1,12.3l-13.3,1v29.2H418.6l-4.6,0.8l-0.1-0.8H394c-0.1,0-0.2,0-0.3,0.1
				c-2.5,0.5-4.7,0.8-6.8,0.9c-0.4,0-0.8,0-1.2,0c0,0,0,0,0,0c-1.1,0-2.4,0.1-3.8,0.1c-8.4,0-21.6-0.8-34.3-5.4
				c-1.2-0.5-2.5-1-3.7-1.5c-0.1-0.1-0.3-0.1-0.4-0.2c-1.7-0.7-3.4-1.5-5-2.4c-2.4-1.3-4.7-2.8-6.8-4.4c-0.7-0.5-1.4-1.1-2.1-1.7
				c-5.6-4.8-10.3-11-13.4-19c0,0-47.1,20.3-98.1-10.6c-2-1.2-4.1-2.6-6.1-4l-1,29l-36.2,4.9l-8.9,10.9L9.9,566.7V377.5l154.9,4.8
				l7.7,7.7l43.4-0.1h0.4l-0.1,2.3l-0.4,12.5l20-4.8l75.6-18l7.7-1.8l62-14.7c0,0,11.4,0.8,22.4,6c0.7,0.3,1.4,0.6,2.1,1
				c0.2,0.1,0.4,0.2,0.6,0.3c4.1,2.2,8,5,11.2,8.7h0c0.1,0.1,0.1,0.1,0.2,0.2c0.1,0.1,0.1,0.1,0.1,0.2c0.2,0.3,0.4,0.5,0.7,0.8
				l0.4,0l9-1.5l5.8-1h0l0,0l45-7.4l51.3-8.5l31.8-5.3l36.7-6.1l155.4-25.7l9-1.5l27.9,168.2l2,12.1l-15.7,2.6l-1,0.2L777.2,525.2z"
				/>
			<g>
				<path class="st14" d="M211.6,393.3l-9.5,85.1l-2.2,19.8c6,5.1,12,9.4,18,13c51,30.9,98.1,10.6,98.1,10.6c3.1,8,7.8,14.2,13.4,19
					c2.8,2.4,5.8,4.4,9,6.1c0.4,0.2,0.8,0.4,1.2,0.6c2.6,1.4,5.3,2.5,8,3.5c14.8,5.4,30.4,5.6,38.1,5.4c0,0,0,0,0,0
					c0.4,0,0.9,0,1.2,0c3.4-0.2,7.4-0.9,12-2.2c12.8-3.5,30.5-10.5,54.6-17.6c32.8-9.6,60.2-57.6,60.2-57.6s-83.8-95.1-96-109.7
					c-12.2-14.6-36.6-16.4-36.6-16.4l-69.7,16.6L237.9,387L211.6,393.3z"/>
				<path class="st7" d="M329.8,466.3c0,0,8.5,16.1,33.2,17.4c7.7-3.9,11.9-6.9,11.9-6.9S343.7,481.7,329.8,466.3z"/>
				<path class="st8" d="M344.6,407.8c0,0,13.4-4.8,18.9-2.1c5.5,2.7,15.6,19.6,15.6,19.6S354.8,419.9,344.6,407.8z"/>
				<path class="st8" d="M353,503.3c22.5-8.7,38.6,8.6,39.9,10.1c0,0,0.1,0.1,0.1,0.1c-1-0.6-17.7-10.7-29.6-1.5
					c-11,8.5-2.3,34.2,35.4,42.3c-4.6,1.2-8.5,2-12,2.2c-0.4,0-0.8,0-1.2,0c0,0,0,0,0,0c-10.6-2.5-23.3-9.2-31.6-26.1
					c-4-0.1-11.2,1.6-12.1,9.1c-0.6,4.5,2.4,8.6,5.6,11.5c-3.1-1.1-6.2-2.5-9.2-4.1l0,0c-3.1-1.7-6.2-3.8-9-6.1
					C328,528.1,333.5,510.8,353,503.3z"/>
				<g>
					
						<rect x="396.5" y="343.3" transform="matrix(0.9866 -0.1633 0.1633 0.9866 -63.0859 101.9172)" class="st15" width="383.8" height="182.8"/>
					
						<rect x="407.6" y="354.4" transform="matrix(0.9866 -0.1633 0.1633 0.9866 -63.0826 101.9189)" class="st16" width="361.6" height="160.6"/>
					<path class="st17" d="M629,428c4.7,28.4,2.6,56.4-5.1,82.2l-200.7,33.2L396.9,385l200.7-33.2C613.3,373.7,624.3,399.5,629,428z
						"/>
					<path class="st16" d="M570.9,437.6c5,30.2-1.3,59.7-15.9,84l-131.8,21.8L396.9,385l131.8-21.8
						C550.4,381.5,565.9,407.4,570.9,437.6z"/>
					<path class="st17" d="M519,446.2c6.5,39-20,75.9-59,82.4c-14.1,2.3-27.9,0.4-40.1-4.9l-19.7-118.9c9.8-8.9,22.3-15.2,36.4-17.6
						C475.6,380.7,512.5,407.1,519,446.2z"/>
					<path class="st18" d="M593.3,477.6c0,0,3.4-7.8,6.1-16s-1.3-20.1-1.3-20.1l0.8-10.8c0.3-20.2-16.5-40.6-38.1-40.1
						c-21.6,0.5-33.7,14.4-38.1,23.8c-4.3,9.5-2.3,22.1-2.3,22.1s-10.1,1.2-2.1,18.2c3.3,7.1,8.3,10,13,11l0.9,5.5l-7.7,5.4
						c0,0-5.9-1.1-11.9,3c-6,4.1-7,11-7,11c-10.7,6.4-17.9,18.9-20.3,23.5l-65.4,10.8l3.1,18.6l64.3-10.6l30.3-5l103.8-17.2
						C616.2,484.6,593.3,477.6,593.3,477.6z"/>
					<path class="st16" d="M470,431.9l-1.1-6.5l-27,4.5l-10.4,1.7l1.1,6.5l10.4-1.7c4.4-0.7,8.6,1.5,10.7,5.3l-19.9,3.3l1.1,6.5
						l19.9-3.3c-0.7,4.2-4,7.7-8.4,8.4l-10.4,1.7l1.1,6.5l2.1-0.3c3.2-0.5,6.4-0.2,9.4,1c5.4,2.1,13.4,7,19.6,18.3l6.8-1.1
						c-6.2-12.5-14.5-18.8-21.1-22c4.5-2.9,7.4-8,7.6-13.5l10.8-1.8l-1.1-6.5l-10.8,1.8c-0.9-2.5-2.4-4.6-4.3-6.3L470,431.9z"/>
					<g>
						<g>
							
								<rect x="663.8" y="444.2" transform="matrix(0.9866 -0.1633 0.1633 0.9866 -64.5084 122.2115)" class="st17" width="94.6" height="18.6"/>
							
								<rect x="667.5" y="470.6" transform="matrix(0.9866 -0.1633 0.1633 0.9866 -68.1101 123.116)" class="st17" width="94.6" height="10.4"/>
							
								<rect x="625.2" y="351.6" transform="matrix(0.9866 -0.1633 0.1633 0.9866 -49.0849 116.4392)" class="st17" width="117.1" height="10.4"/>
						</g>
					</g>
					<path class="st18" d="M714.8,383.6l-1-5.8l-24.2,4l-9.3,1.5l1,5.8l9.3-1.5c4-0.7,7.8,1.4,9.6,4.7l-17.8,3l1,5.8l17.8-3
						c-0.6,3.8-3.6,6.9-7.5,7.5l-9.3,1.5l1,5.8l1.9-0.3c2.8-0.5,5.8-0.2,8.4,0.9c4.9,1.9,12.1,6.3,17.6,16.4l6.1-1
						c-5.6-11.2-13-16.9-18.9-19.7c4-2.6,6.6-7.1,6.8-12.1l9.7-1.6l-1-5.8l-9.7,1.6c-0.8-2.2-2.2-4.1-3.8-5.7L714.8,383.6z"/>
				</g>
				<g>
					
						<rect x="387.9" y="357.7" transform="matrix(0.9969 -7.850111e-02 7.850111e-02 0.9969 -33.4672 46.8973)" class="st15" width="383.8" height="182.8"/>
					
						<rect x="398.9" y="368.8" transform="matrix(0.9969 -7.850111e-02 7.850111e-02 0.9969 -33.4651 46.8946)" class="st16" width="361.6" height="160.6"/>
					<path class="st17" d="M620.8,445.9c2.3,28.7-2.2,56.4-12.1,81.5l-202.8,16l-12.6-160.1l202.8-16
						C609.7,390.5,618.5,417.2,620.8,445.9z"/>
					<path class="st16" d="M562,450.5c2.4,30.5-6.4,59.3-23,82.3l-133.2,10.5l-12.6-160.1l133.2-10.5
						C546.4,392.9,559.6,420,562,450.5z"/>
					<path class="st17" d="M509.6,454.6c3.1,39.5-26.4,74-65.8,77.1c-14.2,1.1-27.9-2-39.6-8.3l-9.5-120.1
						c10.6-8.1,23.5-13.3,37.8-14.4C472,385.7,506.5,415.2,509.6,454.6z"/>
					<path class="st18" d="M581,492.3c0,0,4-7.5,7.5-15.4c3.5-7.9,0.5-20.2,0.5-20.2l1.7-10.6c2-20.1-13-41.9-34.5-43.2
						s-34.8,11.4-40,20.5c-5.1,9.1-4.2,21.8-4.2,21.8s-10.2,0.4-3.7,17.9c2.7,7.3,7.4,10.6,12,12l0.4,5.6l-8.1,4.7
						c0,0-5.7-1.6-12.1,2c-6.4,3.6-7.9,10.3-7.9,10.3c-11.2,5.4-19.5,17.3-22.2,21.7l-66.1,5.2l1.5,18.8l65-5.1l30.6-2.4l104.9-8.3
						C603.2,501.3,581,492.3,581,492.3z"/>
					<path class="st16" d="M462,436.3l-0.5-6.5l-27.3,2.1l-10.5,0.8l0.5,6.5l10.5-0.8c4.5-0.4,8.5,2.2,10.2,6.1l-20.1,1.6l0.5,6.5
						l20.1-1.6c-1,4.1-4.6,7.3-9.1,7.7l-10.5,0.8l0.5,6.5l2.1-0.2c3.2-0.3,6.4,0.3,9.3,1.8c5.2,2.6,12.8,8.1,18,19.9l6.9-0.5
						c-5.1-13-12.8-20-19.1-23.7c4.7-2.6,8.1-7.3,8.7-12.8l10.9-0.9l-0.5-6.5l-10.9,0.9c-0.7-2.5-2-4.8-3.7-6.7L462,436.3z"/>
					<g>
						<g>
							
								<rect x="653.1" y="469" transform="matrix(0.9969 -7.850111e-02 7.850111e-02 0.9969 -35.3869 56.457)" class="st17" width="94.6" height="18.6"/>
							
								<rect x="654.8" y="495.7" transform="matrix(0.9969 -7.850111e-02 7.850111e-02 0.9969 -37.155 56.6664)" class="st17" width="94.6" height="10.4"/>
							
								<rect x="622.8" y="374.4" transform="matrix(0.9969 -7.850111e-02 7.850111e-02 0.9969 -27.6988 54.6574)" class="st17" width="117.1" height="10.4"/>
						</g>
					</g>
					<path class="st18" d="M710,409l-0.5-5.9l-24.5,1.9l-9.4,0.7l0.5,5.9l9.4-0.7c4-0.3,7.6,2,9.1,5.5l-18,1.4l0.5,5.9l18-1.4
						c-0.9,3.7-4.1,6.6-8.1,6.9l-9.4,0.7l0.5,5.9l1.9-0.1c2.9-0.2,5.8,0.3,8.3,1.6c4.7,2.3,11.5,7.3,16.1,17.9l6.2-0.5
						c-4.6-11.6-11.5-17.9-17.2-21.3c4.2-2.3,7.2-6.5,7.8-11.4l9.8-0.8l-0.5-5.9l-9.8,0.8c-0.6-2.3-1.8-4.3-3.3-6L710,409z"/>
				</g>
				<g>
					<rect x="381.2" y="372.6" class="st15" width="383.8" height="182.8"/>
					<rect x="392.3" y="383.7" class="st16" width="361.6" height="160.6"/>
					<path class="st17" d="M614.2,464c0,28.8-6.6,56-18.5,80.3H392.3V383.7h203.5C607.6,408,614.2,435.2,614.2,464z"/>
					<path class="st16" d="M555.3,464c0,30.6-11.1,58.6-29.4,80.3H392.3V383.7h133.6C544.2,405.4,555.3,433.4,555.3,464z"/>
					<path class="st17" d="M502.7,464c0,39.6-32.1,71.7-71.7,71.7c-14.3,0-27.6-4.2-38.8-11.4V403.8c11.2-7.2,24.5-11.4,38.8-11.4
						C470.6,392.4,502.7,424.4,502.7,464z"/>
					<path class="st18" d="M570.9,507.2c0,0,4.6-7.1,8.7-14.8c4.1-7.6,2-20.1,2-20.1l2.5-10.5c3.6-19.9-9.7-42.8-31.1-45.8
						s-35.6,8.7-41.4,17.3s-5.9,21.4-5.9,21.4s-10.2-0.4-5.1,17.6c2.1,7.5,6.6,11.2,11,12.9v5.6l-8.4,4.1c0,0-5.6-2-12.2,1
						c-6.6,3.1-8.7,9.7-8.7,9.7c-11.6,4.5-20.8,15.8-23.8,19.9h-66.3v18.8h65.2h30.7h105.2C592.3,517.8,570.9,507.2,570.9,507.2z"/>
					<path class="st16" d="M456.7,442v-6.5h-27.4h-10.5v6.5h10.5c4.5,0,8.3,2.9,9.7,6.9h-20.2v6.5H439c-1.4,4-5.2,6.9-9.7,6.9h-10.5
						v6.5h2.1c3.2,0,6.4,0.8,9.1,2.5c5,3,12.1,9.1,16.3,21.3h6.9c-4.1-13.3-11.2-20.9-17.2-25.2c4.9-2.2,8.6-6.6,9.7-12h10.9v-6.5
						h-10.9c-0.5-2.6-1.6-4.9-3.2-6.9H456.7L456.7,442z"/>
					<g>
						<g>
							<rect x="643.7" y="493.3" class="st17" width="94.6" height="18.6"/>
							<rect x="643.7" y="520.1" class="st17" width="94.6" height="10.4"/>
							<rect x="621.3" y="397.5" class="st17" width="117.1" height="10.4"/>
						</g>
					</g>
					<path class="st18" d="M706.1,434.3v-5.9h-24.5h-9.4v5.9h9.4c4,0,7.4,2.6,8.7,6.2h-18.1v5.9h18.1c-1.2,3.6-4.6,6.2-8.7,6.2h-9.4
						v5.9h1.9c2.9,0,5.7,0.7,8.2,2.2c4.5,2.7,10.9,8.2,14.7,19.1h6.2c-3.7-11.9-10.1-18.8-15.4-22.6c4.4-1.9,7.7-6,8.7-10.8h9.8
						v-5.9h-9.8c-0.5-2.3-1.5-4.4-2.8-6.2H706.1z"/>
				</g>
				<g>
					<path class="st8" d="M484.3,489.8c0,0-10,30.1-62.9,4.8c0,0-35-10.8-46.5-9.8c0,0-68.2,57.7-141.3,1.7l8.7-16.7l64.1,5
						l48.3-11.8l79.1,14L484.3,489.8z"/>
					<path class="st14" d="M211.6,393.3l-9.5,85.1c72.4,41.4,135.4,18.3,160.8,5.3c7.7-3.9,11.9-6.9,11.9-6.9
						c14.3,0.2,46.8,10.8,46.8,10.8c50.3,24.6,76.6,8.6,65.6-19.2c-11-27.8-76-37-118.8-52.6c-31.2-11.3-49.4-34.5-57-46.2
						L211.6,393.3z"/>
					<path class="st8" d="M211.6,393.3l-9.5,85.1l-2.2,19.8c6,5.1,12,9.4,18,13l20-124.2L211.6,393.3z"/>
					<polygon class="st19" points="216.3,377.5 215.9,389.9 215.8,392.3 212.6,483.9 211.8,507.3 210.8,536.2 174.6,541.1 
						165.7,552 9.9,554.3 9.9,365.1 164.8,369.9 172.5,377.6 					"/>
					<path class="st19" d="M165.7,552l8.9-10.9c0,0-9.5-83.6-0.4-148.8C174.2,392.3,150.1,435.6,165.7,552z"/>
				</g>
			</g>
		</g>
	</g>
</g>
<g id="DESIGNED_BY_FREEPIK" class="st0">
	<g class="st20">
		<g id="XMLID_319_">
			<g id="XMLID_338_">
				<path id="XMLID_346_" class="st21" d="M547.8,899c-0.4,0.4-0.8,0.9-1.1,1.5l-0.5-0.2c-0.1-0.3-0.3-0.5-0.7-0.5
					c-0.3,0-0.6,0.3-0.5,0.7s0.3,0.6,0.7,0.5c0.1,0,0.1,0,0.2-0.1l0.5,0.2c-0.3,0.6-0.4,1.1-0.5,1.7l0.7,0.1
					c0.2-1.3,0.8-2.5,1.8-3.5L547.8,899z"/>
				<path id="XMLID_345_" class="st21" d="M553.3,896.7c-0.2,0-0.3,0-0.5,0l-0.1-0.6c0.2-0.1,0.3-0.4,0.3-0.6c0-0.4-0.4-0.7-0.8-0.6
					s-0.7,0.4-0.6,0.8c0,0.3,0.2,0.5,0.4,0.6l0.1,0.6c-0.7,0.1-1.4,0.3-2.1,0.6l0.3,0.7c0.9-0.4,1.9-0.7,3-0.7c0.5,0,1,0.1,1.5,0.2
					l0.2-0.7C554.4,896.7,553.9,896.7,553.3,896.7z"/>
				<path id="XMLID_344_" class="st21" d="M559.9,899.2c0.3,0,0.6-0.3,0.5-0.7c0-0.3-0.3-0.6-0.7-0.5c-0.3,0-0.5,0.3-0.5,0.6
					l-0.4,0.4c-0.4-0.4-0.9-0.8-1.4-1.1l-0.4,0.6c1.1,0.7,2,1.7,2.6,2.9l0.7-0.3c-0.3-0.6-0.6-1.1-0.9-1.5l0.4-0.4
					C559.8,899.2,559.9,899.2,559.9,899.2z"/>
				<path id="XMLID_343_" class="st21" d="M552.8,906.9c-0.4,0-0.8,0-1.2,0c-0.9,0-1.7-0.1-2.5-0.2c-0.4-0.1-0.8-0.2-1.3-0.3
					c1,1.9,3.1,3.1,5.4,3.1c2.9,0,5.3-1.9,6-4.5c-0.7,0.4-1.5,0.8-2.5,1.1C555.6,906.5,554.2,906.8,552.8,906.9z"/>
				<path id="XMLID_339_" class="st21" d="M553.3,898.2c-3.4,0-6.1,2.7-6.1,5.9c0,0.4,0,0.8,0.1,1.3c0.7,0.5,2.7,0.9,5.3,0.7
					c2.9-0.2,5.3-1,6.7-2.2c0-0.2,0-0.4,0-0.6C559,900.4,556.4,898.2,553.3,898.2z M551.2,904.7c-1,0-1.8-0.8-1.8-1.8
					c0-1,0.8-1.8,1.8-1.8c1,0,1.8,0.8,1.8,1.8C553,903.9,552.2,904.7,551.2,904.7z M555.9,903.8c-0.8,0-1.4-0.6-1.4-1.4
					s0.6-1.4,1.4-1.4s1.4,0.6,1.4,1.4C557.3,903.2,556.6,903.8,555.9,903.8z"/>
			</g>
			<path id="XMLID_336_" class="st21" d="M569.3,900c-0.3-0.1-0.8-0.3-1.4-0.2c-0.6,0.1-0.8,0.3-0.8,1v0.9h2.2v1.7h-2.2v5.5h-1.9
				v-5.5h-1.3v-1.7h1.3v-0.9c0-1.7,0.9-2.8,2.6-2.8c0.6,0,1.2,0.1,1.6,0.3V900z"/>
			<path id="XMLID_334_" class="st21" d="M574,903.4c-0.2,0-0.4,0-0.5,0c-0.9,0-1.5,0.5-1.5,1.6v3.9h-1.9v-7.2h1.9v0.8
				c0.5-0.7,1.1-1,2-1c0.4,0,0.8,0.1,1.1,0.3L574,903.4z"/>
			<path id="XMLID_331_" class="st21" d="M581.7,905.2c0,0.2,0,0.5,0,0.7h-5.1c0.2,1,0.9,1.5,1.8,1.5c0.6,0,1.3-0.3,1.8-0.7l1.1,1.2
				c-0.8,0.7-1.8,1.1-3.1,1.1c-2.2,0-3.7-1.5-3.7-3.8s1.5-3.8,3.6-3.8C580.3,901.5,581.7,903,581.7,905.2z M576.6,904.6h3.2
				c-0.2-0.9-0.7-1.4-1.6-1.4C577.3,903.1,576.7,903.7,576.6,904.6z"/>
			<path id="XMLID_328_" class="st21" d="M589.3,905.2c0,0.2,0,0.5,0,0.7h-5.1c0.2,1,0.9,1.5,1.8,1.5c0.6,0,1.3-0.3,1.8-0.7l1.1,1.2
				c-0.8,0.7-1.8,1.1-3.1,1.1c-2.2,0-3.7-1.5-3.7-3.8s1.5-3.8,3.6-3.8C587.9,901.5,589.3,903,589.3,905.2z M584.2,904.6h3.2
				c-0.2-0.9-0.7-1.4-1.6-1.4C584.9,903.1,584.4,903.7,584.2,904.6z"/>
			<path id="XMLID_325_" class="st21" d="M597.7,905.3c0,2.2-1.5,3.8-3.5,3.8c-1,0-1.6-0.4-2.1-0.9v3.7h-1.9v-10.1h1.9v0.8
				c0.5-0.6,1.2-1,2.1-1C596.2,901.5,597.7,903.1,597.7,905.3z M592,905.3c0,1.1,0.7,2,1.8,2c1.1,0,1.8-0.9,1.8-2c0-1.1-0.7-2-1.8-2
				C592.8,903.3,592,904.1,592,905.3z"/>
			<path id="XMLID_322_" class="st21" d="M600.8,899.3c0,0.7-0.5,1.2-1.2,1.2c-0.7,0-1.2-0.5-1.2-1.2s0.5-1.2,1.2-1.2
				C600.3,898.1,600.8,898.6,600.8,899.3z M600.5,908.8h-1.9v-7.2h1.9V908.8z"/>
			<path id="XMLID_320_" class="st21" d="M603.8,904.2l2.7-2.6h2.4l-3.5,3.4l3.5,3.8h-2.4l-2.7-2.9v2.9h-1.9v-10.7h1.9V904.2z"/>
		</g>
		<g>
			<path class="st21" d="M472.1,908.8v-1.1c-0.5,0.7-1.4,1.2-2.4,1.2c-1.8,0-3.1-1.4-3.1-3.7c0-2.3,1.3-3.7,3.1-3.7
				c1,0,1.8,0.5,2.4,1.2V899h1.1v9.8L472.1,908.8L472.1,908.8z M472.1,906.9v-3.2c-0.4-0.6-1.2-1.1-2.1-1.1c-1.4,0-2.3,1.2-2.3,2.7
				s0.9,2.7,2.3,2.7C470.9,908,471.7,907.5,472.1,906.9z"/>
			<path class="st21" d="M474.7,905.2c0-2.1,1.5-3.7,3.5-3.7c2.1,0,3.4,1.7,3.4,3.8v0.3h-5.7c0.1,1.3,1,2.4,2.5,2.4
				c0.8,0,1.6-0.3,2.2-0.9l0.5,0.7c-0.7,0.7-1.7,1.1-2.8,1.1C476.2,909,474.7,907.4,474.7,905.2z M478.1,902.4
				c-1.5,0-2.3,1.3-2.3,2.4h4.6C480.4,903.7,479.7,902.4,478.1,902.4z"/>
			<path class="st21" d="M482.3,907.8l0.6-0.8c0.5,0.5,1.4,1,2.3,1c1.1,0,1.7-0.5,1.7-1.2c0-1.7-4.4-0.7-4.4-3.3c0-1.1,1-2,2.6-2
				c1.2,0,2.1,0.5,2.6,1l-0.5,0.8c-0.4-0.5-1.2-0.9-2.1-0.9c-1,0-1.6,0.5-1.6,1.1c0,1.6,4.4,0.5,4.4,3.3c0,1.2-1,2.1-2.8,2.1
				C484,909,483.1,908.6,482.3,907.8z"/>
			<path class="st21" d="M489.2,900c0-0.4,0.3-0.7,0.7-0.7c0.4,0,0.7,0.3,0.7,0.7s-0.3,0.7-0.7,0.7
				C489.5,900.7,489.2,900.4,489.2,900z M489.4,908.8v-7.1h1.1v7.1H489.4z"/>
			<path class="st21" d="M492.3,910.6l0.6-0.8c0.6,0.7,1.3,1,2.3,1c1.2,0,2.3-0.6,2.3-2.1v-1c-0.5,0.7-1.4,1.3-2.4,1.3
				c-1.8,0-3.1-1.4-3.1-3.7c0-2.3,1.3-3.7,3.1-3.7c1,0,1.8,0.5,2.4,1.2v-1.1h1.1v6.9c0,2.3-1.6,3.1-3.4,3.1
				C494,911.7,493.1,911.4,492.3,910.6z M497.4,906.7v-3.1c-0.4-0.6-1.2-1.1-2.1-1.1c-1.4,0-2.3,1.1-2.3,2.7c0,1.6,0.8,2.7,2.3,2.7
				C496.2,907.9,497.1,907.4,497.4,906.7z"/>
			<path class="st21" d="M505.1,908.8v-4.6c0-1.2-0.6-1.6-1.6-1.6c-0.9,0-1.7,0.5-2.1,1.1v5.2h-1.1v-7.1h1.1v1
				c0.5-0.6,1.5-1.2,2.5-1.2c1.5,0,2.3,0.7,2.3,2.3v5L505.1,908.8L505.1,908.8z"/>
			<path class="st21" d="M507.7,905.2c0-2.1,1.5-3.7,3.5-3.7c2.1,0,3.4,1.7,3.4,3.8v0.3h-5.7c0.1,1.3,1,2.4,2.5,2.4
				c0.8,0,1.6-0.3,2.2-0.9l0.5,0.7c-0.7,0.7-1.7,1.1-2.8,1.1C509.2,909,507.7,907.4,507.7,905.2z M511.1,902.4
				c-1.5,0-2.3,1.3-2.3,2.4h4.6C513.4,903.7,512.7,902.4,511.1,902.4z"/>
			<path class="st21" d="M521.1,908.8v-1.1c-0.5,0.7-1.4,1.2-2.4,1.2c-1.8,0-3.1-1.4-3.1-3.7c0-2.3,1.3-3.7,3.1-3.7
				c1,0,1.8,0.5,2.4,1.2V899h1.1v9.8L521.1,908.8L521.1,908.8z M521.1,906.9v-3.2c-0.4-0.6-1.2-1.1-2.1-1.1c-1.4,0-2.3,1.2-2.3,2.7
				s0.8,2.7,2.3,2.7C519.8,908,520.7,907.5,521.1,906.9z"/>
			<path class="st21" d="M527.4,908.8V899h1.1v3.8c0.6-0.8,1.4-1.2,2.4-1.2c1.8,0,3.1,1.5,3.1,3.7c0,2.3-1.3,3.7-3.1,3.7
				c-1,0-1.9-0.5-2.4-1.2v1.1L527.4,908.8L527.4,908.8z M530.6,908c1.4,0,2.3-1.2,2.3-2.7c0-1.6-0.8-2.7-2.3-2.7
				c-0.9,0-1.7,0.5-2.1,1.1v3.2C528.9,907.5,529.8,908,530.6,908z"/>
			<path class="st21" d="M535.3,910.6c0.2,0.1,0.4,0.1,0.6,0.1c0.5,0,0.8-0.2,1.1-0.7l0.5-1.1l-3-7.1h1.2l2.4,5.8l2.3-5.8h1.2
				l-3.5,8.5c-0.4,1-1.1,1.4-2.1,1.4c-0.2,0-0.6,0-0.8-0.1L535.3,910.6z"/>
		</g>
	</g>
</g>
</svg>
