<?xml version="1.0" encoding="utf-8"?>
<!-- Generator: Adobe Illustrator 23.0.0, SVG Export Plug-In . SVG Version: 6.00 Build 0)  -->
<svg version="1.1" id="Layer_3" xmlns="http://www.w3.org/2000/svg" xmlns:xlink="http://www.w3.org/1999/xlink" x="0px" y="0px"
	 viewBox="0 0 155.2 41.6" style="enable-background:new 0 0 155.2 41.6;" xml:space="preserve">
<style type="text/css">
	.st0{fill:#22B573;}
	.st1{fill-rule:evenodd;clip-rule:evenodd;fill:#22B573;}
	.st2{fill:#009245;}
	.st3{fill:#FFFFFF;}
</style>
<title>logo</title>
<g>
	<g>
		<path class="st0" d="M71.2,15.3l-1.5,4.5h-1.9l4.8-14.2h2.2l4.8,14.2h-2l-1.5-4.5H71.2z M75.9,13.9l-1.4-4.1
			c-0.3-0.9-0.5-1.8-0.7-2.6h0c-0.2,0.8-0.4,1.7-0.7,2.6l-1.4,4.1H75.9z"/>
		<path class="st0" d="M81.2,12.4c0-1.1,0-1.9-0.1-2.8h1.6l0.1,1.7h0c0.5-1,1.7-1.9,3.4-1.9c1.4,0,3.6,0.8,3.6,4.3v6.1h-1.9v-5.9
			c0-1.6-0.6-3-2.4-3c-1.2,0-2.2,0.9-2.5,1.9c-0.1,0.2-0.1,0.5-0.1,0.9v6.1h-1.9V12.4z"/>
		<path class="st0" d="M101.3,4.8v12.3c0,0.9,0,1.9,0.1,2.6h-1.7L99.6,18h0c-0.6,1.1-1.8,2-3.5,2c-2.5,0-4.4-2.1-4.4-5.2
			c0-3.4,2.1-5.5,4.6-5.5c1.6,0,2.6,0.7,3.1,1.6h0V4.8H101.3z M99.4,13.8c0-0.2,0-0.5-0.1-0.8c-0.3-1.2-1.3-2.1-2.7-2.1
			c-1.9,0-3.1,1.7-3.1,3.9c0,2.1,1,3.8,3,3.8c1.2,0,2.4-0.8,2.7-2.2c0.1-0.3,0.1-0.5,0.1-0.8V13.8z"/>
		<path class="st0" d="M105,15c0,2.5,1.6,3.5,3.5,3.5c1.3,0,2.1-0.2,2.8-0.5l0.3,1.3c-0.7,0.3-1.8,0.6-3.4,0.6c-3.1,0-5-2.1-5-5.1
			c0-3.1,1.8-5.5,4.8-5.5c3.3,0,4.2,2.9,4.2,4.8c0,0.4,0,0.7-0.1,0.9H105z M110.4,13.7c0-1.2-0.5-3-2.6-3c-1.9,0-2.7,1.7-2.8,3
			H110.4z"/>
		<path class="st0" d="M119.7,19.8l-0.1-1.3h-0.1c-0.6,0.8-1.7,1.5-3.1,1.5c-2.1,0-3.1-1.5-3.1-2.9c0-2.5,2.2-3.8,6.1-3.8v-0.2
			c0-0.8-0.2-2.4-2.3-2.4c-0.9,0-1.9,0.3-2.7,0.8l-0.4-1.2c0.8-0.5,2.1-0.9,3.3-0.9c3.1,0,3.9,2.1,3.9,4.2v3.8c0,0.9,0,1.7,0.2,2.4
			H119.7z M119.4,14.6c-2,0-4.3,0.3-4.3,2.3c0,1.2,0.8,1.8,1.7,1.8c1.3,0,2.2-0.8,2.5-1.7c0.1-0.2,0.1-0.4,0.1-0.6V14.6z"/>
		<path class="st0" d="M123.8,12.4c0-1.1,0-1.9-0.1-2.8h1.6l0.1,1.7h0c0.5-1,1.7-1.9,3.4-1.9c1.4,0,3.6,0.8,3.6,4.3v6.1h-1.9v-5.9
			c0-1.6-0.6-3-2.4-3c-1.2,0-2.2,0.9-2.5,1.9c-0.1,0.2-0.1,0.5-0.1,0.9v6.1h-1.9V12.4z"/>
		<path class="st0" d="M71.2,38.7l-3.6-14.2h1.9l1.7,7.2c0.4,1.8,0.8,3.5,1.1,4.9h0c0.2-1.4,0.7-3.1,1.2-4.9l1.9-7.2h1.9l1.7,7.2
			c0.4,1.7,0.8,3.4,1,4.9h0c0.3-1.6,0.7-3.1,1.1-4.9l1.9-7.2H85l-4,14.2H79l-1.8-7.4c-0.4-1.8-0.7-3.2-0.9-4.6h0
			c-0.3,1.4-0.6,2.8-1.1,4.6l-2,7.4H71.2z"/>
		<path class="st0" d="M88,25.6c0,0.6-0.4,1.1-1.2,1.1c-0.7,0-1.1-0.5-1.1-1.1c0-0.7,0.5-1.2,1.2-1.2C87.5,24.5,88,25,88,25.6z
			 M85.9,38.7V28.5h1.9v10.2H85.9z"/>
		<path class="st0" d="M99.2,23.7v12.3c0,0.9,0,1.9,0.1,2.6h-1.7l-0.1-1.8h0c-0.6,1.1-1.8,2-3.5,2c-2.5,0-4.4-2.1-4.4-5.2
			c0-3.4,2.1-5.5,4.6-5.5c1.6,0,2.6,0.7,3.1,1.6h0v-6.1H99.2z M97.3,32.7c0-0.2,0-0.5-0.1-0.8c-0.3-1.2-1.3-2.1-2.7-2.1
			c-1.9,0-3.1,1.7-3.1,3.9c0,2.1,1,3.8,3,3.8c1.2,0,2.4-0.8,2.7-2.2c0.1-0.3,0.1-0.5,0.1-0.8V32.7z"/>
		<path class="st0" d="M102.9,33.9c0,2.5,1.6,3.5,3.5,3.5c1.3,0,2.1-0.2,2.8-0.5l0.3,1.3c-0.7,0.3-1.8,0.6-3.4,0.6
			c-3.1,0-5-2.1-5-5.1c0-3.1,1.8-5.5,4.8-5.5c3.3,0,4.2,2.9,4.2,4.8c0,0.4,0,0.7-0.1,0.9H102.9z M108.3,32.6c0-1.2-0.5-3-2.6-3
			c-1.9,0-2.7,1.7-2.8,3H108.3z"/>
	</g>
</g>
<path class="st1" d="M17.4,1.1c0.2,0,0.4,0,0.6,0c1.5,0,3.1,0,4.6,0c0.9,0,1.9,0,2.8,0c1.4,0,2.8,0,4.1,0c1.3,0,2.6,0,3.8,0
	c1.4,0,2.7,0,4.1,0c1.3,0,2.5,0,3.8,0c1.4,0,2.8,0,4.2,0c1.1,0,2.1,0,3.2,0c1,0,2,0,3,0c1.4,0,2.9,0,4.3,0c1.1,0,2.2,0,3.4,0
	c2.1,0,3.6,0.8,4.5,2.4c0.4,0.6,0.5,1.3,0.5,1.9c0,0.7,0,1.5,0,2.2c0,1.1,0,2.2,0,3.3c0,0.8,0,1.7,0,2.5c0,1.1,0,2.3,0,3.4
	c0,1.3,0,2.7,0,4c0,1,0,1.9,0,2.9c0,1.1,0,2.2,0,3.3c0,1.4,0,2.9,0,4.3c0,1.2,0,2.4,0,3.7c0,0.8,0,1.5,0,2.3c0,1.2,0,2.4,0,3.6
	c0,0,0,0.1,0,0.1c0,0.2,0,0.2-0.3,0.2c-1.2,0-2.4,0-3.6,0c-1.7,0-3.4,0-5,0c-1.1,0-2.3,0-3.4,0c-1.1,0-2.3,0-3.4,0
	c-1.1,0-2.2,0-3.3,0c-1.3,0-2.6,0-3.9,0c-1,0-2.1,0-3.1,0c-1.8,0-3.5,0-5.3,0c-1.2,0-2.4,0-3.5,0c-1.1,0-2.1,0-3.2,0
	c-1.3,0-2.5,0-3.8,0c-0.6,0-1.3,0-1.9-0.2c-1.7-0.5-2.8-1.6-3.2-3.1c-0.2-0.6-0.1-1.1-0.1-1.7c0-0.7,0-1.4,0-2.1c0-1.1,0-2.2,0-3.2
	c0-0.6,0-1.1,0-1.7c0-1,0-2.1,0-3.1c0-1,0-1.9,0-2.9c0-0.8,0-1.5,0-2.3c0-0.4,0-0.9,0-1.3c0-0.6,0-1.1,0-1.7c0-0.8,0-1.7,0-2.5
	c0-1.2,0-2.5,0-3.7c0-1.1,0-2.3,0-3.4c0-1.4,0-2.8,0-4.2c0-0.9,0-1.8,0-2.7C17.4,1.2,17.4,1.1,17.4,1.1z"/>
<g>
	<path class="st2" d="M58.2,16.8L51,29.6L48.4,25l4.7-8.2h-3.6L46.6,22l-8.1-14c-0.2-0.4-0.9-0.6-1.7-0.6c-0.7,0-1.3,0.3-1.5,0.7
		l-2.7,4.9l-2.7-4.9c-0.2-0.4-0.9-0.6-1.6-0.6c-0.5,0-1.3,0.3-1.6,0.8l-9.2,16.3H21l7.2-12.8l2.6,4.6l-4.7,8.2h3.6l2.8-5.2l8.1,14
		c0.2,0.4,0.9,0.6,1.7,0.6c0.7,0,1.3-0.3,1.5-0.7l2.7-4.9l2.7,4.9c0.2,0.4,0.9,0.6,1.6,0.6c0.5,0,1.3-0.3,1.6-0.9l9.2-16.3H58.2z
		 M42.2,30l-7.9-13.9l2.6-4.5l7.9,14L42.2,30z"/>
	<path class="st3" d="M57.7,16.8l-7.2,12.4l-2.6-4.4l4.7-8H49l-2.8,4.8L38.1,7.5c-0.2-0.4-0.9-0.7-1.7-0.7c-0.7,0-1.3,0.2-1.5,0.6
		l-2.7,4.9l-2.7-4.9c-0.2-0.4-0.9-0.6-1.6-0.6c-0.5,0-1.3,0.4-1.6,1l-9.2,16.4h3.6l7.2-12.9l2.6,4.7l-4.7,8.3h3.6l2.8-5.3l8.1,13.9
		c0.2,0.4,0.9,0.5,1.7,0.5c0.7,0,1.3-0.3,1.5-0.7l2.7-4.9l2.7,4.9c0.2,0.4,0.9,0.6,1.6,0.6c0.5,0,1.3,0.1,1.6-0.5l9.2-15.9H57.7z
		 M41.7,29.2l-7.9-13.9l2.6-4.5l7.9,14L41.7,29.2z"/>
</g>
</svg>
