<?xml version="1.0" encoding="iso-8859-1"?>
<!-- Generator: Adobe Illustrator 23.0.0, SVG Export Plug-In . SVG Version: 6.00 Build 0)  -->
<svg version="1.1" id="Capa_1" xmlns="http://www.w3.org/2000/svg" xmlns:xlink="http://www.w3.org/1999/xlink" x="0px" y="0px"
	 viewBox="0 0 547 515.22" style="enable-background:new 0 0 547 515.22;" xml:space="preserve">
<g style="display:none;">
	<g style="display:inline;">
		<g>
			<g>
				<defs>
					<rect id="SVGID_1_" x="-16.214" y="93.285" width="605.214" height="417.046"/>
				</defs>
				<clipPath id="SVGID_2_">
					<use xlink:href="#SVGID_1_"  style="overflow:visible;"/>
				</clipPath>
				<g style="clip-path:url(#SVGID_2_);">
					<path style="fill:#FBE8F3;" d="M234.616,505.178c32.102,23.777,70.215,36.342,109.59,36.511
						c34.187,0.146,100.58,1.018,149.943-44.742c102.16-94.704,36.81-277.101-165.934-289.824
						C125.47,194.4,20.023,277.156,16.855,349.833c-0.33,7.57,0.016,14.95,0.901,22.095c7.113,57.442,54.869,99.512,110.401,100.553
						C160.113,473.081,200.589,479.976,234.616,505.178z"/>
					<path style="fill:#FBE8F3;" d="M497.807,231.047c-2.679-1.929-4.941-4.386-6.881-7.057
						c-5.478-7.541-25.792-32.025-61.933-37.385c-42.855-6.356-60.611-7.075-57.441-28.864
						c3.17-21.789,56.075-54.745,107.606-31.551s63.843,64.103,57.884,85.338C531.02,232.987,513.08,242.047,497.807,231.047z"/>
					<path style="fill:#FBE8F3;" d="M187.7,161.363c0,0,40.4-1.543,42.533-32.635s-76.142-15.914-79.812,17.922
						C147.666,172.05,187.7,161.363,187.7,161.363z"/>
				</g>
			</g>
		</g>
		<g>
			<g>
				<path style="fill:#FCC506;" d="M130.723,113.584H64.479c-1.655,0-2.997-1.342-2.997-2.997l0,0c0-1.655,1.342-2.997,2.997-2.997
					h66.244c1.655,0,2.997,1.342,2.997,2.997l0,0C133.72,112.243,132.378,113.584,130.723,113.584z"/>
				<path style="fill:#FCC506;" d="M529.674,301.603H482.64c-1.655,0-2.997-1.342-2.997-2.997l0,0c0-1.655,1.342-2.997,2.997-2.997
					h47.034c1.655,0,2.997,1.342,2.997,2.997l0,0C532.671,300.261,531.329,301.603,529.674,301.603z"/>
				<path style="fill:#13509D;" d="M390.058,257.949h-4.807c-1.254,0-2.27-1.016-2.27-2.27v-4.443c0-1.254,1.016-2.27,2.27-2.27
					h4.807c1.254,0,2.269,1.016,2.269,2.27v4.443C392.328,256.933,391.312,257.949,390.058,257.949z"/>
				<path style="fill:#13509D;" d="M76.317,416.813H71.51c-1.254,0-2.269-1.016-2.269-2.269v-4.443c0-1.254,1.016-2.27,2.269-2.27
					h4.807c1.254,0,2.27,1.016,2.27,2.27v4.443C78.587,415.797,77.571,416.813,76.317,416.813z"/>
			</g>
			<g>
				<g>
					<g>
						<g>
							<g>
								<g>
									<g>
										<g>
											<g>
												<g>
													<path style="fill:#EA4D79;" d="M469.837,142.695h-85.842c-8.338,0-15.097-6.759-15.097-15.097V47.791
														c0-6.321,5.124-11.445,11.446-11.445h89.493c6.321,0,11.446,5.124,11.446,11.445v83.458
														C481.283,137.57,476.158,142.695,469.837,142.695z"/>
												</g>
											</g>
										</g>
									</g>
								</g>
							</g>
						</g>
					</g>
					<g>
						<path style="fill:#FFFFFF;" d="M425.425,58.508c-13.737,0.077-24.811,11.276-24.733,25.014
							c0.047,8.311,4.241,16.049,11.179,20.625l-3.893,6.489c-1.633,2.735-0.739,6.276,1.997,7.909
							c0.9,0.537,1.93,0.819,2.978,0.815h24.946c3.185,0.012,5.778-2.56,5.79-5.746c0.004-1.049-0.278-2.078-0.815-2.978
							l-3.893-6.489c11.468-7.563,14.633-22.991,7.07-34.459C441.474,62.749,433.736,58.554,425.425,58.508z M437.898,113.591
							h-24.946l4.11-6.849c5.429,1.954,11.37,1.954,16.799,0L437.898,113.591z M425.425,102.415
							c-10.552,0-19.106-8.554-19.106-19.106s8.554-19.106,19.106-19.106s19.106,8.554,19.106,19.106l0,0
							C444.531,93.861,435.977,102.415,425.425,102.415z"/>
						<path style="fill:#FFFFFF;" d="M425.425,68.89c-8.004,0-14.491,6.488-14.491,14.492s6.488,14.492,14.492,14.492
							s14.492-6.488,14.492-14.492c0-0.024,0-0.048,0-0.072C439.877,75.334,433.401,68.89,425.425,68.89z M425.425,92.105
							c-4.818,0-8.724-3.906-8.723-8.724c0-4.818,3.906-8.724,8.724-8.724c4.79,0,8.684,3.862,8.723,8.652
							c0,4.818-3.906,8.724-8.724,8.724V92.105z"/>
					</g>
				</g>
				<g>
					<g>
						<g>
							<g>
								<g>
									<g>
										<path style="fill:#13509D;" d="M94.041,275.461H31.354c-6.089,0-11.025-4.936-11.025-11.025v-58.281
											c0-4.616,3.742-8.358,8.358-8.358h65.354c4.616,0,8.358,3.742,8.358,8.358v60.947
											C102.4,271.718,98.657,275.461,94.041,275.461z"/>
									</g>
								</g>
							</g>
						</g>
					</g>
					<g>
						<path style="fill:#FFFFFF;" d="M80.106,242.978l-4.872-4.871c-0.87-0.957-2-1.479-3.131-1.479s-2.262,0.522-3.131,1.392
							l-2.784,2.784c-0.174-0.087-0.348-0.174-0.522-0.261c-0.348-0.174-0.609-0.261-0.87-0.435c-2.61-1.653-4.958-3.827-7.22-6.611
							c-1.044-1.305-1.827-2.523-2.261-3.567c0.696-0.609,1.305-1.305,1.914-1.914c0.261-0.261,0.522-0.522,0.783-0.783
							c0.957-0.957,1.479-2.088,1.479-3.218c0-1.131-0.522-2.262-1.479-3.218l-2.436-2.436c-0.261-0.261-0.522-0.522-0.783-0.87
							c-0.522-0.522-1.131-1.131-1.653-1.653c-0.87-0.87-2.001-1.392-3.132-1.392s-2.175,0.435-3.131,1.392l-3.045,3.045
							c-1.131,1.131-1.827,2.609-2.001,4.262c-0.174,2.61,0.522,5.045,1.131,6.611c1.392,4.001,3.567,7.568,6.785,11.395
							c3.915,4.61,8.525,8.264,13.918,10.873c2.001,0.957,4.784,2.088,7.829,2.349c0.174,0,0.348,0,0.609,0
							c2.088,0,3.827-0.783,5.219-2.262c0,0,0,0,0.087-0.087c0.435-0.522,0.957-1.044,1.566-1.566
							c0.348-0.348,0.783-0.783,1.131-1.131C81.933,247.414,81.933,244.804,80.106,242.978z M78.105,247.501
							c-0.348,0.348-0.696,0.696-1.044,1.044c-0.609,0.522-1.131,1.131-1.74,1.74c-0.87,0.87-1.827,1.305-3.131,1.305
							c-0.174,0-0.261,0-0.435,0c-2.609-0.174-5.045-1.218-6.785-2.088c-4.958-2.436-9.308-5.828-12.961-10.177
							c-2.958-3.567-4.958-6.959-6.35-10.526c-0.87-2.088-1.218-3.74-1.044-5.393c0.087-0.957,0.435-1.827,1.218-2.522l2.958-2.958
							c0.261-0.261,0.696-0.609,1.218-0.609s0.87,0.261,1.218,0.609c0.522,0.522,1.044,1.044,1.566,1.566
							c0.261,0.261,0.522,0.609,0.87,0.87l2.436,2.436c0.261,0.261,0.609,0.783,0.609,1.218c0,0.522-0.348,0.957-0.609,1.218
							s-0.522,0.522-0.783,0.783c-0.783,0.783-1.479,1.479-2.175,2.175c0,0,0,0-0.087,0.087c-0.87,0.87-0.696,1.653-0.522,2.175
							v0.087c0.609,1.566,1.566,2.958,2.87,4.697c2.436,3.044,5.045,5.393,7.916,7.22c0.348,0.261,0.783,0.435,1.131,0.609
							s0.609,0.261,0.87,0.435l0.087,0.087c0.87,0.435,1.74,0.261,2.436-0.435l3.044-3.044c0.261-0.261,0.696-0.609,1.218-0.609
							c0.435,0,0.87,0.348,1.131,0.609l4.871,4.871C78.888,245.761,78.888,246.631,78.105,247.501z"/>
					</g>
				</g>
			</g>
		</g>
	</g>
	<g style="display:inline;">
		<g>
			<g>
				<path style="fill:#020203;" d="M250.045,416.338h-93.902c-19.895,0-36.023-16.128-36.023-36.023v-121.4
					c0-19.895,16.128-36.023,36.023-36.023h93.902c19.895,0,36.023,16.128,36.023,36.023v121.4
					C286.068,400.21,269.94,416.338,250.045,416.338z"/>
				<path style="fill:#020203;" d="M158.003,479.776h106.834c8.239,0,14.918,6.679,14.918,14.918l0,0
					c0,8.239-6.679,14.918-14.918,14.918H158.003c-8.239,0-14.918-6.679-14.918-14.918l0,0
					C143.085,486.455,149.764,479.776,158.003,479.776z"/>
			</g>
			<g>
				<g>
					<g>
						<path style="fill:#1B0807;" d="M215.11,77.307l-10.77,6.757c-10.57,6.632-24.515,3.44-31.147-7.13l-8.388-12.979
							c-6.632-10.57-3.44-24.515,7.13-31.147l10.77-6.758c10.57-6.632,24.515-3.44,31.147,7.13l8.388,12.979
							C228.873,56.73,225.68,70.675,215.11,77.307z"/>
						
							<rect x="200.573" y="79.198" transform="matrix(0.8471 -0.5315 0.5315 0.8471 -12.2477 125.6781)" style="fill:#EA4D79;" width="23.379" height="9.846"/>
					</g>
					<ellipse style="fill:#1B0807;" cx="242.552" cy="129.712" rx="52.464" ry="52.29"/>
					<g>
						<path style="fill:#F29476;" d="M280.326,149.211c2.187,6.571,9.287,10.125,15.859,7.939
							c6.571-2.187,10.126-9.287,7.939-15.859c-2.187-6.571-9.287-10.126-15.859-7.939
							C281.693,135.539,278.139,142.639,280.326,149.211z"/>
					</g>
					<path style="fill:#1B0807;" d="M234.159,85.763c0,0,16.904-10.593,47.342,5.608c27.77,14.781,5.659,35.427,5.659,35.427
						L234.159,85.763z"/>
					<path style="fill:#1B0807;" d="M190.677,134.883c1.678,26.619,26.03,47.684,53.965,46.929
						c27.936-0.755,49.998-22.98,49.278-49.642c-0.72-26.662-23.951-47.664-51.887-46.909
						C214.098,86.016,188.262,96.578,190.677,134.883z"/>
					<polygon style="fill:#F8BA9E;" points="264.125,181.521 264.432,239.594 219.297,238.38 228.598,152.728 					"/>
					<polygon style="fill:#F29476;" points="264.234,207.817 238.863,181.832 264.155,184.258 					"/>
					<path style="fill:#F8BA9E;" d="M286.58,103.755c3.377,2.701,4.184,7.157,6.545,10.763c3.816,5.83,8.356,34.385,4.283,47.798
						c-5.297,17.442-19.003,30.079-41.804,26.379c0,0-27.258-2.009-33.779-36.289C211.435,97.787,257.661,80.624,286.58,103.755z"/>
					<g>
						
							<path style="fill:none;stroke:#1B0807;stroke-width:0.3783;stroke-linecap:round;stroke-linejoin:round;stroke-miterlimit:10;" d="
							M283.113,144.531l2.584,8.502c0.176,0.709-0.236,1.432-0.937,1.641l-3.214,0.685"/>
						<path style="fill:#1B0807;" d="M262.033,141.08c0.18,1.64,1.656,2.824,3.296,2.644c1.641-0.18,2.824-1.656,2.644-3.296
							c-0.18-1.641-1.656-2.824-3.297-2.644C263.037,137.963,261.853,139.439,262.033,141.08z"/>
						<path style="fill:#1B0807;" d="M287.979,139.538c0.18,1.64,1.656,2.824,3.296,2.644c1.641-0.18,2.824-1.656,2.644-3.296
							c-0.18-1.641-1.656-2.824-3.296-2.644C288.983,136.421,287.799,137.897,287.979,139.538z"/>
						
							<path style="fill:none;stroke:#1B0807;stroke-width:0.3783;stroke-linecap:round;stroke-linejoin:round;stroke-miterlimit:10;" d="
							M270.345,158.936c0,0,3.682,4.632,11.2,2.848"/>
						<path style="fill:#1B0807;" d="M249.492,128.661c0,0,8.086-3.747,17.701-3.595l0.807,2.912c0,0-9.258,0.605-17.341,3.824
							L249.492,128.661z"/>
						<path style="fill:#1B0807;" d="M295.377,126.459c0,0-5.551-3.184-11.603-2.394l-0.162,2.945c0,0,5.916-0.013,11.403,2.646
							L295.377,126.459z"/>
					</g>
					<g>
						<path style="fill:#F8BA9E;" d="M203.002,153.2c2.187,6.571,9.287,10.126,15.859,7.939c6.571-2.187,10.126-9.287,7.939-15.859
							c-2.187-6.571-9.287-10.126-15.859-7.939C204.369,139.528,200.814,146.628,203.002,153.2z"/>
						
							<path style="fill:none;stroke:#F29476;stroke-width:0.3783;stroke-linecap:round;stroke-linejoin:round;stroke-miterlimit:10;" d="
							M210.153,147.16c0,0,4.748,0,9.37,4.847"/>
					</g>
					<path style="fill:#1B0807;" d="M219.523,120.347h81.495c0,0-4.872-39.425-51.526-42.457l-29.16,21.666L219.523,120.347z"/>
					<polygon style="fill:#1B0807;" points="232.053,111.219 226.799,148.308 211.307,132.707 214.9,111.219 					"/>
				</g>
				<g>
					<path style="fill:#13509D;" d="M181.896,418.378c0,0-32.385,90.147,99.661,91.803h135.967v-26.24
						c0-21.973-15.099-41.066-36.48-46.131l-82.035-19.432H181.896z"/>
					
						<path style="fill:none;stroke:#1B0807;stroke-width:0.3783;stroke-linecap:round;stroke-linejoin:round;stroke-miterlimit:10;" d="
						M281.545,441.228l47.132,12.614c18.493,6.238,30.945,23.579,30.945,43.096v12.673"/>
				</g>
				<g>
					<g>
						<path style="fill:#F8BA9E;" d="M281.545,310.953l31.898,102.231c5.228,13.401,20.696,19.591,33.726,13.497l0,0
							c11.038-5.162,16.714-17.557,13.411-29.286l-29.522-104.849L281.545,310.953z"/>
						<path style="fill:#EA4D79;" d="M256.561,222.822c0,0,66.553-15.005,85.132,75.912c0,0-28.875,16.26-65.306,20.518
							L256.561,222.822z"/>
					</g>
					<g>
						<path style="fill:#EA4D79;" d="M234.159,218.258c0,0-54.881,16.321-61.926,32.807c-12.58,29.441,9.663,167.314,9.663,167.314
							h117.113l11.668-85.953c0,0,10.077-38.884,2.02-75.391c-4.17-18.896-20.202-32.874-39.454-34.822L234.159,218.258z"/>
						<path style="fill:#F8BA9E;" d="M207.945,227.604c0,0,6.635-4.189,26.214-9.346l38.553,3.901c0,0,20.68,28.206-19.529,28.732
							S207.945,227.604,207.945,227.604z"/>
						
							<path style="fill:none;stroke:#1B0807;stroke-width:0.3783;stroke-linecap:round;stroke-linejoin:round;stroke-miterlimit:10;" d="
							M314.488,310.398c0,0,2.884-18.955,0.56-38.432"/>
					</g>
					<g>
						<g>
							<path style="fill:#F8BA9E;" d="M223.572,299.517l39.362,99.596c4.345,13.713-3.808,28.242-17.775,31.68l0,0
								c-11.832,2.913-24.033-3.171-28.826-14.373l-42.854-100.142L223.572,299.517z"/>
							<path style="fill:#EA4D79;" d="M198.61,232.539c0,0-58.768,12.1-33.636,99.681c0,0,38.205-1.026,71.714-15.943
								L198.61,232.539z"/>
							
								<line style="fill:none;stroke:#1B0807;stroke-width:0.3783;stroke-linecap:round;stroke-linejoin:round;stroke-miterlimit:10;" x1="231.119" y1="318.613" x2="220.332" y2="286.663"/>
						</g>
						<g>
							<path style="fill:#F8BA9E;" d="M335.065,369.054l-98.505,16.873c-15.177,2.012-24.14,18.067-17.888,32.042l0,0
								c4.865,10.876,17.259,16.202,28.498,12.245l91.507-33.08L335.065,369.054z"/>
							<path style="fill:#F8BA9E;" d="M335.065,369.054c0,0,35.181-10.522,46.55,7.953c8.06,13.098,6.299,27.393,4.591,34.604
								c-0.657,2.772-3.1,4.727-5.949,4.727l0,0c-3.635,0-6.464-3.159-6.064-6.772l1.027-9.28c0,0-35.427,18.752-36.544-3.152
								L335.065,369.054z"/>
						</g>
					</g>
					<g>
						<path style="fill:#020203;" d="M257.512,439.035l75.444-0.512l-0.063-10.888l-66.43,0.459
							c-2.106,0.012-4.028,1.202-4.978,3.081L257.512,439.035z"/>
						<g>
							<path style="fill:#202121;" d="M500.373,344.46l-46.723,83.749c-3.592,6.439-10.388,10.43-17.762,10.43H313.111
								l47.497-93.275c1.407-2.763,4.238-4.51,7.339-4.529l129.65-0.807C499.883,340.014,501.383,342.41,500.373,344.46z"/>
							<path style="fill:#FFFFFF;" d="M400.578,387.293c-3.337,5.857-1.76,13.046,3.522,16.055s12.269,0.7,15.606-5.158
								c3.337-5.858,1.76-13.046-3.522-16.055C410.902,379.126,403.914,381.436,400.578,387.293z"/>
						</g>
					</g>
				</g>
			</g>
		</g>
		<g>
			<g>
				
					<line style="fill:none;stroke:#0D0C0D;stroke-width:0.4875;stroke-linecap:round;stroke-linejoin:round;stroke-miterlimit:10;" x1="531.466" y1="510.331" x2="42.359" y2="510.331"/>
			</g>
		</g>
	</g>
</g>
<g style="display:none;">
	<g style="display:inline;">
		<g>
			<g>
				<g>
					<defs>
						<rect id="SVGID_3_" x="11.944" y="122.867" width="567.056" height="390.751"/>
					</defs>
					<clipPath id="SVGID_4_">
						<use xlink:href="#SVGID_3_"  style="overflow:visible;"/>
					</clipPath>
					<g style="clip-path:url(#SVGID_4_);">
						<path style="fill:#FBE8F3;" d="M354.395,344.729c-22.662-27.894-55.701-66.034-90.015-74.83
							c-39.543-10.137-95.731-7.48-137.992,24.003c-100.5,74.871-94.003,233.25,79.833,289.647s284.221,7.844,303.223-54.781
							c1.979-6.523,3.327-13.031,4.153-19.456c6.639-51.647-25.576-98.981-73.737-112.298
							C412.147,389.35,378.415,374.294,354.395,344.729z"/>
						<path style="fill:#FBE8F3;" d="M413.846,240.884c2.605,1.876,4.804,4.265,6.691,6.862c5.327,7.332,25.079,31.14,60.221,36.352
							c41.671,6.18,58.936,6.879,55.853,28.066s-54.525,53.232-104.632,30.679c-50.106-22.552-62.078-62.331-56.284-82.979
							C381.551,238.997,398.995,230.187,413.846,240.884z"/>
						<path style="fill:#FBE8F3;" d="M196.883,180.419c0,0-38.029,7.818-39.852,30.578c-2.331,29.107,71.341,14.91,74.78-16.792
							C234.392,170.406,196.883,180.419,196.883,180.419z"/>
					</g>
				</g>
			</g>
			
				<line style="fill:none;stroke:#0D0C0D;stroke-width:0.4875;stroke-linecap:round;stroke-linejoin:round;stroke-miterlimit:10;" x1="57.042" y1="515.22" x2="540.171" y2="515.22"/>
		</g>
		<g>
			<path style="fill:#FCC506;" d="M534.687,215.593h-42.801c-1.506,0-2.727-1.221-2.727-2.727l0,0c0-1.506,1.221-2.727,2.727-2.727
				h42.801c1.506,0,2.727,1.221,2.727,2.727l0,0C537.414,214.372,536.193,215.593,534.687,215.593z"/>
			<path style="fill:#FCC506;" d="M102.636,87.505H68.835c-1.506,0-2.727-1.221-2.727-2.727l0,0c0-1.506,1.221-2.727,2.727-2.727
				h33.801c1.506,0,2.727,1.221,2.727,2.727l0,0C105.363,86.284,104.142,87.505,102.636,87.505z"/>
			<path style="fill:#13509D;" d="M529.6,389.335h-4.375c-1.141,0-2.065-0.925-2.065-2.065v-4.043c0-1.141,0.925-2.065,2.065-2.065
				h4.375c1.141,0,2.065,0.925,2.065,2.065v4.043C531.666,388.411,530.741,389.335,529.6,389.335z"/>
			<path style="fill:#13509D;" d="M87.184,168.078H82.81c-1.141,0-2.065-0.925-2.065-2.065v-4.043c0-1.141,0.925-2.065,2.065-2.065
				h4.375c1.141,0,2.065,0.925,2.065,2.065v4.043C89.25,167.154,88.325,168.078,87.184,168.078z"/>
		</g>
	</g>
	<g style="display:inline;">
		<g>
			<path style="fill:#EA4D79;" d="M435.295,466.871H157.499c-15.622,0-28.286-12.664-28.286-28.286V35.03
				c0-15.622,12.664-28.287,28.286-28.287h277.796c15.622,0,28.286,12.664,28.286,28.287v403.554
				C463.582,454.207,450.917,466.871,435.295,466.871z"/>
			<g>
				<g>
					<circle style="fill:#FFFFFF;" cx="296.397" cy="152.099" r="105.981"/>
					<g style="display:none;">
						<g style="display:inline;">
							<defs>
								<circle id="SVGID_5_" cx="296.402" cy="152.114" r="92.007"/>
							</defs>
							<clipPath id="SVGID_6_">
								<use xlink:href="#SVGID_5_"  style="overflow:visible;"/>
							</clipPath>
							<g style="clip-path:url(#SVGID_6_);">
								<path style="fill:#FCC506;" d="M278.17,198.216l-52.914,25.434c0,0,20.992,26.794,73.543,26.794
									s66.659-29.182,66.659-29.182l-49.252-23.38L278.17,198.216z"/>
								<g>
									<g>
										<circle style="fill:#F8BA9E;" cx="331.432" cy="136.08" r="10.634"/>
										
											<path style="fill:none;stroke:#F29476;stroke-width:0.2878;stroke-linecap:round;stroke-linejoin:round;stroke-miterlimit:10;" d="
											M337.424,134.415c0,0-4.285-1.939-8.106,5.518"/>
									</g>
									<g>
										<circle style="fill:#F8BA9E;" cx="264.03" cy="136.08" r="10.634"/>
										
											<path style="fill:none;stroke:#F29476;stroke-width:0.2878;stroke-linecap:round;stroke-linejoin:round;stroke-miterlimit:10;" d="
											M258.037,134.415c0,0,4.285-1.939,8.106,5.518"/>
									</g>
									<g>
										<path style="fill:#F8BA9E;" d="M313.116,163.443c0,0-6.695,4.724-12.796,5.89c-6.101,1.166-12.032-2.375-12.107-2.418
											c-0.075-0.043-7.124-4.098-7.124-4.098l-2.918,35.398l0.79,0.651c10.344,8.533,25.257,8.634,35.716,0.242l1.53-1.228
											L313.116,163.443z"/>
									</g>
									<path style="fill:#F29476;" d="M275.316,164.613c0,0,12.929,20.47,24.693,17.824c12.281-2.762,17.33-20.238,17.33-20.238
										L275.316,164.613z"/>
									<path style="fill:#F8BA9E;" d="M329.946,115.408c0.068,13.423-1.79,25.015-3.663,33.246
										c-1.834,8.058-7.078,13.709-14.507,18.274l-1.353,0.832c-7.86,4.83-18.047,4.993-26.075,0.418l0,0
										c-8.097-4.615-13.782-10.725-15.565-19.353c-3.244-15.693-3.678-33.089-3.678-33.089s-4.558-36.307,30.413-35.826
										C330.49,80.392,329.946,115.408,329.946,115.408z"/>
									<g>
										<path style="fill:#1B0807;" d="M285.27,128.235c0,1.563-1.267,2.83-2.83,2.83s-2.83-1.267-2.83-2.83s1.267-2.83,2.83-2.83
											S285.27,126.671,285.27,128.235z"/>
										<path style="fill:#1B0807;" d="M313.037,128.235c0,1.563-1.267,2.83-2.83,2.83s-2.83-1.267-2.83-2.83
											s1.267-2.83,2.83-2.83S313.037,126.671,313.037,128.235z"/>
										
											<polyline style="fill:none;stroke:#1B0807;stroke-width:0.3304;stroke-linecap:round;stroke-linejoin:round;stroke-miterlimit:10;" points="
											298.799,138.875 293.756,138.875 293.756,128.127 										"/>
										<path style="fill:#741613;" d="M329.627,125.702c0,0-3.521,23.085-13.56,21.012c-2.003-0.413-3.672-0.891-5.128-1.387
											c-4.459-1.517-9.1-2.434-13.81-2.487l-0.704-0.008c-4.852-0.054-9.658,0.742-14.249,2.313
											c-1.742,0.596-3.686,1.176-5.588,1.568c-10.039,2.073-10.935-21.268-10.935-21.268s-4.867,18.297,1.275,32.368
											c3.862,8.847,9.461,13.268,14.82,15.391l-0.001,0.004c0.176,0.072,0.351,0.136,0.527,0.205
											c0.012,0.004,0.024,0.01,0.036,0.014c14.641,5.772,27.526,0.77,27.526,0.77v-0.002c6.194-1.565,13.271-5.83,17.877-16.382
											C333.855,143.744,329.627,125.702,329.627,125.702z"/>
										<path style="fill:#1B0807;" d="M272.037,112.078c0,0,6.616-3.066,14.485-2.941l0.661,2.383c0,0-7.576,0.495-14.19,3.129
											L272.037,112.078z"/>
										<path style="fill:#1B0807;" d="M317.78,112.078c0,0-6.616-3.066-14.485-2.941l-0.661,2.383c0,0,7.576,0.495,14.19,3.129
											L317.78,112.078z"/>
										<path style="fill:#FFFFFF;" d="M289.431,147.565h13.693c0,0-0.769,4.765-6.846,4.765
											C290.2,152.331,289.431,147.565,289.431,147.565z"/>
									</g>
									<path style="fill:#741613;" d="M315.579,89.294c2.157,0.724,4.342,1.537,6.58,2.553c0,0-1.384-3.107-4.947-6.383
										c-2.38-2.188-4.237-4.825-5.571-7.77c-2.596-5.73-8.771-10.545-16.039-10.545c-7.528,0-13.928,5.439-16.363,11.556
										c-1.086,2.729-2.703,5.225-4.81,7.272c-3.17,3.081-4.426,5.87-4.426,5.87s1.43-0.829,4.032-1.867
										c0.002-0.001,0.005-0.002,0.008-0.004c0.475-0.189,1.03-0.389,1.581-0.589c3.176-0.807,5.061,1.118,5.061,1.118
										l0.032-0.032c3.052,3.361,8.546,5.045,14.884,5.045c6.138,0,11.51-1.743,14.616-5.025
										C310.288,90.439,312.482,88.694,315.579,89.294z"/>
									<path style="fill:#F29C7A;" d="M270.005,91.847c0,0,4.9,9.594,0,16.742l-4.352,16.857
										C265.653,125.446,261.404,103.554,270.005,91.847z"/>
									<path style="fill:#F29C7A;" d="M322.158,91.847c0,0-3.853,8.98,1.047,16.127l6.422,17.728
										C329.627,125.702,332.699,103.331,322.158,91.847z"/>
								</g>
							</g>
						</g>
					</g>
				</g>
				<g>
					<path style="fill:#FCC506;" d="M373.186,389.611H219.608c-16.122,0-29.192-13.07-29.192-29.192l0,0
						c0-16.123,13.07-29.192,29.192-29.192h153.578c16.122,0,29.192,13.07,29.192,29.192l0,0
						C402.378,376.541,389.308,389.611,373.186,389.611z"/>
					<path style="fill:#FFFFFF;" d="M279.006,371.899c3.136,0.001,5.641-1.984,5.509-4.368l-0.375-6.784l0.005-0.004
						c7.762-2.805,16.261-2.798,24.018,0.02l-0.378,6.782c-0.133,2.383,2.37,4.371,5.506,4.372l8.96,0.005
						c3.47,0.002,6.117-2.413,5.415-4.998c-1.255-4.62-4.282-9.019-9.078-12.569c-12.069-8.932-31.49-9.229-43.984-0.648
						c-5.309,3.646-8.631,8.289-9.97,13.183c-0.707,2.585,1.938,5.004,5.41,5.006L279.006,371.899z"/>
				</g>
				
					<line style="fill:none;stroke:#FFFFFF;stroke-width:0.8675;stroke-linecap:round;stroke-linejoin:round;stroke-miterlimit:10;" x1="191.733" y1="309.698" x2="401.061" y2="309.698"/>
				<g>
					<path style="fill:#FFFFFF;" d="M260.127,276.528v13.49h-3.739l-5.126-6.128v6.128h-4.433v-13.49h3.738l5.127,6.128v-6.128
						H260.127z"/>
					<path style="fill:#FFFFFF;" d="M262.75,283.273c0-4.085,3.219-7.054,7.612-7.054c4.395,0,7.612,2.968,7.612,7.054
						s-3.218,7.053-7.612,7.053C265.969,290.327,262.75,287.359,262.75,283.273z M273.389,283.273c0-2.101-1.35-3.373-3.026-3.373
						s-3.025,1.272-3.025,3.373s1.349,3.373,3.025,3.373S273.389,285.374,273.389,283.273z"/>
					<path style="fill:#FFFFFF;" d="M292.644,290.019l-0.039-6.148l-2.929,4.934h-2.005l-2.929-4.721v5.936h-4.144v-13.49h3.738
						l4.395,7.188l4.278-7.188h3.738l0.039,13.49L292.644,290.019L292.644,290.019z"/>
					<path style="fill:#FFFFFF;" d="M313.249,286.299c0,2.351-1.985,3.719-5.705,3.719h-7.593v-13.49h7.208
						c3.719,0,5.453,1.484,5.453,3.527c0,1.252-0.636,2.293-1.869,2.91C312.323,283.543,313.249,284.7,313.249,286.299z
						 M304.422,279.708v2.004h2.12c1.021,0,1.484-0.347,1.484-1.002s-0.463-1.002-1.484-1.002L304.422,279.708L304.422,279.708z
						 M308.662,285.779c0-0.694-0.501-1.06-1.503-1.06h-2.737v2.12h2.737C308.161,286.839,308.662,286.473,308.662,285.779z"/>
					<path style="fill:#FFFFFF;" d="M321.596,286.626h-1.233v3.392h-4.548v-13.49h6.494c3.759,0,6.148,1.966,6.148,5.088
						c0,1.946-0.926,3.411-2.544,4.24l2.833,4.163h-4.856L321.596,286.626z M322.02,280.036h-1.657v3.161h1.657
						c1.253,0,1.851-0.597,1.851-1.58S323.272,280.036,322.02,280.036z"/>
					<path style="fill:#FFFFFF;" d="M342.354,286.588v3.43h-11.216v-13.49h10.966v3.43h-6.495v1.581h5.705v3.276h-5.705v1.773
						H342.354z"/>
				</g>
				<g>
					<path style="fill:#FFFFFF;" d="M226.053,421.789c0,5.505-4.463,9.967-9.968,9.967s-9.968-4.462-9.968-9.967
						s4.463-9.968,9.968-9.968S226.053,416.284,226.053,421.789z"/>
					<path style="fill:#FFFFFF;" d="M279.594,421.789c0,5.505-4.462,9.967-9.967,9.967s-9.968-4.462-9.968-9.967
						s4.463-9.968,9.968-9.968C275.131,411.821,279.594,416.284,279.594,421.789z"/>
					<path style="fill:#FCC506;" d="M333.135,421.789c0,5.505-4.463,9.967-9.968,9.967c-5.505,0-9.967-4.462-9.967-9.967
						s4.462-9.968,9.967-9.968C328.672,411.821,333.135,416.284,333.135,421.789z"/>
					<path style="fill:#FCC506;" d="M386.676,421.789c0,5.505-4.463,9.967-9.968,9.967s-9.968-4.462-9.968-9.967
						s4.463-9.968,9.968-9.968S386.676,416.284,386.676,421.789z"/>
				</g>
			</g>
		</g>
		<g>
			<g>
				<g>
					<g>
						<g>
							<g>
								<g>
									<g>
										<path style="fill:#13509D;" d="M144.338,318.704H70.461c-7.176,0-12.993-5.817-12.993-12.993v-68.684
											c0-5.44,4.41-9.85,9.85-9.85h77.02c5.44,0,9.85,4.41,9.85,9.85v71.826C154.188,314.294,149.778,318.704,144.338,318.704z"
											/>
									</g>
								</g>
							</g>
						</g>
					</g>
				</g>
				<g>
					<g>
						<path style="fill:#FFFFFF;" d="M127.534,296.846H84.122c-1.357,0-2.261-0.904-2.261-2.261
							c0-13.34,10.853-23.967,23.967-23.967s23.967,10.853,23.967,23.967C129.795,295.715,128.891,296.846,127.534,296.846z
							 M86.383,292.323h38.89c-1.131-9.723-9.496-17.184-19.445-17.184C95.88,275.139,87.514,282.601,86.383,292.323z"/>
					</g>
					<g>
						<path style="fill:#FFFFFF;" d="M105.828,268.356c-5.879,0-10.853-4.974-10.853-10.853s4.974-10.853,10.853-10.853
							s10.853,4.974,10.853,10.853S111.707,268.356,105.828,268.356z M105.828,251.173c-3.391,0-6.331,2.939-6.331,6.331
							c0,3.391,2.939,6.331,6.331,6.331s6.331-2.939,6.331-6.331C112.159,254.112,109.22,251.173,105.828,251.173z"/>
					</g>
				</g>
			</g>
		</g>
	</g>
</g>
<g style="display:none;">
	<g style="display:inline;">
		<path style="fill:#F6A307;" d="M280.761,88.738c0,0-14.017,11.2-14.297,52.166H326.5c0,0-0.203-36.602-12.55-50.9L280.761,88.738z
			"/>
		<polygon style="fill:#F6C7BB;" points="289.908,130.85 288.243,153.041 305.341,153.041 302.93,130.603 		"/>
		<polygon style="fill:#E9A89C;" points="289.692,133.727 304.334,143.672 302.93,130.603 		"/>
		<g>
			<circle style="fill:#F6C7BB;" cx="278.151" cy="117.242" r="5.876"/>
			
				<path style="fill:none;stroke:#1B0807;stroke-width:0.6658;stroke-linecap:round;stroke-linejoin:round;stroke-miterlimit:10;" d="
				M274.84,116.322c0,0,2.368-1.071,4.479,3.049"/>
		</g>
		<g>
			<circle style="fill:#F6C7BB;" cx="315.568" cy="117.242" r="5.876"/>
			
				<path style="fill:none;stroke:#1B0807;stroke-width:0.6658;stroke-linecap:round;stroke-linejoin:round;stroke-miterlimit:10;" d="
				M318.879,116.322c0,0-2.368-1.071-4.479,3.049"/>
		</g>
		<ellipse style="fill:#F6A307;" cx="296.792" cy="103.37" rx="21.963" ry="21.417"/>
		<path style="fill:#F6C7BB;" d="M278.231,100.975c0,0-2.315,34.124,17.803,34.124c21.758,0,19.477-34.124,19.477-34.124
			s-0.123-14.89-18.807-14.89C279.575,86.085,278.231,100.975,278.231,100.975z"/>
		<g>
			
				<path style="fill:none;stroke:#1B0807;stroke-width:0.6658;stroke-linecap:round;stroke-linejoin:round;stroke-miterlimit:10;" d="
				M292.479,125.241c0,0,3.235,1.807,6.469,0"/>
			<path style="fill:#1B0807;" d="M304.391,106.781c0,0-4-0.778-4.185,1.375c0,0-0.095,1.46,3.401,2.049
				c3.496,0.589,4.888,0.467,5.302-0.877C309.322,107.984,306.28,106.955,304.391,106.781z"/>
			<path style="fill:#1B0807;" d="M287.157,106.874c0,0-4.07,0.181-3.746,2.317c0,0,0.25,1.442,3.786,1.195
				c3.536-0.246,4.862-0.691,4.948-2.095C292.232,106.888,289.033,106.601,287.157,106.874z"/>
			<path style="fill:#1B0807;" d="M290.193,115.353c0,0.868-0.704,1.572-1.572,1.572c-0.868,0-1.572-0.704-1.572-1.572
				s0.704-1.572,1.572-1.572C289.489,113.782,290.193,114.485,290.193,115.353z"/>
			<path style="fill:#1B0807;" d="M305.614,115.353c0,0.868-0.704,1.572-1.572,1.572s-1.572-0.704-1.572-1.572
				s0.704-1.572,1.572-1.572S305.614,114.485,305.614,115.353z"/>
			
				<polyline style="fill:none;stroke:#1B0807;stroke-width:0.6658;stroke-linecap:round;stroke-linejoin:round;stroke-miterlimit:10;" points="
				294.906,119.425 294.906,121.984 296.986,121.984 			"/>
		</g>
		<path style="fill:#F6A307;" d="M276.124,104.699c0,0,32.821-0.276,33.569-16.565c0,0-10.595-7.749-21.449-3.005
			C277.389,89.873,276.124,104.699,276.124,104.699z"/>
		<path style="fill:#F6A307;" d="M307.436,85.768c0,0-1.265,15.009,10.437,21.101C317.873,106.869,319.613,92.733,307.436,85.768z"
			/>
	</g>
	<g style="display:inline;">
		<g>
			<path style="fill:#ED6F7D;" d="M278.661,151.958l-15.549,3.667c0,0,6.463,40.339,10.651,62.807h44.178
				c0,0,11.206-42.546,16.16-62.807l-17.868-4.759L278.661,151.958z"/>
			<path style="fill:#F6C7BB;" d="M296.961,143.596l-18.3,8.362c0,0,0.558,7.997,19.473,8.028c16.114,0.026,18.098-9.12,18.098-9.12
				L296.961,143.596z"/>
		</g>
		<g>
			<path style="fill:#ED6F7D;" d="M325.522,154.842c0,0,12.301-3.949,20.303,13.822c8.003,17.771,17.746,40.636,17.746,40.636
				l-16.484,1.433l-23.826-35.383L325.522,154.842z"/>
			<path style="fill:#F6C7BB;" d="M357.421,219.154h-53.492v-10.47l53.492-4.25c3.784,0,6.851,2.036,6.851,7.869l0,0
				C364.272,216.087,361.205,219.154,357.421,219.154z"/>
		</g>
		<g>
			<path style="fill:#ED6F7D;" d="M271.691,154.842c0,0-12.301-3.949-20.303,13.822S233.642,209.3,233.642,209.3l16.484,1.433
				l23.826-35.383L271.691,154.842z"/>
			<path style="fill:#F6C7BB;" d="M239.792,219.154h53.493v-10.47l-53.493-4.25c-3.784,0-6.851,2.036-6.851,7.869l0,0
				C232.941,216.087,236.008,219.154,239.792,219.154z"/>
		</g>
	</g>
</g>
<g>
	<g>
		<ellipse style="opacity:0.37;fill:#2F68B1;" cx="281.926" cy="268.33" rx="219.222" ry="219.222"/>
		<g>
			<path style="fill:#22B573;" d="M510.752,249.602l-28.025,0.088c-2.704,0.004-4.898-2.185-4.902-4.888l0,0
				c-0.004-2.703,2.185-4.897,4.888-4.901l28.025-0.088c2.704-0.004,4.898,2.185,4.902,4.888l0,0
				C515.644,247.404,513.456,249.598,510.752,249.602z"/>
			<path style="fill:#393487;" d="M92.936,321.355l-48.657,0.088c-2.704,0.004-4.898-2.184-4.902-4.887l0,0
				c-0.004-2.703,2.185-4.897,4.888-4.901l48.657-0.088c2.704-0.004,4.898,2.184,4.902,4.887l0,0
				C97.828,319.156,95.64,321.351,92.936,321.355z"/>
			<path style="fill:#22B573;" d="M453.854,38.35l-7.018,0.01c-1.844,0.003-3.341-1.49-3.343-3.334l-0.009-6.586
				c-0.003-1.844,1.49-3.34,3.334-3.343l7.018-0.01c1.844-0.002,3.34,1.49,3.343,3.334l0.009,6.586
				C457.191,36.851,455.698,38.348,453.854,38.35z"/>
			<path style="fill:#393487;" d="M140.256-10.439l-7.018,0.009c-1.844,0.003-3.34-1.49-3.343-3.334l-0.009-6.585
				c-0.002-1.844,1.49-3.341,3.334-3.343l7.018-0.009c1.844-0.003,3.341,1.49,3.343,3.334l0.009,6.585
				C143.592-11.938,142.099-10.441,140.256-10.439z"/>
		</g>
		<g>
			<g>
				<circle style="fill:#2F68B1;" cx="461.479" cy="140.971" r="44.921"/>
				
					<polyline style="fill:none;stroke:#FFFFFF;stroke-width:2.6287;stroke-linecap:round;stroke-linejoin:round;stroke-miterlimit:10;" points="
					441.494,143.222 458.308,155.508 478.315,130.098 				"/>
			</g>
			<g style="display:none;">
				<g style="display:inline;">
					<g>
						<g>
							<path style="fill:#393487;" d="M350.863,80.827H249.565c-3.346,0-6.058-2.712-6.058-6.058V9.542
								c0-3.346,2.712-6.058,6.058-6.058h101.298c3.346,0,6.059,2.712,6.059,6.058v65.227
								C356.922,78.115,354.209,80.827,350.863,80.827z"/>
							<path style="fill:#393487;" d="M280.596,73.279l15.118,21.635c1.573,2.251,4.909,2.237,6.463-0.026l14.844-21.61
								L280.596,73.279L280.596,73.279z"/>
						</g>
					</g>
				</g>
				<g style="display:inline;">
					<path style="fill:#FFFFFF;" d="M295.191,21.271l-2.738,7.615h-3.617l-3.635-10.755c-0.381-1.126-1.438-1.885-2.627-1.885
						h-9.319c-0.895,0-1.62,0.725-1.62,1.62l0,0c0,0.895,0.725,1.62,1.62,1.62h8.985l3.177,9.4h-3.863
						c-1.526,0-2.614,1.479-2.161,2.936l6.08,19.528c0.295,0.946,1.17,1.59,2.161,1.59h25.653c0.957,0,1.81-0.602,2.132-1.503
						l6.96-19.528c0.525-1.473-0.567-3.023-2.132-3.023h-2.814l-19.16-8.902C297.068,19.424,295.641,20.019,295.191,21.271z
						 M298.005,23.673l11.22,5.211H296.13L298.005,23.673z M312.446,49.481h-23.927l-5.336-17.135h35.372L312.446,49.481z"/>
					<path style="fill:#FFFFFF;" d="M309.839,55.73c-3.445,0-6.237,2.793-6.237,6.237c0,3.444,2.792,6.237,6.237,6.237
						s6.237-2.792,6.237-6.237S313.283,55.73,309.839,55.73z M309.839,64.744c-1.532,0-2.778-1.245-2.778-2.778
						c0-1.532,1.245-2.778,2.778-2.778c1.533,0,2.778,1.245,2.778,2.778C312.617,63.499,311.37,64.744,309.839,64.744z"/>
					<path style="fill:#FFFFFF;" d="M291.027,55.73c-3.445,0-6.237,2.793-6.237,6.237c0,3.444,2.792,6.237,6.237,6.237
						s6.237-2.792,6.237-6.237S294.472,55.73,291.027,55.73z M291.027,64.744c-1.532,0-2.778-1.245-2.778-2.778
						c0-1.532,1.245-2.778,2.778-2.778s2.778,1.245,2.778,2.778C293.804,63.499,292.559,64.744,291.027,64.744z"/>
				</g>
			</g>
			<g>
				<g>
					<ellipse style="fill:#22B573;" cx="121.08" cy="94.549" rx="52.476" ry="52.476"/>
				</g>
				<path style="fill:#FFFFFF;" d="M121.076,79.867c3.135,0,5.685,2.55,5.685,5.683h6.532c0-5.597-3.806-10.276-8.95-11.715v-3.548
					c0-1.804-1.462-3.266-3.266-3.266l0,0c-1.804,0-3.266,1.462-3.266,3.266v3.548c-7.361,2.059-11.982,10.753-6.632,19.277
					c2.069,3.296,5.897,4.73,9.787,4.655c3.186-0.061,5.795,2.512,5.795,5.684c0,3.135-2.55,5.685-5.685,5.685
					c-3.135,0-5.685-2.55-5.685-5.685h-6.531c0,5.597,3.806,10.277,8.95,11.716v3.649c0,1.804,1.462,3.266,3.266,3.266l0,0
					c1.804,0,3.266-1.462,3.266-3.266v-3.649c7.361-2.059,11.982-10.755,6.633-19.277c-2.069-3.296-5.898-4.73-9.789-4.656
					c-3.185,0.06-5.794-2.512-5.794-5.684C115.391,82.416,117.941,79.867,121.076,79.867z"/>
			</g>
		</g>
	</g>
	<g>
		<g>
			<g>
				<g>
					<path style="fill:#F6A307;" d="M232.335,122.165c0,0-41.313,33.012-42.14,153.756h176.953c0,0-0.598-107.882-36.991-150.023
						L232.335,122.165z"/>
					<polygon style="fill:#F6C7BB;" points="259.295,246.288 254.39,311.695 304.784,311.695 297.679,245.561 					"/>
					<polygon style="fill:#E9A89C;" points="258.659,254.769 301.817,284.08 297.679,245.561 					"/>
					<g>
						<circle style="fill:#F6C7BB;" cx="224.643" cy="206.179" r="17.318"/>
						
							<path style="fill:none;stroke:#1B0807;stroke-width:0.6658;stroke-linecap:round;stroke-linejoin:round;stroke-miterlimit:10;" d="
							M214.883,203.468c0,0,6.978-3.158,13.201,8.986"/>
					</g>
					<g>
						<circle style="fill:#F6C7BB;" cx="334.928" cy="206.179" r="17.318"/>
						
							<path style="fill:none;stroke:#1B0807;stroke-width:0.6658;stroke-linecap:round;stroke-linejoin:round;stroke-miterlimit:10;" d="
							M344.688,203.468c0,0-6.978-3.158-13.201,8.986"/>
					</g>
					<ellipse style="fill:#F6A307;" cx="279.587" cy="165.293" rx="64.734" ry="63.125"/>
					<path style="fill:#F6C7BB;" d="M224.878,158.235c0,0-6.824,100.579,52.472,100.579c64.13,0,57.406-100.579,57.406-100.579
						s-0.363-43.887-55.432-43.887C228.841,114.348,224.878,158.235,224.878,158.235z"/>
					<g>
						
							<path style="fill:none;stroke:#1B0807;stroke-width:0.6658;stroke-linecap:round;stroke-linejoin:round;stroke-miterlimit:10;" d="
							M266.875,229.757c0,0,9.534,5.326,19.068,0"/>
						<path style="fill:#1B0807;" d="M301.985,175.346c0,0-11.789-2.292-12.334,4.053c0,0-0.279,4.304,10.024,6.04
							c10.303,1.736,14.408,1.376,15.626-2.586C316.518,178.892,307.551,175.86,301.985,175.346z"/>
						<path style="fill:#1B0807;" d="M251.187,175.62c0,0-11.997,0.533-11.041,6.829c0,0,0.737,4.25,11.16,3.524
							s14.33-2.038,14.585-6.174C266.147,175.662,256.719,174.816,251.187,175.62z"/>
						<path style="fill:#1B0807;" d="M260.136,200.613c0,2.559-2.074,4.633-4.633,4.633c-2.559,0-4.633-2.074-4.633-4.633
							c0-2.559,2.074-4.633,4.633-4.633C258.061,195.98,260.136,198.055,260.136,200.613z"/>
						<path style="fill:#1B0807;" d="M305.59,200.613c0,2.559-2.074,4.633-4.633,4.633s-4.633-2.074-4.633-4.633
							c0-2.559,2.074-4.633,4.633-4.633S305.59,198.055,305.59,200.613z"/>
						
							<polyline style="fill:none;stroke:#1B0807;stroke-width:0.6658;stroke-linecap:round;stroke-linejoin:round;stroke-miterlimit:10;" points="
							274.027,212.614 274.027,220.156 280.158,220.156 						"/>
					</g>
					<path style="fill:#F6A307;" d="M218.669,169.21c0,0,96.736-0.815,98.942-48.824c0,0-31.228-22.84-63.221-8.856
						C222.398,125.513,218.669,169.21,218.669,169.21z"/>
					<path style="fill:#F6A307;" d="M310.959,113.413c0,0-3.729,44.237,30.763,62.195
						C341.722,175.608,346.85,133.942,310.959,113.413z"/>
				</g>
				<g>
					<g>
						<path style="fill:#ED6F7D;" d="M226.148,308.503l-45.829,10.807c0,0,19.05,118.896,31.392,185.118h130.211
							c0,0,33.03-125.401,47.629-185.118l-52.664-14.027L226.148,308.503z"/>
						<path style="fill:#F6C7BB;" d="M280.084,283.857l-53.936,24.645c0,0,1.646,23.572,57.395,23.662
							c47.495,0.077,53.343-26.882,53.343-26.882L280.084,283.857z"/>
					</g>
					<g>
						<path style="fill:#ED6F7D;" d="M364.266,317.002c0,0,36.255-11.638,59.843,40.739
							c23.587,52.378,52.306,119.772,52.306,119.772l-48.585,4.224l-70.226-104.289L364.266,317.002z"/>
						<path style="fill:#F6C7BB;" d="M458.287,506.559H300.622v-30.858l157.665-12.527c11.152,0,20.193,6,20.193,23.193l0,0
							C478.48,497.519,469.439,506.559,458.287,506.559z"/>
					</g>
					<g>
						<path style="fill:#ED6F7D;" d="M205.604,317.002c0,0-36.255-11.638-59.843,40.739S93.456,477.513,93.456,477.513l48.585,4.224
							l70.226-104.289L205.604,317.002z"/>
						<path style="fill:#F6C7BB;" d="M111.583,506.559h157.665v-30.858l-157.665-12.527c-11.152,0-20.193,6-20.193,23.193l0,0
							C91.39,497.519,100.43,506.559,111.583,506.559z"/>
					</g>
				</g>
			</g>
			<g>
				<path style="fill:#EDE5E2;" d="M391.436,507.143H183.908c-5.72,0-10.357-4.637-10.357-10.357V365.771
					c0-5.72,4.637-10.357,10.357-10.357h207.528c5.72,0,10.357,4.637,10.357,10.357v131.015
					C401.793,502.506,397.156,507.143,391.436,507.143z"/>
				<circle style="fill:#FFFFFF;" cx="287.673" cy="431.279" r="13.988"/>
			</g>
		</g>
		
			<line style="fill:none;stroke:#1B0807;stroke-width:0.4886;stroke-linecap:round;stroke-linejoin:round;stroke-miterlimit:10;" x1="63.637" y1="507.143" x2="506.233" y2="507.143"/>
	</g>
</g>
</svg>
