<?xml version="1.0" encoding="iso-8859-1"?>
<!-- Generator: Adobe Illustrator 23.0.0, SVG Export Plug-In . SVG Version: 6.00 Build 0)  -->
<svg version="1.1" id="Capa_1" xmlns="http://www.w3.org/2000/svg" xmlns:xlink="http://www.w3.org/1999/xlink" x="0px" y="0px"
	 viewBox="0 0 547 515.22" style="enable-background:new 0 0 547 515.22;" xml:space="preserve">
<g style="display:none;">
	<g style="display:inline;">
		<g>
			<defs>
				<rect id="SVGID_1_" x="-16.214" y="93.285" width="605.214" height="417.046"/>
			</defs>
			<clipPath id="SVGID_2_">
				<use xlink:href="#SVGID_1_"  style="overflow:visible;"/>
			</clipPath>
			<g style="clip-path:url(#SVGID_2_);">
				<path style="fill:#FBE8F3;" d="M234.616,505.178c32.102,23.777,70.215,36.342,109.59,36.511
					c34.187,0.146,100.58,1.018,149.943-44.742c102.16-94.704,36.81-277.101-165.934-289.824
					C125.47,194.4,20.023,277.156,16.855,349.833c-0.33,7.57,0.016,14.95,0.901,22.095c7.113,57.442,54.869,99.512,110.401,100.553
					C160.113,473.081,200.589,479.976,234.616,505.178z"/>
				<path style="fill:#FBE8F3;" d="M497.807,231.047c-2.679-1.929-4.941-4.386-6.881-7.057
					c-5.478-7.541-25.792-32.025-61.933-37.385c-42.855-6.356-60.611-7.075-57.441-28.864c3.17-21.789,56.075-54.745,107.606-31.551
					c51.531,23.194,63.843,64.103,57.884,85.338C531.02,232.987,513.08,242.047,497.807,231.047z"/>
				<path style="fill:#FBE8F3;" d="M187.7,161.363c0,0,40.4-1.543,42.533-32.635c2.133-31.092-76.142-15.914-79.812,17.922
					C147.666,172.05,187.7,161.363,187.7,161.363z"/>
			</g>
		</g>
		<g>
			<g>
				<path style="fill:#FCC506;" d="M130.723,113.584H64.479c-1.655,0-2.997-1.342-2.997-2.997l0,0c0-1.655,1.342-2.997,2.997-2.997
					h66.244c1.655,0,2.997,1.342,2.997,2.997l0,0C133.72,112.243,132.378,113.584,130.723,113.584z"/>
				<path style="fill:#FCC506;" d="M529.674,301.603h-47.034c-1.655,0-2.997-1.342-2.997-2.997l0,0c0-1.655,1.342-2.997,2.997-2.997
					h47.034c1.655,0,2.997,1.342,2.997,2.997l0,0C532.671,300.261,531.329,301.603,529.674,301.603z"/>
				<path style="fill:#13509D;" d="M390.058,257.949h-4.807c-1.254,0-2.27-1.016-2.27-2.27v-4.443c0-1.254,1.016-2.27,2.27-2.27
					h4.807c1.254,0,2.269,1.016,2.269,2.27v4.443C392.328,256.933,391.312,257.949,390.058,257.949z"/>
				<path style="fill:#13509D;" d="M76.317,416.813H71.51c-1.254,0-2.269-1.016-2.269-2.269v-4.443c0-1.254,1.016-2.27,2.269-2.27
					h4.807c1.254,0,2.27,1.016,2.27,2.27v4.443C78.587,415.797,77.571,416.813,76.317,416.813z"/>
			</g>
			<g>
				<g>
					<g>
						<g>
							<g>
								<g>
									<g>
										<g>
											<g>
												<g>
													<path style="fill:#EA4D79;" d="M469.837,142.695h-85.842c-8.338,0-15.097-6.759-15.097-15.097V47.791
														c0-6.321,5.124-11.445,11.446-11.445h89.493c6.321,0,11.446,5.124,11.446,11.445v83.458
														C481.283,137.57,476.158,142.695,469.837,142.695z"/>
												</g>
											</g>
										</g>
									</g>
								</g>
							</g>
						</g>
					</g>
					<g>
						<path style="fill:#FFFFFF;" d="M425.425,58.508c-13.737,0.077-24.811,11.276-24.733,25.014
							c0.047,8.311,4.241,16.049,11.179,20.625l-3.893,6.489c-1.633,2.735-0.739,6.276,1.997,7.909
							c0.9,0.537,1.93,0.819,2.978,0.815h24.946c3.185,0.012,5.778-2.56,5.79-5.746c0.004-1.049-0.278-2.078-0.815-2.978
							l-3.893-6.489c11.468-7.563,14.633-22.991,7.07-34.459C441.474,62.749,433.736,58.554,425.425,58.508z M437.898,113.591
							h-24.946l4.11-6.849c5.429,1.954,11.37,1.954,16.799,0L437.898,113.591z M425.425,102.415
							c-10.552,0-19.106-8.554-19.106-19.106c0-10.552,8.554-19.106,19.106-19.106s19.106,8.554,19.106,19.106l0,0
							C444.531,93.861,435.977,102.415,425.425,102.415z"/>
						<path style="fill:#FFFFFF;" d="M425.425,68.89c-8.004,0-14.491,6.488-14.491,14.492s6.488,14.492,14.492,14.492
							c8.004,0,14.492-6.488,14.492-14.492c0-0.024,0-0.048,0-0.072C439.877,75.334,433.401,68.89,425.425,68.89z M425.425,92.105
							c-4.818,0-8.724-3.906-8.723-8.724c0-4.818,3.906-8.724,8.724-8.724c4.79,0,8.684,3.862,8.723,8.652
							c0,4.818-3.906,8.724-8.724,8.724V92.105z"/>
					</g>
				</g>
				<g>
					<g>
						<g>
							<g>
								<g>
									<g>
										<path style="fill:#13509D;" d="M94.041,275.461H31.354c-6.089,0-11.025-4.936-11.025-11.025v-58.281
											c0-4.616,3.742-8.358,8.358-8.358h65.354c4.616,0,8.358,3.742,8.358,8.358v60.947
											C102.4,271.718,98.657,275.461,94.041,275.461z"/>
									</g>
								</g>
							</g>
						</g>
					</g>
					<g>
						<path style="fill:#FFFFFF;" d="M80.106,242.978l-4.872-4.871c-0.87-0.957-2-1.479-3.131-1.479
							c-1.131,0-2.262,0.522-3.131,1.392l-2.784,2.784c-0.174-0.087-0.348-0.174-0.522-0.261c-0.348-0.174-0.609-0.261-0.87-0.435
							c-2.61-1.653-4.958-3.827-7.22-6.611c-1.044-1.305-1.827-2.523-2.261-3.567c0.696-0.609,1.305-1.305,1.914-1.914
							c0.261-0.261,0.522-0.522,0.783-0.783c0.957-0.957,1.479-2.088,1.479-3.218c0-1.131-0.522-2.262-1.479-3.218l-2.436-2.436
							c-0.261-0.261-0.522-0.522-0.783-0.87c-0.522-0.522-1.131-1.131-1.653-1.653c-0.87-0.87-2.001-1.392-3.132-1.392
							c-1.131,0-2.175,0.435-3.131,1.392l-3.045,3.045c-1.131,1.131-1.827,2.609-2.001,4.262c-0.174,2.61,0.522,5.045,1.131,6.611
							c1.392,4.001,3.567,7.568,6.785,11.395c3.915,4.61,8.525,8.264,13.918,10.873c2.001,0.957,4.784,2.088,7.829,2.349
							c0.174,0,0.348,0,0.609,0c2.088,0,3.827-0.783,5.219-2.262c0,0,0,0,0.087-0.087c0.435-0.522,0.957-1.044,1.566-1.566
							c0.348-0.348,0.783-0.783,1.131-1.131C81.933,247.414,81.933,244.804,80.106,242.978z M78.105,247.501
							c-0.348,0.348-0.696,0.696-1.044,1.044c-0.609,0.522-1.131,1.131-1.74,1.74c-0.87,0.87-1.827,1.305-3.131,1.305
							c-0.174,0-0.261,0-0.435,0c-2.609-0.174-5.045-1.218-6.785-2.088c-4.958-2.436-9.308-5.828-12.961-10.177
							c-2.958-3.567-4.958-6.959-6.35-10.526c-0.87-2.088-1.218-3.74-1.044-5.393c0.087-0.957,0.435-1.827,1.218-2.522l2.958-2.958
							c0.261-0.261,0.696-0.609,1.218-0.609s0.87,0.261,1.218,0.609c0.522,0.522,1.044,1.044,1.566,1.566
							c0.261,0.261,0.522,0.609,0.87,0.87l2.436,2.436c0.261,0.261,0.609,0.783,0.609,1.218c0,0.522-0.348,0.957-0.609,1.218
							c-0.261,0.261-0.522,0.522-0.783,0.783c-0.783,0.783-1.479,1.479-2.175,2.175c0,0,0,0-0.087,0.087
							c-0.87,0.87-0.696,1.653-0.522,2.175v0.087c0.609,1.566,1.566,2.958,2.87,4.697c2.436,3.044,5.045,5.393,7.916,7.22
							c0.348,0.261,0.783,0.435,1.131,0.609c0.348,0.174,0.609,0.261,0.87,0.435l0.087,0.087c0.87,0.435,1.74,0.261,2.436-0.435
							l3.044-3.044c0.261-0.261,0.696-0.609,1.218-0.609c0.435,0,0.87,0.348,1.131,0.609l4.871,4.871
							C78.888,245.761,78.888,246.631,78.105,247.501z"/>
					</g>
				</g>
			</g>
		</g>
	</g>
	<g style="display:inline;">
		<g>
			<g>
				<path style="fill:#020203;" d="M250.045,416.338h-93.902c-19.895,0-36.023-16.128-36.023-36.023v-121.4
					c0-19.895,16.128-36.023,36.023-36.023h93.902c19.895,0,36.023,16.128,36.023,36.023v121.4
					C286.068,400.21,269.94,416.338,250.045,416.338z"/>
				<path style="fill:#020203;" d="M158.003,479.776h106.834c8.239,0,14.918,6.679,14.918,14.918l0,0
					c0,8.239-6.679,14.918-14.918,14.918H158.003c-8.239,0-14.918-6.679-14.918-14.918l0,0
					C143.085,486.455,149.764,479.776,158.003,479.776z"/>
			</g>
			<g>
				<g>
					<g>
						<path style="fill:#1B0807;" d="M215.11,77.307l-10.77,6.757c-10.57,6.632-24.515,3.44-31.147-7.13l-8.388-12.979
							c-6.632-10.57-3.44-24.515,7.13-31.147l10.77-6.758c10.57-6.632,24.515-3.44,31.147,7.13l8.388,12.979
							C228.873,56.73,225.68,70.675,215.11,77.307z"/>
						
							<rect x="200.565" y="79.199" transform="matrix(0.8471 -0.5315 0.5315 0.8471 -12.249 125.6747)" style="fill:#EA4D79;" width="23.378" height="9.846"/>
					</g>
					<ellipse style="fill:#1B0807;" cx="242.552" cy="129.712" rx="52.464" ry="52.29"/>
					<g>
						<path style="fill:#F29476;" d="M280.326,149.211c2.187,6.571,9.287,10.125,15.859,7.939
							c6.571-2.187,10.126-9.287,7.939-15.859c-2.187-6.571-9.287-10.126-15.859-7.939
							C281.693,135.539,278.139,142.639,280.326,149.211z"/>
					</g>
					<path style="fill:#1B0807;" d="M234.159,85.763c0,0,16.904-10.593,47.342,5.608c27.77,14.781,5.659,35.427,5.659,35.427
						L234.159,85.763z"/>
					<path style="fill:#1B0807;" d="M190.677,134.883c1.678,26.619,26.03,47.684,53.965,46.929
						c27.936-0.755,49.998-22.98,49.278-49.642c-0.72-26.662-23.951-47.664-51.887-46.909
						C214.098,86.016,188.262,96.578,190.677,134.883z"/>
					<polygon style="fill:#F8BA9E;" points="264.125,181.521 264.432,239.594 219.297,238.38 228.598,152.728 					"/>
					<polygon style="fill:#F29476;" points="264.234,207.817 238.863,181.832 264.155,184.258 					"/>
					<path style="fill:#F8BA9E;" d="M286.58,103.755c3.377,2.701,4.184,7.157,6.545,10.763c3.816,5.83,8.356,34.385,4.283,47.798
						c-5.297,17.442-19.003,30.079-41.804,26.379c0,0-27.258-2.009-33.779-36.289C211.435,97.787,257.661,80.624,286.58,103.755z"/>
					<g>
						
							<path style="fill:none;stroke:#1B0807;stroke-width:0.3783;stroke-linecap:round;stroke-linejoin:round;stroke-miterlimit:10;" d="
							M283.113,144.531l2.584,8.502c0.176,0.709-0.236,1.432-0.937,1.641l-3.214,0.685"/>
						<path style="fill:#1B0807;" d="M262.033,141.08c0.18,1.64,1.656,2.824,3.296,2.644c1.641-0.18,2.824-1.656,2.644-3.296
							c-0.18-1.641-1.656-2.824-3.297-2.644C263.037,137.963,261.853,139.439,262.033,141.08z"/>
						<path style="fill:#1B0807;" d="M287.979,139.538c0.18,1.64,1.656,2.824,3.296,2.644c1.641-0.18,2.824-1.656,2.644-3.296
							c-0.18-1.641-1.656-2.824-3.296-2.644C288.983,136.421,287.799,137.897,287.979,139.538z"/>
						
							<path style="fill:none;stroke:#1B0807;stroke-width:0.3783;stroke-linecap:round;stroke-linejoin:round;stroke-miterlimit:10;" d="
							M270.345,158.936c0,0,3.682,4.632,11.2,2.848"/>
						<path style="fill:#1B0807;" d="M249.492,128.661c0,0,8.086-3.747,17.701-3.595l0.807,2.912c0,0-9.258,0.605-17.341,3.824
							L249.492,128.661z"/>
						<path style="fill:#1B0807;" d="M295.377,126.459c0,0-5.551-3.184-11.603-2.394l-0.162,2.945c0,0,5.916-0.013,11.403,2.646
							L295.377,126.459z"/>
					</g>
					<g>
						<path style="fill:#F8BA9E;" d="M203.002,153.2c2.187,6.571,9.287,10.126,15.859,7.939c6.571-2.187,10.126-9.287,7.939-15.859
							c-2.187-6.571-9.287-10.126-15.859-7.939C204.369,139.528,200.814,146.628,203.002,153.2z"/>
						
							<path style="fill:none;stroke:#F29476;stroke-width:0.3783;stroke-linecap:round;stroke-linejoin:round;stroke-miterlimit:10;" d="
							M210.153,147.16c0,0,4.748,0,9.37,4.847"/>
					</g>
					<path style="fill:#1B0807;" d="M219.523,120.347h81.495c0,0-4.872-39.425-51.526-42.457l-29.16,21.666L219.523,120.347z"/>
					<polygon style="fill:#1B0807;" points="232.053,111.219 226.799,148.308 211.307,132.707 214.9,111.219 					"/>
				</g>
				<g>
					<path style="fill:#13509D;" d="M181.896,418.378c0,0-32.385,90.147,99.661,91.803h135.967v-26.24
						c0-21.973-15.099-41.066-36.48-46.131l-82.035-19.432H181.896z"/>
					
						<path style="fill:none;stroke:#1B0807;stroke-width:0.3783;stroke-linecap:round;stroke-linejoin:round;stroke-miterlimit:10;" d="
						M281.545,441.228l47.132,12.614c18.493,6.238,30.945,23.579,30.945,43.096v12.673"/>
				</g>
				<g>
					<g>
						<path style="fill:#F8BA9E;" d="M281.545,310.953l31.898,102.231c5.228,13.401,20.696,19.591,33.726,13.497l0,0
							c11.038-5.162,16.714-17.557,13.411-29.286l-29.522-104.849L281.545,310.953z"/>
						<path style="fill:#EA4D79;" d="M256.561,222.822c0,0,66.553-15.005,85.132,75.912c0,0-28.875,16.26-65.306,20.518
							L256.561,222.822z"/>
					</g>
					<g>
						<path style="fill:#EA4D79;" d="M234.159,218.258c0,0-54.881,16.321-61.926,32.807c-12.58,29.441,9.663,167.314,9.663,167.314
							h117.113l11.668-85.953c0,0,10.077-38.884,2.02-75.391c-4.17-18.896-20.202-32.874-39.454-34.822L234.159,218.258z"/>
						<path style="fill:#F8BA9E;" d="M207.945,227.604c0,0,6.635-4.189,26.214-9.346l38.553,3.901c0,0,20.68,28.206-19.529,28.732
							C212.974,251.417,207.945,227.604,207.945,227.604z"/>
						
							<path style="fill:none;stroke:#1B0807;stroke-width:0.3783;stroke-linecap:round;stroke-linejoin:round;stroke-miterlimit:10;" d="
							M314.488,310.398c0,0,2.884-18.955,0.56-38.432"/>
					</g>
					<g>
						<g>
							<path style="fill:#F8BA9E;" d="M223.572,299.517l39.362,99.596c4.345,13.713-3.808,28.242-17.775,31.68l0,0
								c-11.832,2.913-24.033-3.171-28.826-14.373l-42.854-100.142L223.572,299.517z"/>
							<path style="fill:#EA4D79;" d="M198.61,232.539c0,0-58.768,12.1-33.636,99.681c0,0,38.205-1.026,71.714-15.943
								L198.61,232.539z"/>
							
								<line style="fill:none;stroke:#1B0807;stroke-width:0.3783;stroke-linecap:round;stroke-linejoin:round;stroke-miterlimit:10;" x1="231.119" y1="318.613" x2="220.332" y2="286.663"/>
						</g>
						<g>
							<path style="fill:#F8BA9E;" d="M335.065,369.054l-98.505,16.873c-15.177,2.012-24.14,18.067-17.888,32.042l0,0
								c4.865,10.876,17.259,16.202,28.498,12.245l91.507-33.08L335.065,369.054z"/>
							<path style="fill:#F8BA9E;" d="M335.065,369.054c0,0,35.181-10.522,46.55,7.953c8.06,13.098,6.299,27.393,4.591,34.604
								c-0.657,2.772-3.1,4.727-5.949,4.727l0,0c-3.635,0-6.464-3.159-6.064-6.772l1.027-9.28c0,0-35.427,18.752-36.544-3.152
								L335.065,369.054z"/>
						</g>
					</g>
					<g>
						<path style="fill:#020203;" d="M257.512,439.035l75.444-0.512l-0.063-10.888l-66.43,0.459
							c-2.106,0.012-4.028,1.202-4.978,3.081L257.512,439.035z"/>
						<g>
							<path style="fill:#202121;" d="M500.373,344.46l-46.723,83.749c-3.592,6.439-10.388,10.43-17.762,10.43H313.111
								l47.497-93.275c1.407-2.763,4.238-4.51,7.339-4.529l129.65-0.807C499.883,340.014,501.383,342.41,500.373,344.46z"/>
							<path style="fill:#FFFFFF;" d="M400.578,387.293c-3.337,5.857-1.76,13.046,3.522,16.055c5.282,3.009,12.269,0.7,15.606-5.158
								c3.337-5.858,1.76-13.046-3.522-16.055C410.902,379.126,403.914,381.436,400.578,387.293z"/>
						</g>
					</g>
				</g>
			</g>
		</g>
		<g>
			<g>
				
					<line style="fill:none;stroke:#0D0C0D;stroke-width:0.4875;stroke-linecap:round;stroke-linejoin:round;stroke-miterlimit:10;" x1="531.466" y1="510.331" x2="42.359" y2="510.331"/>
			</g>
		</g>
	</g>
</g>
<g style="display:none;">
	<g style="display:inline;">
		<g>
			<g>
				<defs>
					<rect id="SVGID_3_" x="11.944" y="122.867" width="567.056" height="390.751"/>
				</defs>
				<clipPath id="SVGID_4_">
					<use xlink:href="#SVGID_3_"  style="overflow:visible;"/>
				</clipPath>
				<g style="clip-path:url(#SVGID_4_);">
					<path style="fill:#FBE8F3;" d="M354.395,344.729c-22.662-27.894-55.701-66.034-90.015-74.83
						c-39.543-10.137-95.731-7.48-137.992,24.003c-100.5,74.871-94.003,233.25,79.833,289.647
						c173.836,56.397,284.221,7.844,303.223-54.781c1.979-6.523,3.327-13.031,4.153-19.456
						c6.639-51.647-25.576-98.981-73.737-112.298C412.147,389.35,378.415,374.294,354.395,344.729z"/>
					<path style="fill:#FBE8F3;" d="M413.846,240.884c2.605,1.876,4.804,4.265,6.691,6.862c5.327,7.332,25.079,31.14,60.221,36.352
						c41.671,6.18,58.936,6.879,55.853,28.066c-3.083,21.187-54.525,53.232-104.632,30.679
						c-50.106-22.552-62.078-62.331-56.284-82.979C381.551,238.997,398.995,230.187,413.846,240.884z"/>
					<path style="fill:#FBE8F3;" d="M196.883,180.419c0,0-38.029,7.818-39.852,30.578c-2.331,29.107,71.341,14.91,74.78-16.792
						C234.392,170.406,196.883,180.419,196.883,180.419z"/>
				</g>
			</g>
			
				<line style="fill:none;stroke:#0D0C0D;stroke-width:0.4875;stroke-linecap:round;stroke-linejoin:round;stroke-miterlimit:10;" x1="57.042" y1="515.22" x2="540.171" y2="515.22"/>
		</g>
		<g>
			<path style="fill:#FCC506;" d="M534.687,215.593h-42.801c-1.506,0-2.727-1.221-2.727-2.727v0c0-1.506,1.221-2.727,2.727-2.727
				h42.801c1.506,0,2.727,1.221,2.727,2.727v0C537.414,214.372,536.193,215.593,534.687,215.593z"/>
			<path style="fill:#FCC506;" d="M102.636,87.505H68.835c-1.506,0-2.727-1.221-2.727-2.727l0,0c0-1.506,1.221-2.727,2.727-2.727
				h33.801c1.506,0,2.727,1.221,2.727,2.727l0,0C105.363,86.284,104.142,87.505,102.636,87.505z"/>
			<path style="fill:#13509D;" d="M529.6,389.335h-4.375c-1.141,0-2.065-0.925-2.065-2.065v-4.043c0-1.141,0.925-2.065,2.065-2.065
				h4.375c1.141,0,2.065,0.925,2.065,2.065v4.043C531.666,388.411,530.741,389.335,529.6,389.335z"/>
			<path style="fill:#13509D;" d="M87.184,168.078H82.81c-1.141,0-2.065-0.925-2.065-2.065v-4.043c0-1.141,0.925-2.065,2.065-2.065
				h4.375c1.141,0,2.065,0.925,2.065,2.065v4.043C89.25,167.154,88.325,168.078,87.184,168.078z"/>
		</g>
	</g>
	<g style="display:inline;">
		<g>
			<path style="fill:#EA4D79;" d="M435.295,466.871H157.499c-15.622,0-28.286-12.664-28.286-28.286V35.03
				c0-15.622,12.664-28.287,28.286-28.287h277.796c15.622,0,28.286,12.664,28.286,28.287v403.554
				C463.582,454.207,450.917,466.871,435.295,466.871z"/>
			<g>
				<g>
					<circle style="fill:#FFFFFF;" cx="296.397" cy="152.099" r="105.981"/>
					<g style="display:none;">
						<defs>
							
								<ellipse id="SVGID_5_" transform="matrix(0.1587 -0.9873 0.9873 0.1587 99.1963 420.6082)" cx="296.397" cy="152.099" rx="92.009" ry="92.009"/>
						</defs>
						<clipPath id="SVGID_6_" style="display:inline;">
							<use xlink:href="#SVGID_5_"  style="overflow:visible;"/>
						</clipPath>
						<g style="display:inline;clip-path:url(#SVGID_6_);">
							<path style="fill:#FCC506;" d="M278.17,198.216l-52.914,25.434c0,0,20.992,26.794,73.543,26.794s66.659-29.182,66.659-29.182
								l-49.252-23.38L278.17,198.216z"/>
							<g>
								<g>
									<circle style="fill:#F8BA9E;" cx="331.432" cy="136.08" r="10.634"/>
									
										<path style="fill:none;stroke:#F29476;stroke-width:0.2878;stroke-linecap:round;stroke-linejoin:round;stroke-miterlimit:10;" d="
										M337.424,134.415c0,0-4.285-1.939-8.106,5.518"/>
								</g>
								<g>
									<circle style="fill:#F8BA9E;" cx="264.03" cy="136.08" r="10.634"/>
									
										<path style="fill:none;stroke:#F29476;stroke-width:0.2878;stroke-linecap:round;stroke-linejoin:round;stroke-miterlimit:10;" d="
										M258.037,134.415c0,0,4.285-1.939,8.106,5.518"/>
								</g>
								<g>
									<path style="fill:#F8BA9E;" d="M313.116,163.443c0,0-6.695,4.724-12.796,5.89c-6.101,1.166-12.032-2.375-12.107-2.418
										c-0.075-0.043-7.124-4.098-7.124-4.098l-2.918,35.398l0.79,0.651c10.344,8.533,25.257,8.634,35.716,0.242l1.53-1.228
										L313.116,163.443z"/>
								</g>
								<path style="fill:#F29476;" d="M275.316,164.613c0,0,12.929,20.47,24.693,17.824c12.281-2.762,17.33-20.238,17.33-20.238
									L275.316,164.613z"/>
								<path style="fill:#F8BA9E;" d="M329.946,115.408c0.068,13.423-1.79,25.015-3.663,33.246
									c-1.834,8.058-7.078,13.709-14.507,18.274l-1.353,0.832c-7.86,4.83-18.047,4.993-26.075,0.418l0,0
									c-8.097-4.615-13.782-10.725-15.565-19.353c-3.244-15.693-3.678-33.089-3.678-33.089s-4.558-36.307,30.413-35.826
									C330.49,80.392,329.946,115.408,329.946,115.408z"/>
								<g>
									<path style="fill:#1B0807;" d="M285.27,128.235c0,1.563-1.267,2.83-2.83,2.83c-1.563,0-2.83-1.267-2.83-2.83
										c0-1.563,1.267-2.83,2.83-2.83C284.003,125.405,285.27,126.671,285.27,128.235z"/>
									<path style="fill:#1B0807;" d="M313.037,128.235c0,1.563-1.267,2.83-2.83,2.83c-1.563,0-2.83-1.267-2.83-2.83
										c0-1.563,1.267-2.83,2.83-2.83C311.77,125.405,313.037,126.671,313.037,128.235z"/>
									
										<polyline style="fill:none;stroke:#1B0807;stroke-width:0.3304;stroke-linecap:round;stroke-linejoin:round;stroke-miterlimit:10;" points="
										298.799,138.875 293.756,138.875 293.756,128.127 									"/>
									<path style="fill:#741613;" d="M329.627,125.702c0,0-3.521,23.085-13.56,21.012c-2.003-0.413-3.672-0.891-5.128-1.387
										c-4.459-1.517-9.1-2.434-13.81-2.487l-0.704-0.008c-4.852-0.054-9.658,0.742-14.249,2.313
										c-1.742,0.596-3.686,1.176-5.588,1.568c-10.039,2.073-10.935-21.268-10.935-21.268s-4.867,18.297,1.275,32.368
										c3.862,8.847,9.461,13.268,14.82,15.391l-0.001,0.004c0.176,0.072,0.351,0.136,0.527,0.205
										c0.012,0.004,0.024,0.01,0.036,0.014c14.641,5.772,27.526,0.77,27.526,0.77l0-0.002c6.194-1.565,13.271-5.83,17.877-16.382
										C333.855,143.744,329.627,125.702,329.627,125.702z"/>
									<path style="fill:#1B0807;" d="M272.037,112.078c0,0,6.616-3.066,14.485-2.941l0.661,2.383c0,0-7.576,0.495-14.19,3.129
										L272.037,112.078z"/>
									<path style="fill:#1B0807;" d="M317.78,112.078c0,0-6.616-3.066-14.485-2.941l-0.661,2.383c0,0,7.576,0.495,14.19,3.129
										L317.78,112.078z"/>
									<path style="fill:#FFFFFF;" d="M289.431,147.565h13.693c0,0-0.769,4.765-6.846,4.765
										C290.2,152.331,289.431,147.565,289.431,147.565z"/>
								</g>
								<path style="fill:#741613;" d="M315.579,89.294c2.157,0.724,4.342,1.537,6.58,2.553c0,0-1.384-3.107-4.947-6.383
									c-2.38-2.188-4.237-4.825-5.571-7.77c-2.596-5.73-8.771-10.545-16.039-10.545c-7.528,0-13.928,5.439-16.363,11.556
									c-1.086,2.729-2.703,5.225-4.81,7.272c-3.17,3.081-4.426,5.87-4.426,5.87s1.43-0.829,4.032-1.867
									c0.002-0.001,0.005-0.002,0.008-0.004c0.475-0.189,1.03-0.389,1.581-0.589c3.176-0.807,5.061,1.118,5.061,1.118l0.032-0.032
									c3.052,3.361,8.546,5.045,14.884,5.045c6.138,0,11.51-1.743,14.616-5.025C310.288,90.439,312.482,88.694,315.579,89.294z"/>
								<path style="fill:#F29C7A;" d="M270.005,91.847c0,0,4.9,9.594,0,16.742l-4.352,16.857
									C265.653,125.446,261.404,103.554,270.005,91.847z"/>
								<path style="fill:#F29C7A;" d="M322.158,91.847c0,0-3.853,8.98,1.047,16.127l6.422,17.728
									C329.627,125.702,332.699,103.331,322.158,91.847z"/>
							</g>
						</g>
					</g>
				</g>
				<g>
					<path style="fill:#FCC506;" d="M373.186,389.611H219.608c-16.122,0-29.192-13.07-29.192-29.192l0,0
						c0-16.123,13.07-29.192,29.192-29.192h153.578c16.122,0,29.192,13.07,29.192,29.192l0,0
						C402.378,376.541,389.308,389.611,373.186,389.611z"/>
					<path style="fill:#FFFFFF;" d="M279.006,371.899c3.136,0.001,5.641-1.984,5.509-4.368l-0.375-6.784l0.005-0.004
						c7.762-2.805,16.261-2.798,24.018,0.02l-0.378,6.782c-0.133,2.383,2.37,4.371,5.506,4.372l8.96,0.005
						c3.47,0.002,6.117-2.413,5.415-4.998c-1.255-4.62-4.282-9.019-9.078-12.569c-12.069-8.932-31.49-9.229-43.984-0.648
						c-5.309,3.646-8.631,8.289-9.97,13.183c-0.707,2.585,1.938,5.004,5.41,5.006L279.006,371.899z"/>
				</g>
				
					<line style="fill:none;stroke:#FFFFFF;stroke-width:0.8675;stroke-linecap:round;stroke-linejoin:round;stroke-miterlimit:10;" x1="191.733" y1="309.698" x2="401.061" y2="309.698"/>
				<g>
					<path style="fill:#FFFFFF;" d="M260.127,276.528v13.49h-3.739l-5.126-6.128v6.128h-4.433v-13.49h3.738l5.127,6.128v-6.128
						H260.127z"/>
					<path style="fill:#FFFFFF;" d="M262.75,283.273c0-4.085,3.219-7.054,7.612-7.054c4.395,0,7.612,2.968,7.612,7.054
						s-3.218,7.053-7.612,7.053C265.969,290.327,262.75,287.359,262.75,283.273z M273.389,283.273c0-2.101-1.35-3.373-3.026-3.373
						s-3.025,1.272-3.025,3.373s1.349,3.373,3.025,3.373S273.389,285.374,273.389,283.273z"/>
					<path style="fill:#FFFFFF;" d="M292.644,290.019l-0.039-6.148l-2.929,4.934h-2.005l-2.929-4.721v5.936h-4.144v-13.49h3.738
						l4.395,7.188l4.278-7.188h3.738l0.039,13.49H292.644z"/>
					<path style="fill:#FFFFFF;" d="M313.249,286.299c0,2.351-1.985,3.719-5.705,3.719h-7.593v-13.49h7.208
						c3.719,0,5.453,1.484,5.453,3.527c0,1.252-0.636,2.293-1.869,2.91C312.323,283.543,313.249,284.7,313.249,286.299z
						 M304.422,279.708v2.004h2.12c1.021,0,1.484-0.347,1.484-1.002s-0.463-1.002-1.484-1.002H304.422z M308.662,285.779
						c0-0.694-0.501-1.06-1.503-1.06h-2.737v2.12h2.737C308.161,286.839,308.662,286.473,308.662,285.779z"/>
					<path style="fill:#FFFFFF;" d="M321.596,286.626h-1.233v3.392h-4.548v-13.49h6.494c3.759,0,6.148,1.966,6.148,5.088
						c0,1.946-0.926,3.411-2.544,4.24l2.833,4.163h-4.856L321.596,286.626z M322.02,280.036h-1.657v3.161h1.657
						c1.253,0,1.851-0.597,1.851-1.58S323.272,280.036,322.02,280.036z"/>
					<path style="fill:#FFFFFF;" d="M342.354,286.588v3.43h-11.216v-13.49h10.966v3.43h-6.495v1.581h5.705v3.276h-5.705v1.773
						H342.354z"/>
				</g>
				<g>
					<path style="fill:#FFFFFF;" d="M226.053,421.789c0,5.505-4.463,9.967-9.968,9.967s-9.968-4.462-9.968-9.967
						s4.463-9.968,9.968-9.968S226.053,416.284,226.053,421.789z"/>
					<path style="fill:#FFFFFF;" d="M279.594,421.789c0,5.505-4.462,9.967-9.967,9.967c-5.505,0-9.968-4.462-9.968-9.967
						s4.463-9.968,9.968-9.968C275.131,411.821,279.594,416.284,279.594,421.789z"/>
					<path style="fill:#FCC506;" d="M333.135,421.789c0,5.505-4.463,9.967-9.968,9.967c-5.505,0-9.967-4.462-9.967-9.967
						s4.462-9.968,9.967-9.968C328.672,411.821,333.135,416.284,333.135,421.789z"/>
					<path style="fill:#FCC506;" d="M386.676,421.789c0,5.505-4.463,9.967-9.968,9.967s-9.968-4.462-9.968-9.967
						s4.463-9.968,9.968-9.968S386.676,416.284,386.676,421.789z"/>
				</g>
			</g>
		</g>
		<g>
			<g>
				<g>
					<g>
						<g>
							<g>
								<g>
									<g>
										<path style="fill:#13509D;" d="M144.338,318.704H70.461c-7.176,0-12.993-5.817-12.993-12.993v-68.684
											c0-5.44,4.41-9.85,9.85-9.85h77.02c5.44,0,9.85,4.41,9.85,9.85v71.826C154.188,314.294,149.778,318.704,144.338,318.704z"
											/>
									</g>
								</g>
							</g>
						</g>
					</g>
				</g>
				<g>
					<g>
						<path style="fill:#FFFFFF;" d="M127.534,296.846H84.122c-1.357,0-2.261-0.904-2.261-2.261
							c0-13.34,10.853-23.967,23.967-23.967c13.114,0,23.967,10.853,23.967,23.967C129.795,295.715,128.891,296.846,127.534,296.846
							z M86.383,292.323h38.89c-1.131-9.723-9.496-17.184-19.445-17.184C95.88,275.139,87.514,282.601,86.383,292.323z"/>
					</g>
					<g>
						<path style="fill:#FFFFFF;" d="M105.828,268.356c-5.879,0-10.853-4.974-10.853-10.853s4.974-10.853,10.853-10.853
							c5.879,0,10.853,4.974,10.853,10.853S111.707,268.356,105.828,268.356z M105.828,251.173c-3.391,0-6.331,2.939-6.331,6.331
							c0,3.391,2.939,6.331,6.331,6.331c3.392,0,6.331-2.939,6.331-6.331C112.159,254.112,109.22,251.173,105.828,251.173z"/>
					</g>
				</g>
			</g>
		</g>
	</g>
</g>
<g style="display:none;">
	<g style="display:inline;">
		<path style="fill:#F6A307;" d="M280.761,88.738c0,0-14.017,11.2-14.297,52.166H326.5c0,0-0.203-36.602-12.55-50.9L280.761,88.738z
			"/>
		<polygon style="fill:#F6C7BB;" points="289.908,130.85 288.243,153.041 305.341,153.041 302.93,130.603 		"/>
		<polygon style="fill:#E9A89C;" points="289.692,133.727 304.334,143.672 302.93,130.603 		"/>
		<g>
			<circle style="fill:#F6C7BB;" cx="278.151" cy="117.242" r="5.876"/>
			
				<path style="fill:none;stroke:#1B0807;stroke-width:0.6658;stroke-linecap:round;stroke-linejoin:round;stroke-miterlimit:10;" d="
				M274.84,116.322c0,0,2.368-1.071,4.479,3.049"/>
		</g>
		<g>
			<circle style="fill:#F6C7BB;" cx="315.568" cy="117.242" r="5.876"/>
			
				<path style="fill:none;stroke:#1B0807;stroke-width:0.6658;stroke-linecap:round;stroke-linejoin:round;stroke-miterlimit:10;" d="
				M318.879,116.322c0,0-2.368-1.071-4.479,3.049"/>
		</g>
		<ellipse style="fill:#F6A307;" cx="296.792" cy="103.37" rx="21.963" ry="21.417"/>
		<path style="fill:#F6C7BB;" d="M278.231,100.975c0,0-2.315,34.124,17.803,34.124c21.758,0,19.477-34.124,19.477-34.124
			s-0.123-14.89-18.807-14.89C279.575,86.085,278.231,100.975,278.231,100.975z"/>
		<g>
			
				<path style="fill:none;stroke:#1B0807;stroke-width:0.6658;stroke-linecap:round;stroke-linejoin:round;stroke-miterlimit:10;" d="
				M292.479,125.241c0,0,3.235,1.807,6.469,0"/>
			<path style="fill:#1B0807;" d="M304.391,106.781c0,0-4-0.778-4.185,1.375c0,0-0.095,1.46,3.401,2.049
				c3.496,0.589,4.888,0.467,5.302-0.877C309.322,107.984,306.28,106.955,304.391,106.781z"/>
			<path style="fill:#1B0807;" d="M287.157,106.874c0,0-4.07,0.181-3.746,2.317c0,0,0.25,1.442,3.786,1.195
				c3.536-0.246,4.862-0.691,4.948-2.095C292.232,106.888,289.033,106.601,287.157,106.874z"/>
			<path style="fill:#1B0807;" d="M290.193,115.353c0,0.868-0.704,1.572-1.572,1.572c-0.868,0-1.572-0.704-1.572-1.572
				c0-0.868,0.704-1.572,1.572-1.572C289.489,113.782,290.193,114.485,290.193,115.353z"/>
			<path style="fill:#1B0807;" d="M305.614,115.353c0,0.868-0.704,1.572-1.572,1.572s-1.572-0.704-1.572-1.572
				c0-0.868,0.704-1.572,1.572-1.572S305.614,114.485,305.614,115.353z"/>
			
				<polyline style="fill:none;stroke:#1B0807;stroke-width:0.6658;stroke-linecap:round;stroke-linejoin:round;stroke-miterlimit:10;" points="
				294.906,119.425 294.906,121.984 296.986,121.984 			"/>
		</g>
		<path style="fill:#F6A307;" d="M276.124,104.699c0,0,32.821-0.276,33.569-16.565c0,0-10.595-7.749-21.449-3.005
			C277.389,89.873,276.124,104.699,276.124,104.699z"/>
		<path style="fill:#F6A307;" d="M307.436,85.768c0,0-1.265,15.009,10.437,21.101C317.873,106.869,319.613,92.733,307.436,85.768z"
			/>
	</g>
	<g style="display:inline;">
		<g>
			<path style="fill:#ED6F7D;" d="M278.661,151.958l-15.549,3.667c0,0,6.463,40.339,10.651,62.807h44.178
				c0,0,11.206-42.546,16.16-62.807l-17.868-4.759L278.661,151.958z"/>
			<path style="fill:#F6C7BB;" d="M296.961,143.596l-18.3,8.362c0,0,0.558,7.997,19.473,8.028c16.114,0.026,18.098-9.12,18.098-9.12
				L296.961,143.596z"/>
		</g>
		<g>
			<path style="fill:#ED6F7D;" d="M325.522,154.842c0,0,12.301-3.949,20.303,13.822c8.003,17.771,17.746,40.636,17.746,40.636
				l-16.484,1.433l-23.826-35.383L325.522,154.842z"/>
			<path style="fill:#F6C7BB;" d="M357.421,219.154h-53.492v-10.47l53.492-4.25c3.784,0,6.851,2.036,6.851,7.869l0,0
				C364.272,216.087,361.205,219.154,357.421,219.154z"/>
		</g>
		<g>
			<path style="fill:#ED6F7D;" d="M271.691,154.842c0,0-12.301-3.949-20.303,13.822s-17.746,40.636-17.746,40.636l16.484,1.433
				l23.826-35.383L271.691,154.842z"/>
			<path style="fill:#F6C7BB;" d="M239.792,219.154h53.493v-10.47l-53.493-4.25c-3.784,0-6.851,2.036-6.851,7.869l0,0
				C232.941,216.087,236.008,219.154,239.792,219.154z"/>
		</g>
	</g>
</g>
<g style="display:none;">
	<g style="display:inline;">
		
			<ellipse transform="matrix(0.7071 -0.7071 0.7071 0.7071 -109.6719 278.9858)" style="fill:#F9F0E7;" cx="281.93" cy="271.879" rx="219.224" ry="219.224"/>
		<g>
			<path style="fill:#ED6F7D;" d="M510.752,253.15l-28.025,0.088c-2.704,0.004-4.898-2.185-4.902-4.888l0,0
				c-0.004-2.703,2.185-4.897,4.888-4.901l28.025-0.088c2.704-0.004,4.898,2.185,4.902,4.888l0,0
				C515.644,250.952,513.456,253.146,510.752,253.15z"/>
			<path style="fill:#393487;" d="M92.936,324.903l-48.657,0.088c-2.704,0.004-4.898-2.184-4.902-4.887l0,0
				c-0.004-2.703,2.185-4.897,4.888-4.901l48.657-0.088c2.704-0.004,4.898,2.184,4.902,4.887l0,0
				C97.828,322.704,95.64,324.899,92.936,324.903z"/>
			<path style="fill:#ED6F7D;" d="M453.854,41.898l-7.018,0.01c-1.844,0.003-3.341-1.49-3.343-3.334l-0.009-6.586
				c-0.003-1.844,1.49-3.34,3.334-3.343l7.018-0.01c1.844-0.002,3.34,1.49,3.343,3.334l0.009,6.586
				C457.191,40.399,455.698,41.896,453.854,41.898z"/>
			<path style="fill:#393487;" d="M140.256-6.89l-7.018,0.009c-1.844,0.003-3.34-1.49-3.343-3.334l-0.009-6.585
				c-0.002-1.844,1.49-3.341,3.334-3.343l7.018-0.009c1.844-0.003,3.341,1.49,3.343,3.334l0.009,6.585
				C143.592-8.39,142.099-6.893,140.256-6.89z"/>
		</g>
		<g>
			<g>
				<circle style="fill:#393487;" cx="461.479" cy="144.52" r="44.921"/>
				
					<polyline style="fill:none;stroke:#FFFFFF;stroke-width:2.6287;stroke-linecap:round;stroke-linejoin:round;stroke-miterlimit:10;" points="
					441.494,146.77 458.308,159.056 478.315,133.646 				"/>
			</g>
			<g style="display:none;">
				<g style="display:inline;">
					<g>
						<g>
							<path style="fill:#393487;" d="M350.863,84.375H249.565c-3.346,0-6.058-2.712-6.058-6.058V13.09
								c0-3.346,2.712-6.058,6.058-6.058h101.298c3.346,0,6.059,2.712,6.059,6.058v65.227
								C356.922,81.663,354.209,84.375,350.863,84.375z"/>
							<path style="fill:#393487;" d="M280.596,76.827l15.118,21.635c1.573,2.251,4.909,2.237,6.463-0.026l14.844-21.61H280.596z"/>
						</g>
					</g>
				</g>
				<g style="display:inline;">
					<path style="fill:#FFFFFF;" d="M295.191,24.819l-2.738,7.615h-3.617l-3.635-10.755c-0.381-1.126-1.438-1.885-2.627-1.885
						h-9.319c-0.895,0-1.62,0.725-1.62,1.62l0,0c0,0.895,0.725,1.62,1.62,1.62h8.985l3.177,9.4h-3.863
						c-1.526,0-2.614,1.479-2.161,2.936l6.08,19.528c0.295,0.946,1.17,1.59,2.161,1.59h25.653c0.957,0,1.81-0.602,2.132-1.503
						l6.96-19.528c0.525-1.473-0.567-3.023-2.132-3.023h-2.814l-19.16-8.902C297.068,22.972,295.641,23.567,295.191,24.819z
						 M298.005,27.221l11.22,5.211h-13.095L298.005,27.221z M312.446,53.029h-23.927l-5.336-17.135h35.372L312.446,53.029z"/>
					<path style="fill:#FFFFFF;" d="M309.839,59.278c-3.445,0-6.237,2.793-6.237,6.237c0,3.444,2.792,6.237,6.237,6.237
						c3.445,0,6.237-2.792,6.237-6.237C316.077,62.069,313.283,59.278,309.839,59.278z M309.839,68.293
						c-1.532,0-2.778-1.245-2.778-2.778c0-1.532,1.245-2.778,2.778-2.778c1.533,0,2.778,1.245,2.778,2.778
						C312.617,67.047,311.37,68.293,309.839,68.293z"/>
					<path style="fill:#FFFFFF;" d="M291.027,59.278c-3.445,0-6.237,2.793-6.237,6.237c0,3.444,2.792,6.237,6.237,6.237
						c3.445,0,6.237-2.792,6.237-6.237C297.264,62.069,294.472,59.278,291.027,59.278z M291.027,68.293
						c-1.532,0-2.778-1.245-2.778-2.778c0-1.532,1.245-2.778,2.778-2.778s2.778,1.245,2.778,2.778
						C293.804,67.047,292.559,68.293,291.027,68.293z"/>
				</g>
			</g>
			<g>
				<g>
					
						<ellipse transform="matrix(0.9526 -0.3043 0.3043 0.9526 -24.1082 41.4917)" style="fill:#ED6F7D;" cx="121.076" cy="98.099" rx="52.475" ry="52.475"/>
				</g>
				<path style="fill:#FFFFFF;" d="M121.076,83.415c3.135,0,5.685,2.55,5.685,5.683h6.532c0-5.597-3.806-10.276-8.95-11.715v-3.548
					c0-1.804-1.462-3.266-3.266-3.266l0,0c-1.804,0-3.266,1.462-3.266,3.266v3.548c-7.361,2.059-11.982,10.753-6.632,19.277
					c2.069,3.296,5.897,4.73,9.787,4.655c3.186-0.061,5.795,2.512,5.795,5.684c0,3.135-2.55,5.685-5.685,5.685
					c-3.135,0-5.685-2.55-5.685-5.685h-6.531c0,5.597,3.806,10.277,8.95,11.716v3.649c0,1.804,1.462,3.266,3.266,3.266l0,0
					c1.804,0,3.266-1.462,3.266-3.266v-3.649c7.361-2.059,11.982-10.755,6.633-19.277c-2.069-3.296-5.898-4.73-9.789-4.656
					c-3.185,0.06-5.794-2.512-5.794-5.684C115.391,85.964,117.941,83.415,121.076,83.415z"/>
			</g>
		</g>
	</g>
	<g style="display:inline;">
		<g>
			<g>
				<g>
					<path style="fill:#F6A307;" d="M232.335,125.713c0,0-41.313,33.012-42.14,153.756h176.953c0,0-0.598-107.882-36.991-150.023
						L232.335,125.713z"/>
					<polygon style="fill:#F6C7BB;" points="259.295,249.836 254.39,315.243 304.784,315.243 297.679,249.109 					"/>
					<polygon style="fill:#E9A89C;" points="258.659,258.317 301.817,287.628 297.679,249.109 					"/>
					<g>
						<circle style="fill:#F6C7BB;" cx="224.643" cy="209.728" r="17.318"/>
						
							<path style="fill:none;stroke:#1B0807;stroke-width:0.6658;stroke-linecap:round;stroke-linejoin:round;stroke-miterlimit:10;" d="
							M214.883,207.016c0,0,6.978-3.158,13.201,8.986"/>
					</g>
					<g>
						<circle style="fill:#F6C7BB;" cx="334.928" cy="209.728" r="17.318"/>
						
							<path style="fill:none;stroke:#1B0807;stroke-width:0.6658;stroke-linecap:round;stroke-linejoin:round;stroke-miterlimit:10;" d="
							M344.688,207.016c0,0-6.978-3.158-13.201,8.986"/>
					</g>
					<ellipse style="fill:#F6A307;" cx="279.587" cy="168.841" rx="64.734" ry="63.125"/>
					<path style="fill:#F6C7BB;" d="M224.878,161.783c0,0-6.824,100.579,52.472,100.579c64.13,0,57.406-100.579,57.406-100.579
						s-0.363-43.887-55.432-43.887C228.841,117.896,224.878,161.783,224.878,161.783z"/>
					<g>
						
							<path style="fill:none;stroke:#1B0807;stroke-width:0.6658;stroke-linecap:round;stroke-linejoin:round;stroke-miterlimit:10;" d="
							M266.875,233.305c0,0,9.534,5.326,19.068,0"/>
						<path style="fill:#1B0807;" d="M301.985,178.894c0,0-11.789-2.292-12.334,4.053c0,0-0.279,4.304,10.024,6.04
							c10.303,1.736,14.408,1.376,15.626-2.586C316.518,182.44,307.551,179.408,301.985,178.894z"/>
						<path style="fill:#1B0807;" d="M251.187,179.168c0,0-11.997,0.533-11.041,6.829c0,0,0.737,4.25,11.16,3.524
							c10.423-0.726,14.33-2.038,14.585-6.174C266.147,179.21,256.719,178.364,251.187,179.168z"/>
						<path style="fill:#1B0807;" d="M260.136,204.161c0,2.559-2.074,4.633-4.633,4.633c-2.559,0-4.633-2.074-4.633-4.633
							c0-2.559,2.074-4.633,4.633-4.633C258.061,199.529,260.136,201.603,260.136,204.161z"/>
						<path style="fill:#1B0807;" d="M305.59,204.161c0,2.559-2.074,4.633-4.633,4.633s-4.633-2.074-4.633-4.633
							c0-2.559,2.074-4.633,4.633-4.633S305.59,201.603,305.59,204.161z"/>
						
							<polyline style="fill:none;stroke:#1B0807;stroke-width:0.6658;stroke-linecap:round;stroke-linejoin:round;stroke-miterlimit:10;" points="
							274.027,216.162 274.027,223.704 280.158,223.704 						"/>
					</g>
					<path style="fill:#F6A307;" d="M218.669,172.758c0,0,96.736-0.815,98.942-48.824c0,0-31.228-22.84-63.221-8.856
						C222.398,129.061,218.669,172.758,218.669,172.758z"/>
					<path style="fill:#F6A307;" d="M310.959,116.961c0,0-3.729,44.237,30.763,62.195
						C341.722,179.156,346.85,137.49,310.959,116.961z"/>
				</g>
				<g>
					<g>
						<path style="fill:#ED6F7D;" d="M226.148,312.051l-45.829,10.807c0,0,19.05,118.896,31.392,185.118h130.211
							c0,0,33.03-125.401,47.629-185.118l-52.664-14.027L226.148,312.051z"/>
						<path style="fill:#F6C7BB;" d="M280.084,287.406l-53.936,24.646c0,0,1.646,23.572,57.395,23.662
							c47.495,0.077,53.343-26.882,53.343-26.882L280.084,287.406z"/>
					</g>
					<g>
						<path style="fill:#ED6F7D;" d="M364.266,320.55c0,0,36.255-11.639,59.843,40.739c23.587,52.378,52.306,119.772,52.306,119.772
							l-48.585,4.224l-70.226-104.289L364.266,320.55z"/>
						<path style="fill:#F6C7BB;" d="M458.287,510.108H300.622v-30.858l157.665-12.527c11.152,0,20.193,6,20.193,23.193l0,0
							C478.48,501.067,469.439,510.108,458.287,510.108z"/>
					</g>
					<g>
						<path style="fill:#ED6F7D;" d="M205.604,320.55c0,0-36.255-11.639-59.843,40.739S93.456,481.061,93.456,481.061l48.585,4.224
							l70.226-104.289L205.604,320.55z"/>
						<path style="fill:#F6C7BB;" d="M111.583,510.108h157.665v-30.858l-157.665-12.527c-11.152,0-20.193,6-20.193,23.193l0,0
							C91.39,501.067,100.43,510.108,111.583,510.108z"/>
					</g>
				</g>
			</g>
			<g>
				<path style="fill:#EDE5E2;" d="M391.436,510.691H183.908c-5.72,0-10.357-4.637-10.357-10.357V369.319
					c0-5.72,4.637-10.357,10.357-10.357h207.528c5.72,0,10.357,4.637,10.357,10.357v131.015
					C401.793,506.054,397.156,510.691,391.436,510.691z"/>
				<circle style="fill:#FFFFFF;" cx="287.673" cy="434.827" r="13.988"/>
			</g>
		</g>
		
			<line style="fill:none;stroke:#1B0807;stroke-width:0.4886;stroke-linecap:round;stroke-linejoin:round;stroke-miterlimit:10;" x1="63.637" y1="510.691" x2="506.233" y2="510.691"/>
	</g>
</g>
<g>
	<g>
		<g>
			
				<ellipse transform="matrix(0.7071 -0.7071 0.7071 0.7071 -127.3778 285.9685)" style="opacity:0.46;fill:#2F68B1;" cx="281.506" cy="296.743" rx="192.572" ry="192.572"/>
			<g>
				<g>
					<g>
						<circle style="fill:#F8AB1D;" cx="122.153" cy="145.576" r="45.744"/>
					</g>
					<g>
						<g>
							<g>
								<path style="fill:#FFFFFF;" d="M127.498,160.264c-6.92,0.119-13.926,0.212-20.289-0.228c-2.015-0.14-3.755-3.34-1.309-4.35
									c-1.03-0.529-2.073-1.038-2.523-2.192c-0.426-1.093,0.086-2.576,1.224-2.858c-2.4,0.594-3.346-3.214-1.474-4.444
									c-0.991-0.844-1.815-1.959-2.024-3.244c-0.209-1.285,0.317-2.735,1.46-3.357c0.75-0.408,1.642-0.424,2.495-0.43
									c2.878-0.021,5.756-0.043,8.633-0.064c-0.779-4.503-1.014-9.411,1.275-13.366c0.689-1.191,2.541-2.619,4.012-1.703
									c1.378,0.86,0.996,2.996,0.926,4.343c-0.287,5.602,2.9,11.237,7.849,13.876
									C127.753,142.245,127.426,154.177,127.498,160.264z"/>
							</g>
						</g>
						
							<rect x="130.007" y="142.245" transform="matrix(-1 -1.224647e-16 1.224647e-16 -1 270.4734 302.4918)" style="fill:#FFFFFF;" width="10.459" height="18.002"/>
					</g>
				</g>
				<g>
					<g>
						<g>
							<path style="fill:#2F68B1;" d="M467.683,81.58H362.318c-2.894,0-5.241-2.346-5.241-5.24V9.135
								c0-2.894,2.346-5.241,5.241-5.241h105.365c2.894,0,5.24,2.346,5.24,5.241V76.34C472.923,79.234,470.577,81.58,467.683,81.58z
								"/>
							<path style="fill:#2F68B1;" d="M395.967,73.76l15.666,22.418c1.63,2.332,5.087,2.318,6.697-0.027l15.381-22.391H395.967z"/>
						</g>
					</g>
					<g>
						<path style="fill:#FFFFFF;" d="M435.881,64.472h-42.505c-0.559,0-1.012-0.453-1.012-1.012V37.147
							c0-0.559,0.454-1.012,1.012-1.012h42.505c0.557,0,1.012,0.453,1.012,1.012v26.312
							C436.893,64.018,436.437,64.472,435.881,64.472z M394.388,62.447h40.481V38.159h-40.481V62.447z"/>
						<path style="fill:#FFFFFF;" d="M437.905,38.159h-46.553c-0.559,0-1.012-0.453-1.012-1.012v-8.096
							c0-0.558,0.453-1.012,1.012-1.012h46.553c0.557,0,1.012,0.453,1.012,1.012v8.096
							C438.917,37.705,438.461,38.159,437.905,38.159z M392.364,36.135h44.529v-6.072h-44.529V36.135z"/>
						<path style="fill:#FFFFFF;" d="M410.58,38.159h2.024v24.289h-2.024V38.159z"/>
						<path style="fill:#FFFFFF;" d="M416.652,38.159h2.024v24.289h-2.024V38.159z"/>
						<path style="fill:#FFFFFF;" d="M410.58,30.063h2.024v6.072h-2.024V30.063z"/>
						<path style="fill:#FFFFFF;" d="M416.652,30.063h2.024v6.072h-2.024V30.063z"/>
						<path style="fill:#FFFFFF;" d="M414.628,30.063c-0.559,0-1.012-0.453-1.012-1.012c0-10.047-4.601-11.132-6.578-11.132
							c-3.064,0-3.457,1.605-3.457,3.004c0,2.88,4.556,7.117,5.987,7.117c0.559,0,1.012,0.453,1.012,1.012
							c0,0.559-0.453,1.012-1.012,1.012c-2.514,0-8.011-5.214-8.011-9.141c0-3.196,1.998-5.028,5.481-5.028
							c2.018,0,8.602,0.949,8.602,13.156C415.64,29.609,415.187,30.063,414.628,30.063z"/>
						<path style="fill:#FFFFFF;" d="M419.688,30.063c-0.557,0-1.012-0.453-1.012-1.012c0-0.558,0.455-1.012,1.012-1.012
							c1.433,0,5.987-4.237,5.987-7.117c0-1.399-0.392-3.004-3.457-3.004c-1.978,0-6.578,1.085-6.578,11.132
							c0,0.559-0.454,1.012-1.012,1.012c-0.559,0-1.012-0.453-1.012-1.012c0-12.207,6.584-13.156,8.602-13.156
							c3.483,0,5.481,1.832,5.481,5.028C427.7,24.849,422.202,30.063,419.688,30.063z"/>
					</g>
				</g>
			</g>
		</g>
		<g>
			<path style="fill:#2F68B1;" d="M155.727,384.835l-79.421,0.077c-2.375,0.003-4.303-1.919-4.306-4.294l0,0
				c-0.003-2.374,1.919-4.302,4.294-4.305l79.421-0.077c2.375-0.003,4.303,1.919,4.306,4.293l0,0
				C160.025,382.904,158.102,384.832,155.727,384.835z"/>
			<path style="fill:#ED6F7D;" d="M457.078,173.786l-37.564,0.077c-2.375,0.003-4.303-1.919-4.306-4.293l0,0
				c-0.003-2.374,1.919-4.302,4.294-4.305l37.564-0.077c2.375-0.003,4.303,1.919,4.306,4.294l0,0
				C461.375,171.855,459.452,173.783,457.078,173.786z"/>
			<path style="fill:#393487;" d="M460.446,419.777l-6.165,0.009c-1.619,0.002-2.934-1.309-2.937-2.929l-0.008-5.785
				c-0.002-1.62,1.309-2.934,2.929-2.937l6.165-0.009c1.62-0.002,2.934,1.309,2.937,2.929l0.008,5.785
				C463.377,418.46,462.066,419.775,460.446,419.777z"/>
			<path style="fill:#393487;" d="M170.988,52.477l-6.165,0.009c-1.619,0.002-2.934-1.309-2.937-2.929l-0.008-5.785
				c-0.002-1.62,1.309-2.934,2.929-2.937l6.165-0.009c1.62-0.002,2.934,1.309,2.937,2.929l0.008,5.785
				C173.919,51.16,172.608,52.475,170.988,52.477z"/>
		</g>
	</g>
	<g>
		<g>
			<path style="fill:#1C1A39;" d="M345.588,151.251c-17.129-24.039-20.009-63.567-20.009-63.567L283.47,72.578v-1.245l-2.545,0.623
				l-2.545-0.623v1.245l-41.794,14.745c0,0-4.548,41.094-21.677,65.133c-16.927,23.756-4.778,53.43,66.016,49.058
				C351.719,205.886,362.515,175.007,345.588,151.251z"/>
			<g>
				<g>
					<path style="fill:#ED6F7D;" d="M280.245,398.991l18.417,110.12h63.307c-0.024-0.415-0.049-0.833-0.067-1.234
						c-1.102-24.932-3.753-139.594-41.432-193.211l-0.795-8.483h-81.668l-0.127,8.456c-9.498,14.416-29.242,58.026-31.618,118.597
						c0,0-1.435,21.625,3.182,75.874h60.709L280.245,398.991z"/>
				</g>
				
					<line style="fill:none;stroke:#1B0807;stroke-width:0.4886;stroke-linecap:round;stroke-linejoin:round;stroke-miterlimit:10;" x1="237.88" y1="329.82" x2="320.47" y2="329.82"/>
				
					<line style="fill:none;stroke:#1B0807;stroke-width:0.4886;stroke-linecap:round;stroke-linejoin:round;stroke-miterlimit:10;" x1="263.521" y1="404.243" x2="302.354" y2="396.591"/>
			</g>
			<g>
				<g>
					<path style="fill:#393487;" d="M329.363,185.629c0,0,47.782-2.972,55.592,37.402c4.971,25.696,25.944,74.523,22.888,107.331
						c-1.929,20.713-27.979,33.97-50.273,24.998c-5.839-2.35-10.541-5.962-12.058-11.487
						C340.456,325.459,329.363,185.629,329.363,185.629z"/>
					<path style="fill:#FFFFFF;" d="M263.6,180.73l-38.49,3.726c-5.744,1.545-10.036,11.007-9.323,17.147l22.22,117.84h81.668
						l24.667-115.707c0.714-6.166-3.341-16.509-9.119-18.025l-38.615-5.615L263.6,180.73z"/>
					<path style="fill:#393487;" d="M234.853,183.454c0,0-47.782-2.972-55.592,37.402c-4.971,25.697-25.943,74.523-22.888,107.331
						c1.929,20.713,27.979,33.97,50.273,24.998c5.839-2.35,10.541-5.962,12.058-11.487
						C223.76,323.285,234.853,183.454,234.853,183.454z"/>
					<g>
						<g>
							<path style="fill:#393487;" d="M251.459,181.83c0,0,10.013,97.196,5.006,190.847l-49.593,5.438
								c0,0,1.958-51.594,1.304-67.929c-2.056-51.394-24.957-101.234-24.957-101.234s12.533-22.275,33.81-24.571L251.459,181.83z"/>
						</g>
						
							<line style="fill:none;stroke:#1B0807;stroke-width:0.4886;stroke-linecap:round;stroke-linejoin:round;stroke-miterlimit:10;" x1="209.744" y1="272.748" x2="212.708" y2="236.593"/>
					</g>
					<g>
						<path style="fill:#393487;" d="M311.614,181.841c0,0-11.345,145.393-10.826,192.685l54.231,2.205
							c0,0-3.446-114.957,1.707-173.893c0.59-6.746-3.904-14.21-10.522-15.649C338.022,185.41,326.013,184.298,311.614,181.841z"/>
						
							<line style="fill:none;stroke:#1B0807;stroke-width:0.4886;stroke-linecap:round;stroke-linejoin:round;stroke-miterlimit:10;" x1="353.602" y1="272.748" x2="350.638" y2="236.593"/>
					</g>
				</g>
				<g>
					<g>
						<defs>
							<path id="XMLID_32_" d="M299,269.217h-31.863c-3.662,0-6.631-2.969-6.631-6.631v-66.203c0-3.662,2.969-6.631,6.631-6.631H299
								c3.662,0,6.631,2.969,6.631,6.631v66.203C305.632,266.248,302.663,269.217,299,269.217z"/>
						</defs>
						<use xlink:href="#XMLID_32_"  style="overflow:visible;fill:#362563;"/>
						<clipPath id="XMLID_2_">
							<use xlink:href="#XMLID_32_"  style="overflow:visible;"/>
						</clipPath>
						<path style="clip-path:url(#XMLID_2_);fill:#20173C;" d="M299,272.98h-31.863c-3.662,0-6.631-2.969-6.631-6.631v-66.203
							c0-3.662,2.969-6.631,6.631-6.631H299c3.662,0,6.631,2.969,6.631,6.631v66.203C305.632,270.011,302.663,272.98,299,272.98z"/>
					</g>
					<g>
						<g>
							<g>
								<path id="XMLID_31_" style="fill:#F6B0AB;" d="M260.091,229.354l-0.043-0.665c-0.315-4.852-5.993-6.174-9.31-2.619
									c-4.202,4.505-9.372,12.528-13.135,29.92l12.335,12.74c0,0,34.056-10.768,41.917-25.239c0,0,1.041-1.942-0.195-3.338
									c-1.236-1.396-2.218-1.274-2.218-1.274s2.269-1.841,1.342-4.974c0,0-0.611-1.925-2.141-2.185c0,0,1.106-5.371-3.453-5.622
									l0.11-0.156c1.094-1.554,0.956-3.661-0.331-5.06l0,0c-1.385-1.505-3.662-1.74-5.323-0.546
									C275.276,223.476,265.485,229.104,260.091,229.354z"/>
								<path style="fill:#F6B0AB;" d="M260.192,230.846c0,0,0.878-5.577,0.164-10.594c-0.548-3.848-3.805-6.001-6.827-4.643l0,0
									c-2.563,1.152-3.453,4.146-2.893,7.388c0.773,4.477-1.026,8.566-2.708,14.987c-3.278,12.517-0.315,20.331-0.315,20.331
									L260.192,230.846z"/>
							</g>
						</g>
						<g>
							<polygon style="fill:#393487;" points="241.562,240.251 175.472,307.303 209.399,354.419 279.099,268.62 							"/>
							
								<line style="fill:none;stroke:#1B0807;stroke-width:0.4886;stroke-linecap:round;stroke-linejoin:round;stroke-miterlimit:10;" x1="241.562" y1="240.251" x2="187.286" y2="295.685"/>
							
								<line style="fill:none;stroke:#1B0807;stroke-width:0.4886;stroke-linecap:round;stroke-linejoin:round;stroke-miterlimit:10;" x1="257.112" y1="295.685" x2="208.069" y2="352.571"/>
						</g>
					</g>
				</g>
				<g>
					<g>
						<g>
							<g>
								<path style="fill:#F6B0AB;" d="M305.333,232.5l0.298-8.601c0,0,12.868-3.248,22.299,34.678l-10.89,14.17
									c0,0-35.419-10.775-43.72-24.998c0,0-1.1-1.909,0.092-3.343c1.192-1.434,2.178-1.341,2.178-1.341s-2.325-1.77-1.494-4.931
									c0,0,0.551-1.943,2.073-2.249c0,0-1.27-5.335,3.279-5.726l-0.114-0.152c-1.141-1.52-1.068-3.63,0.176-5.068l0,0
									c1.339-1.546,3.607-1.851,5.303-0.709C289.278,227.235,299.935,232.416,305.333,232.5z"/>
							</g>
						</g>
					</g>
					<g>
						<polygon style="fill:#393487;" points="321.414,239.124 385.221,306.184 355.925,352.938 283.965,269.025 						"/>
						
							<line style="fill:none;stroke:#1B0807;stroke-width:0.4886;stroke-linecap:round;stroke-linejoin:round;stroke-miterlimit:10;" x1="321.414" y1="239.124" x2="372.361" y2="293.794"/>
						
							<line style="fill:none;stroke:#1B0807;stroke-width:0.4886;stroke-linecap:round;stroke-linejoin:round;stroke-miterlimit:10;" x1="304.721" y1="293.12" x2="354.483" y2="353.93"/>
					</g>
				</g>
			</g>
			<g>
				<path style="fill:#F6B3A2;" d="M294.162,144.018c0,0-4.491,0.155-10.756,1.319c-6.265,1.164-11.38-2.127-12.639,2.114
					c-0.025,0.085-5.116-4.241-5.116-4.241l-3.863,37.916c0,0,19.132,10.147,37.233-0.525L294.162,144.018z"/>
				<polygon style="fill:#E38574;" points="265.468,151.178 297.152,170.033 293.824,139.581 				"/>
				<g>
					<path style="fill:#1C1A39;" d="M325.808,92.976c0,25.739-20.03,46.605-44.737,46.605c-24.708,0-44.738-20.866-44.738-46.605
						s20.03-43.25,44.738-43.25C305.779,49.726,325.808,67.237,325.808,92.976z"/>
				</g>
				<path style="fill:#F6B3A2;" d="M316.167,93.871c0,14.641-2.119,27.276-4.235,36.243c-2.072,8.779-7.9,14.914-16.138,19.853
					l-1.5,0.899c-8.715,5.225-19.976,5.347-28.825,0.312h0c-8.925-5.079-15.174-11.774-17.097-21.195
					c-3.498-17.135-3.88-36.113-3.88-36.113s-3.328-36.961,35.327-36.243C318.472,58.346,316.167,93.871,316.167,93.871z"/>
				<g>
					<path style="fill:#F6B3A2;" d="M248.707,130.708c-6.521,6.301-21.478-10.383-15.449-17.775
						c5.556-6.812,12.153-0.872,12.153-0.872l1.338,6.948l1.991,9.353l0.514,2.097L248.707,130.708z"/>
				</g>
				<g>
					<path style="fill:#F6B3A2;" d="M311.913,130.25c6.911,5.442,21.59-13.448,14.888-19.269
						c-6.702-5.821-11.931,0.572-11.931,0.572l-1.211,6.969l-1.821,9.384l-0.475,2.105L311.913,130.25z"/>
				</g>
				<polygon style="fill:#1C1A39;" points="237.852,105.693 246.078,116.104 244.419,90.731 				"/>
				<polygon style="fill:#1C1A39;" points="321.872,105.693 314.429,115.86 316.133,90.731 				"/>
				<path style="fill:#1C1A39;" d="M248.699,65.048c0,0-2.314,33.479,71.568,28.607c0,0,6.279-25.793-23.507-36.038
					S248.699,65.048,248.699,65.048z"/>
				<path style="fill:#1C1A39;" d="M237.906,100.722c0,0,17.935-7.797,20.255-37.435C258.161,63.287,239.992,68.585,237.906,100.722
					z"/>
				
					<path style="fill:none;stroke:#1B0807;stroke-width:0.4886;stroke-linecap:round;stroke-linejoin:round;stroke-miterlimit:10;" d="
					M245.348,122.011c0,0-0.909-4.943-7.745-4.806"/>
				
					<path style="fill:none;stroke:#1B0807;stroke-width:0.4886;stroke-linecap:round;stroke-linejoin:round;stroke-miterlimit:10;" d="
					M314.758,122.011c0,0,0.909-4.943,7.745-4.806"/>
				<g>
					
						<path style="fill:none;stroke:#1B0807;stroke-width:0.4886;stroke-linecap:round;stroke-linejoin:round;stroke-miterlimit:10;" d="
						M269.999,134.865c0,0,7.306,4.32,17.794,0"/>
					<path style="fill:#1B0807;" d="M295.976,98.528c0,0-7.873-1.531-8.237,2.706c0,0-0.186,2.874,6.694,4.034
						c6.881,1.159,9.623,0.919,10.436-1.727C305.682,100.896,299.693,98.871,295.976,98.528z"/>
					<path style="fill:#1B0807;" d="M262.051,98.71c0,0-8.012,0.356-7.374,4.561c0,0,0.492,2.838,7.453,2.353s9.57-1.361,9.74-4.124
						C272.042,98.739,265.746,98.173,262.051,98.71z"/>
					<circle style="fill:#1B0807;" cx="264.934" cy="115.402" r="3.094"/>
					<circle style="fill:#1B0807;" cx="295.289" cy="115.402" r="3.094"/>
					
						<polyline style="fill:none;stroke:#1B0807;stroke-width:0.4886;stroke-linecap:round;stroke-linejoin:round;stroke-miterlimit:10;" points="
						277.305,121.864 277.305,128.453 280.645,128.453 					"/>
				</g>
			</g>
		</g>
		
			<line style="fill:none;stroke:#1B0807;stroke-width:0.4886;stroke-linecap:round;stroke-linejoin:round;stroke-miterlimit:10;" x1="155.268" y1="509.111" x2="408.146" y2="509.111"/>
	</g>
</g>
<g>
</g>
<g>
</g>
<g>
</g>
<g>
</g>
<g>
</g>
<g>
</g>
</svg>
